<svg width="24" height="24" viewBox="0 0 24 24" fill="none" xmlns="http://www.w3.org/2000/svg">
<path fill-rule="evenodd" clip-rule="evenodd" d="M21.7071 21.7071C21.5119 21.9023 21.1953 21.9023 21 21.7071L1.70715 2.41418C1.51188 2.21891 1.51188 1.90233 1.70715 1.70707C1.90241 1.51181 2.21899 1.51181 2.41425 1.70707L21.7071 21C21.9024 21.1952 21.9024 21.5118 21.7071 21.7071Z" fill="white"/>
<path fill-rule="evenodd" clip-rule="evenodd" d="M1.70707 21.7071C1.90233 21.9023 2.21891 21.9023 2.41418 21.7071L21.7071 2.41418C21.9023 2.21891 21.9023 1.90233 21.7071 1.70707C21.5118 1.51181 21.1952 1.51181 21 1.70707L1.70707 21C1.51181 21.1952 1.51181 21.5118 1.70707 21.7071Z" fill="white"/>
</svg>
