<svg width="34" height="37" viewBox="0 0 34 37" fill="none" xmlns="http://www.w3.org/2000/svg">
<g id="Frame 29">
<g id="Icons">
<path id="Vector" d="M1 36H12.7895V30.0244H1V36ZM1.84211 30.8781H11.9474V35.1464H1.84211V30.8781Z" fill="#5A6CC0" stroke="#5A6CC0" stroke-width="1.0001"/>
<path id="Vector_2" d="M21.2104 30.0244V36H32.9999V30.0244H21.2104ZM32.1578 35.1464H22.0526V30.8781H32.1578V35.1464Z" fill="#5A6CC0" stroke="#5A6CC0" stroke-width="1.0001"/>
<path id="Vector_3" d="M20.9634 20.2073H26.6838V27.7033C26.6838 27.7088 26.6805 27.7101 26.6767 27.7062L24.8762 25.8811C24.709 25.7173 24.4424 25.722 24.2809 25.8916C24.1233 26.057 24.1233 26.3193 24.2809 26.4847L26.8072 29.0456C26.9716 29.2123 27.2381 29.2123 27.4026 29.0456L29.9289 26.4847C30.0904 26.3151 30.0858 26.0449 29.9185 25.8811C29.7554 25.7214 29.4967 25.7214 29.3335 25.8811L27.5331 27.7062C27.5293 27.7101 27.5259 27.7088 27.5259 27.7033V19.3536H20.9634L16.9996 15.3354L13.0358 19.3536H6.4733V27.7033C6.4733 27.7088 6.46993 27.7101 6.46614 27.7062L4.66572 25.8811C4.49843 25.7173 4.23191 25.722 4.07035 25.8916C3.91275 26.057 3.91275 26.3193 4.07035 26.4847L6.59666 29.0456C6.76109 29.2123 7.02761 29.2123 7.19203 29.0456L9.71835 26.4847C9.88563 26.3209 9.89026 26.0507 9.72871 25.8811C9.56715 25.7115 9.30058 25.7068 9.13334 25.8706C9.1298 25.8741 9.12639 25.8776 9.12298 25.8811L7.32256 27.7062C7.31877 27.7101 7.3154 27.7088 7.3154 27.7033V20.2073H13.0358L16.9996 24.2255L20.9634 20.2073ZM16.9996 16.5425L20.1937 19.7804L16.9996 23.0184L13.8055 19.7804L16.9996 16.5425Z" fill="#5A6CC0" stroke="#5A6CC0" stroke-width="1.0001"/>
<path id="Vector_4" d="M16.5792 13.0097C16.5792 13.0152 16.5758 13.0165 16.572 13.0127L14.7716 11.1876C14.61 11.018 14.3435 11.0133 14.1762 11.1771C14.0089 11.3408 14.0043 11.6111 14.1658 11.7806C14.1693 11.7842 14.1727 11.7877 14.1762 11.7911L16.7025 14.3521C16.8669 14.5187 17.1335 14.5187 17.2979 14.3521L19.8242 11.7911C19.9915 11.6273 19.9961 11.3571 19.8346 11.1876C19.673 11.018 19.4064 11.0133 19.2392 11.1771C19.2357 11.1805 19.2322 11.184 19.2288 11.1876L17.4284 13.0127C17.4246 13.0165 17.4213 13.0152 17.4213 13.0097V6.97561H22.8949V1H11.1055V6.97561H16.5792V13.0097ZM11.9476 1.85366H22.0528V6.12195H11.9476V1.85366Z" fill="#5A6CC0" stroke="#5A6CC0" stroke-width="1.0001"/>
</g>
</g>
</svg>
