<svg width="34" height="37" viewBox="0 0 34 37" fill="none" xmlns="http://www.w3.org/2000/svg">
<g id="Frame 29">
<g id="Icons">
<path id="Vector" d="M1 36H12.7895V30.0244H1V36ZM1.84211 30.8781H11.9474V35.1464H1.84211V30.8781Z" fill="#5A6CC0" stroke="#5A6CC0" stroke-width="1.0001"/>
<path id="Vector_2" d="M21.2104 30.0244V36H32.9999V30.0244H21.2104ZM32.1578 35.1464H22.0526V30.8781H32.1578V35.1464Z" fill="#5A6CC0" stroke="#5A6CC0" stroke-width="1.0001"/>
<path id="Vector_3" d="M20.9636 20.2073H26.6841V27.7033C26.6841 27.7088 26.6807 27.7101 26.6769 27.7062L24.8765 25.8811C24.7092 25.7173 24.4427 25.722 24.2811 25.8916C24.1235 26.057 24.1235 26.3193 24.2811 26.4847L26.8074 29.0456C26.9719 29.2123 27.2384 29.2123 27.4028 29.0456L29.9291 26.4847C30.0907 26.3151 30.086 26.0449 29.9188 25.8811C29.7556 25.7214 29.4969 25.7214 29.3338 25.8811L27.5333 27.7062C27.5295 27.7101 27.5262 27.7088 27.5262 27.7033V19.3536H20.9636L16.9999 15.3354L13.0361 19.3536H6.47354V27.7033C6.47354 27.7088 6.47017 27.7101 6.46638 27.7062L4.66596 25.8811C4.49868 25.7173 4.23215 25.722 4.07059 25.8916C3.91299 26.057 3.91299 26.3193 4.07059 26.4847L6.59691 29.0456C6.76133 29.2123 7.02786 29.2123 7.19228 29.0456L9.71859 26.4847C9.88588 26.3209 9.89051 26.0507 9.72895 25.8811C9.56739 25.7115 9.30083 25.7068 9.13358 25.8706C9.13005 25.8741 9.12664 25.8776 9.12322 25.8811L7.3228 27.7062C7.31901 27.7101 7.31565 27.7088 7.31565 27.7033V20.2073H13.0361L16.9999 24.2255L20.9636 20.2073ZM16.9999 16.5425L20.194 19.7804L16.9999 23.0184L13.8058 19.7804L16.9999 16.5425Z" fill="#5A6CC0" stroke="#5A6CC0" stroke-width="1.0001"/>
<path id="Vector_4" d="M16.5789 13.0097C16.5789 13.0152 16.5755 13.0165 16.5718 13.0127L14.7713 11.1876C14.6098 11.018 14.3432 11.0133 14.176 11.1771C14.0087 11.3408 14.004 11.6111 14.1656 11.7806C14.169 11.7842 14.1725 11.7877 14.176 11.7911L16.7023 14.3521C16.8667 14.5187 17.1332 14.5187 17.2976 14.3521L19.824 11.7911C19.9912 11.6273 19.9959 11.3571 19.8343 11.1876C19.6728 11.018 19.4062 11.0133 19.239 11.1771C19.2354 11.1805 19.232 11.184 19.2286 11.1876L17.4282 13.0127C17.4244 13.0165 17.421 13.0152 17.421 13.0097V6.97561H22.8947V1H11.1052V6.97561H16.5789V13.0097ZM11.9473 1.85366H22.0526V6.12195H11.9473V1.85366Z" fill="#5A6CC0" stroke="#5A6CC0" stroke-width="1.0001"/>
</g>
</g>
</svg>
