<svg width="48" height="48" viewBox="0 0 48 48" fill="none" xmlns="http://www.w3.org/2000/svg">
<g id="icon 27">
<path id="Vector" d="M3.99978 24.7V32.9C3.99978 37.35 7.59978 40.95 12.0498 40.95C14.8498 40.95 17.3998 39.5 18.8998 37.15C22.0998 39.55 25.9498 40.85 29.9498 40.85H36.4998H36.7498L35.2998 42.3C34.8998 42.7 34.8998 43.3 35.2998 43.7C35.6998 44.1 36.2998 44.1 36.6998 43.7L39.6998 40.7C40.0998 40.3 40.0998 39.7 39.6998 39.3L36.6998 36.25C36.3498 35.85 35.6998 35.8 35.2998 36.15C34.8998 36.5 34.8498 37.15 35.1998 37.55L35.2498 37.6L36.2498 38.65L36.3998 38.8H29.9498C26.2498 38.8 22.6498 37.55 19.7498 35.25C19.7998 35.15 19.8498 35 19.8498 34.9L22.1498 26.15C23.0998 22.65 25.4498 19.65 28.6498 17.95C30.4998 20.8 31.4998 24.1 31.4998 27.45V27.55L30.1998 26.25C29.7998 25.85 29.1998 25.85 28.7998 26.25C28.3998 26.65 28.3998 27.25 28.7998 27.65L31.7998 30.65C32.1998 31.05 32.7998 31.05 33.1998 30.65L36.2498 27.65C36.6498 27.25 36.6998 26.65 36.2998 26.25C35.9498 25.85 35.2998 25.8 34.8998 26.2L34.8498 26.25L33.4998 27.6V27.45C33.4998 23.8 32.4498 20.25 30.5498 17.2C31.9498 16.7 33.3998 16.45 34.8998 16.45H43.5998L42.2998 17.75C41.8998 18.15 41.8998 18.8 42.2998 19.15C42.6998 19.5 43.3498 19.55 43.6998 19.15L46.6998 16.15C47.0998 15.75 47.0998 15.15 46.6998 14.75L43.6998 11.7C43.2998 11.3 42.6998 11.25 42.2998 11.65C41.8998 12 41.8498 12.65 42.2498 13.05L42.2998 13.1L43.5998 14.4H34.8498C32.9498 14.4 31.0998 14.75 29.2998 15.45C26.9498 12.5 23.7998 10.25 20.1998 9.10002C22.9998 7.00002 26.4498 5.90002 29.9498 5.90002C30.4998 5.90002 30.9498 5.45002 30.9498 4.90002C30.9498 4.35002 30.4998 3.90002 29.9498 3.90002C25.4998 3.90002 21.1498 5.55002 17.7998 8.50002C13.8498 7.75002 9.74978 8.25002 6.04978 10C5.54978 10.25 5.29978 10.8 5.54978 11.3C5.79978 11.8 6.34978 12.05 6.84978 11.8C6.84978 11.8 6.84978 11.8 6.89978 11.8C9.19978 10.7 11.6998 10.15 14.1998 10.15C14.7998 10.15 15.3998 10.2 15.9998 10.25C9.44978 17.75 10.0498 29.05 17.2998 35.8C15.6498 38.7 11.9498 39.75 9.04978 38.1C7.14978 37.05 5.94978 35 5.94978 32.8V24.95V24.8L7.24978 26.1C7.64978 26.5 8.24978 26.5 8.64978 26.1C9.04978 25.7 9.04978 25.1 8.64978 24.7L5.64978 21.7C5.24978 21.3 4.64978 21.3 4.24978 21.7L1.19978 24.7C0.799779 25.05 0.749779 25.7 1.09978 26.1C1.44978 26.5 2.09978 26.55 2.49978 26.2L2.54978 26.15L3.99978 24.7ZM20.2498 25.7L18.0998 33.8C11.8498 27.3 11.9998 17 18.3998 10.7C21.9498 11.6 25.1498 13.55 27.4998 16.4C23.8998 18.4 21.2998 21.75 20.2498 25.7Z" fill="#5A6CC0"/>
</g>
</svg>
