<svg width="48" height="48" viewBox="0 0 48 48" fill="none" xmlns="http://www.w3.org/2000/svg">
<g id="icon 30">
<g id="Icons">
<path id="Vector" d="M37.0002 25.2169V20.0562C36.9901 19.8666 36.8824 19.6959 36.7157 19.605L32.0002 17.3522V8.71681L24.0002 3.91681L16.0002 8.71681V17.3522L11.2849 19.605C11.1183 19.6959 11.0107 19.8666 11.0005 20.0561V25.2169L3.50049 29.7169V39.2832L11.5005 44.0832L18.7648 39.7248L23.6973 42.9198C23.8588 43.0247 24.0663 43.0274 24.2305 42.9266L29.3438 39.7896L36.5002 44.083L44.5002 39.283V29.7168L37.0002 25.2169ZM43.0213 30.0043L36.5002 33.917L29.9793 30.0043C29.9769 30.0034 29.9757 30.0008 29.9766 29.9984C29.9771 29.9972 29.978 29.9962 29.9793 29.9957L36.0002 26.3831V28.3589C36.0002 28.6351 36.2241 28.8589 36.5002 28.8589C36.7764 28.8589 37.0002 28.6351 37.0002 28.3589V26.3831L43.0212 29.9957C43.0236 29.9966 43.0248 29.9993 43.0239 30.0017C43.0234 30.0029 43.0224 30.0039 43.0212 30.0043H43.0213ZM29.2722 16.0489C29.023 15.9298 28.7245 16.0353 28.6054 16.2844C28.4864 16.5336 28.5919 16.8321 28.841 16.9512L30.7534 17.865L24.5078 21.6124C24.5036 21.6149 24.5002 21.613 24.5002 21.6081V13.7831L30.9927 9.88776C30.9968 9.88526 31.0002 9.88721 31.0002 9.89206V16.8746L29.2722 16.0489ZM30.5212 9.00431L24.0002 12.917L17.4793 9.00431C17.4769 9.00341 17.4757 9.00076 17.4766 8.99836C17.4771 8.99716 17.478 8.99616 17.4793 8.99571L24.0002 5.08301L30.5212 8.99571C30.5235 8.99661 30.5247 8.99926 30.5238 9.00166C30.5234 9.00286 30.5224 9.00386 30.5212 9.00431ZM17.0078 9.88761L23.5002 13.783V21.608C23.5002 21.613 23.4968 21.6148 23.4927 21.6123L17.247 17.865L19.1594 16.9513C19.4086 16.8323 19.5141 16.5338 19.395 16.2846C19.2759 16.0354 18.9774 15.93 18.7283 16.049L17.0002 16.8744V9.89191C17.0002 9.88706 17.0036 9.88501 17.0078 9.88761ZM11.5002 28.8589C11.7764 28.8589 12.0002 28.6351 12.0002 28.3589V26.3831L18.0211 29.9957C18.0235 29.9966 18.0247 29.9993 18.0238 30.0017C18.0233 30.0029 18.0224 30.0039 18.0211 30.0043L11.5002 33.917L4.97929 30.0043C4.97691 30.0034 4.97572 30.0008 4.97662 29.9984C4.97709 29.9972 4.97806 29.9962 4.97929 29.9957L11.0002 26.3831V28.3589C11.0002 28.6351 11.2241 28.8589 11.5002 28.8589ZM4.50779 30.8876L11.0002 34.783V42.608C11.0002 42.613 10.9968 42.6148 10.9927 42.6123L4.50024 38.7168V30.8918C4.50024 30.8871 4.50364 30.885 4.50779 30.8876ZM12.0002 42.6081V34.7831L18.4927 30.8878C18.4968 30.8853 18.5002 30.8872 18.5002 30.8921V38.3625L17.272 37.5669C17.0449 37.4097 16.7335 37.4664 16.5763 37.6934C16.4191 37.9205 16.4757 38.2319 16.7028 38.3891C16.7112 38.3949 16.7197 38.4005 16.7285 38.4058L17.8298 39.1192L12.0078 42.6124C12.0036 42.615 12.0002 42.613 12.0002 42.6081ZM23.9761 41.9092L19.5002 39.01V29.7168L12.0002 25.2171V20.3716L16.1646 18.382L24.0002 23.083L31.8356 18.382L36.0002 20.3716V25.2171L28.5002 29.7168V39.1333L23.9761 41.9092ZM31.4265 37.925C31.2822 37.6896 30.9744 37.6157 30.7389 37.7599C30.7389 37.76 30.7388 37.76 30.7388 37.76L29.5002 38.5197V30.8919C29.5002 30.8869 29.5036 30.8851 29.5078 30.8876L36.0002 34.783V42.608C36.0002 42.613 35.9968 42.6148 35.9927 42.6123L30.3046 39.1995L31.2617 38.6123C31.4969 38.468 31.5706 38.1603 31.4265 37.925ZM37.0002 42.6081V34.7831L43.4927 30.8878C43.4968 30.8853 43.5002 30.8872 43.5002 30.8921V38.7171L37.0078 42.6124C37.0036 42.615 37.0002 42.613 37.0002 42.6081Z" fill="#5A6CC0" stroke="#5A6CC0" stroke-width="0.999905"/>
</g>
</g>
</svg>
