<svg width="48" height="48" viewBox="0 0 48 48" fill="none" xmlns="http://www.w3.org/2000/svg">
<g id="icon 2">
<g id="Group">
<g id="Vector">
<path fill-rule="evenodd" clip-rule="evenodd" d="M6.77945 4.35881C6.91195 4.13639 7.15174 4.00012 7.41064 4.00012H16.5513C16.8102 4.00012 17.05 4.13639 17.1825 4.35881L21.8584 12.2082C21.9949 12.4372 21.9965 12.7222 21.8628 12.9528L17.1868 21.0151C17.0554 21.2417 16.8133 21.3812 16.5513 21.3812H7.41064C7.14867 21.3812 6.90652 21.2417 6.77509 21.0151L2.09915 12.9528C1.96541 12.7222 1.96707 12.4372 2.10351 12.2082L6.77945 4.35881ZM7.82815 5.46951L3.5869 12.5892L7.83385 19.9118H16.1281L20.375 12.5892L16.1338 5.46951H7.82815Z" fill="#5A6CC0"/>
<path fill-rule="evenodd" clip-rule="evenodd" d="M26.7859 27.8907C26.0951 27.7753 25.4796 27.5817 24.9037 27.3881L25.3263 26.3844C25.7873 26.578 26.3633 26.7318 26.9392 26.8869L26.7859 27.8907ZM23.9064 26.8485C23.3305 26.5011 22.7929 26.1139 22.3702 25.6511L23.1376 24.878C23.5603 25.3037 23.983 25.6511 24.4823 25.9216L23.9064 26.8485ZM21.6397 24.7242C21.295 24.1832 20.9872 23.6038 20.7957 22.9474L21.7943 22.6385C21.9475 23.1795 22.2156 23.6807 22.4851 24.1063L21.6397 24.7242ZM20.488 21.827C20.4113 21.2091 20.3347 20.6296 20.3347 19.9733L21.3716 19.9348V19.9733C21.3716 20.5912 21.4099 21.1706 21.5248 21.6732L20.488 21.827Z" fill="#5A6CC0"/>
<path fill-rule="evenodd" clip-rule="evenodd" d="M28.0882 38.9647C27.9032 38.9647 27.7196 38.9647 27.5347 38.9647L27.5717 37.8323C28.0882 37.8734 28.7142 37.8323 29.2307 37.7514L29.3404 38.8838C28.9362 38.9249 28.4937 38.9647 28.0882 38.9647ZM30.4473 38.6412L30.1883 37.5499C30.7048 37.3881 31.1844 37.1866 31.6269 36.9028L32.1419 37.8323C31.6268 38.197 31.0364 38.4396 30.4473 38.6412ZM33.0639 37.1057L32.4009 36.2557C32.8434 35.8924 33.1749 35.4071 33.4695 34.9629L34.3175 35.5291C33.986 36.1351 33.5804 36.6602 33.0639 37.1057ZM34.871 34.5174L33.912 34.0334C34.1326 33.507 34.3545 32.9408 34.4654 32.3348L35.4601 32.5775C35.2765 33.3054 35.0916 33.9114 34.871 34.5174Z" fill="#5A6CC0"/>
<path fill-rule="evenodd" clip-rule="evenodd" d="M6.69798 12.6909C6.69798 9.76194 9.0637 7.38696 11.9816 7.38696C14.8994 7.38696 17.2651 9.76194 17.2651 12.6909C17.2651 15.6198 14.8994 17.9948 11.9816 17.9948C9.0637 17.9948 6.69798 15.6198 6.69798 12.6909Z" fill="#5A6CC0"/>
<path fill-rule="evenodd" clip-rule="evenodd" d="M30.3751 13.2363C30.5065 13.0097 30.7487 12.8702 31.0106 12.8702H40.1513C40.4133 12.8702 40.6554 13.0097 40.7868 13.2363L45.4628 21.2983C45.5965 21.5289 45.5949 21.8138 45.4584 22.0429L40.7825 29.8926C40.65 30.1151 40.4102 30.2513 40.1513 30.2513H31.0106C30.7517 30.2513 30.5119 30.1151 30.3794 29.8926L25.7035 22.0429C25.5671 21.8138 25.5654 21.5289 25.6992 21.2983L30.3751 13.2363ZM31.4338 14.3396L27.1869 21.6619L31.4282 28.782H39.7338L43.975 21.6619L39.7281 14.3396H31.4338Z" fill="#5A6CC0"/>
<path fill-rule="evenodd" clip-rule="evenodd" d="M30.298 21.561C30.298 18.6319 32.6637 16.2571 35.5816 16.2571C38.4994 16.2571 40.8651 18.6319 40.8651 21.561C40.8651 24.4901 38.4994 26.8649 35.5816 26.8649C32.6637 26.8649 30.298 24.4901 30.298 21.561Z" fill="#5A6CC0"/>
<path fill-rule="evenodd" clip-rule="evenodd" d="M10.7775 27.1625C10.9095 26.938 11.1504 26.8001 11.4109 26.8001H20.5511C20.8115 26.8001 21.0525 26.938 21.1844 27.1625L25.8606 35.1184C25.9957 35.3482 25.9957 35.6331 25.8606 35.863L21.1844 43.8188C21.0525 44.0433 20.8115 44.1812 20.5511 44.1812H11.4109C11.1504 44.1812 10.9095 44.0433 10.7775 43.8188L6.10131 35.863C5.96623 35.6331 5.96623 35.3482 6.10131 35.1184L10.7775 27.1625ZM11.8313 28.2695L7.5869 35.4907L11.8313 42.7118H20.1307L24.375 35.4907L20.1307 28.2695H11.8313Z" fill="#5A6CC0"/>
<path fill-rule="evenodd" clip-rule="evenodd" d="M21.2659 35.4909C21.2659 32.591 18.9141 30.187 15.9647 30.187C13.0505 30.187 10.6988 32.591 10.6988 35.4909C10.6988 38.4611 13.0505 40.7948 15.9647 40.7948C18.9141 40.7948 21.2659 38.4611 21.2659 35.4909Z" fill="#5A6CC0"/>
<path d="M11.939 15.1186V11.3687L11.1426 11.8477V11.3628L11.939 10.8867H12.3769V15.1186H11.939Z" fill="#5A6CC0"/>
<path d="M34.1522 23.932L34.1551 23.5382L36.0683 21.8102C36.2328 21.6613 36.3416 21.5202 36.3945 21.387C36.4493 21.2518 36.4767 21.1108 36.4767 20.9638C36.4767 20.7894 36.4356 20.6317 36.3533 20.4907C36.271 20.3496 36.1603 20.2379 36.0212 20.1556C35.8821 20.0714 35.7264 20.0293 35.554 20.0293C35.3737 20.0293 35.2131 20.0724 35.072 20.1586C34.9309 20.2448 34.8193 20.3584 34.737 20.4995C34.6567 20.6405 34.6175 20.7943 34.6194 20.9609H34.1786C34.1786 20.7042 34.2394 20.474 34.3608 20.2703C34.4823 20.0665 34.6469 19.9068 34.8545 19.7912C35.0622 19.6737 35.2973 19.6149 35.5598 19.6149C35.8165 19.6149 36.0467 19.6756 36.2505 19.7971C36.4562 19.9166 36.6178 20.0792 36.7354 20.285C36.8549 20.4887 36.9146 20.716 36.9146 20.9667C36.9146 21.1431 36.8931 21.2988 36.85 21.434C36.8088 21.5672 36.7432 21.6916 36.6531 21.8072C36.5649 21.9209 36.4523 22.0384 36.3151 22.1599L34.6165 23.6939L34.5489 23.5176H36.9146V23.932H34.1522Z" fill="#5A6CC0"/>
<path d="M15.8592 37.7344C15.6496 37.7344 15.4566 37.6972 15.2803 37.6227C15.1039 37.5483 14.9521 37.4425 14.8247 37.3054C14.6974 37.1663 14.6043 37.0007 14.5456 36.8087L14.957 36.6853C15.0275 36.8949 15.1431 37.0536 15.3038 37.1614C15.4664 37.2691 15.6496 37.321 15.8533 37.3171C16.0414 37.3132 16.203 37.2711 16.3382 37.1908C16.4754 37.1104 16.5802 36.9988 16.6527 36.8557C16.7252 36.7127 16.7614 36.5472 16.7614 36.3591C16.7614 36.0711 16.6772 35.8399 16.5087 35.6655C16.3421 35.4892 16.1217 35.401 15.8474 35.401C15.771 35.401 15.6907 35.4118 15.6065 35.4334C15.5222 35.453 15.4438 35.4814 15.3714 35.5186L15.1539 35.1747L16.7996 33.6554L16.8701 33.8317H14.7131V33.4174H17.1581V33.8376L15.724 35.2071L15.7181 35.0366C16.012 34.9994 16.2706 35.0327 16.494 35.1365C16.7173 35.2404 16.8917 35.3991 17.0171 35.6126C17.1444 35.8242 17.2081 36.073 17.2081 36.3591C17.2081 36.6294 17.1493 36.8685 17.0318 37.0761C16.9162 37.2819 16.7565 37.4435 16.5527 37.561C16.349 37.6766 16.1178 37.7344 15.8592 37.7344Z" fill="#5A6CC0"/>
</g>
</g>
</g>
</svg>
