<svg width="48" height="48" viewBox="0 0 48 48" fill="none" xmlns="http://www.w3.org/2000/svg">
<g id="icon 37">
<g id="Vector">
<path fill-rule="evenodd" clip-rule="evenodd" d="M15.9548 17.2465L13.1817 18.8244L10.4302 20.4485L10.4048 23.6548L10.4302 26.8611L13.1817 28.4852L15.9548 30.063L18.7278 28.4852L21.4793 26.8611L21.5047 23.6548L21.4793 20.4485L18.7279 18.8244L15.9548 17.2465ZM19.3905 17.681L16.3904 15.9741C16.1203 15.8204 15.7892 15.8204 15.5191 15.9741L12.519 17.681L9.5439 19.4372C9.27761 19.5943 9.11323 19.8796 9.11078 20.1888L9.08333 23.6548L9.11078 27.1207C9.11323 27.4299 9.27761 27.7152 9.5439 27.8724L12.519 29.6285L15.5191 31.3355C15.7892 31.4891 16.1203 31.4891 16.3904 31.3355L19.3905 29.6285L22.3656 27.8724C22.6319 27.7152 22.7963 27.4299 22.7987 27.1207L22.8262 23.6548L22.7987 20.1888C22.7963 19.8796 22.6319 19.5943 22.3656 19.4372L19.3905 17.681Z" fill="#5A6CC0"/>
<path fill-rule="evenodd" clip-rule="evenodd" d="M15.294 23.6666L9.05205 20.5456L9.64301 19.3637L15.9547 22.5196L22.2663 19.3637L22.8573 20.5456L16.6154 23.6666V31.319H15.294V23.6666Z" fill="#5A6CC0"/>
<path fill-rule="evenodd" clip-rule="evenodd" d="M41.2381 11.3214H7.7619C7.51864 11.3214 7.32143 11.5186 7.32143 11.7619V35.5476C7.32143 35.7909 7.51864 35.9881 7.7619 35.9881H41.2381C41.4814 35.9881 41.6786 35.7909 41.6786 35.5476V11.7619C41.6786 11.5186 41.4814 11.3214 41.2381 11.3214ZM7.7619 10C6.78883 10 6 10.7888 6 11.7619V35.5476C6 36.5207 6.78883 37.3095 7.7619 37.3095H41.2381C42.2112 37.3095 43 36.5207 43 35.5476V11.7619C43 10.7888 42.2112 10 41.2381 10H7.7619Z" fill="#5A6CC0"/>
<path fill-rule="evenodd" clip-rule="evenodd" d="M25.1607 10.881C25.5256 10.881 25.8214 11.1768 25.8214 11.5417V22.1131C25.8214 22.478 25.5256 22.7738 25.1607 22.7738C24.7958 22.7738 24.5 22.478 24.5 22.1131V11.5417C24.5 11.1768 24.7958 10.881 25.1607 10.881Z" fill="#5A6CC0"/>
<path fill-rule="evenodd" clip-rule="evenodd" d="M25.1607 24.9762C25.5256 24.9762 25.8214 25.272 25.8214 25.6369V36.2083C25.8214 36.5732 25.5256 36.869 25.1607 36.869C24.7958 36.869 24.5 36.5732 24.5 36.2083V25.6369C24.5 25.272 24.7958 24.9762 25.1607 24.9762Z" fill="#5A6CC0"/>
<path fill-rule="evenodd" clip-rule="evenodd" d="M36.3929 25.6369C36.3929 26.0018 36.097 26.2976 35.7321 26.2976H27.8036C27.4387 26.2976 27.1429 26.0018 27.1429 25.6369C27.1429 25.272 27.4387 24.9762 27.8036 24.9762H35.7321C36.097 24.9762 36.3929 25.272 36.3929 25.6369Z" fill="#5A6CC0"/>
<path fill-rule="evenodd" clip-rule="evenodd" d="M40.3571 30.9226C40.3571 31.2875 40.0613 31.5833 39.6964 31.5833H31.7679C31.403 31.5833 31.1071 31.2875 31.1071 30.9226C31.1071 30.5577 31.403 30.2619 31.7679 30.2619H39.6964C40.0613 30.2619 40.3571 30.5577 40.3571 30.9226Z" fill="#5A6CC0"/>
<path fill-rule="evenodd" clip-rule="evenodd" d="M40.3571 28.2798C40.3571 28.6447 40.0613 28.9405 39.6964 28.9405H27.8036C27.4387 28.9405 27.1429 28.6447 27.1429 28.2798C27.1429 27.9149 27.4387 27.619 27.8036 27.619H39.6964C40.0613 27.619 40.3571 27.9149 40.3571 28.2798Z" fill="#5A6CC0"/>
<path fill-rule="evenodd" clip-rule="evenodd" d="M40.3571 25.6369C40.3571 26.0018 40.0613 26.2976 39.6964 26.2976H37.9345C37.5696 26.2976 37.2738 26.0018 37.2738 25.6369C37.2738 25.272 37.5696 24.9762 37.9345 24.9762H39.6964C40.0613 24.9762 40.3571 25.272 40.3571 25.6369Z" fill="#5A6CC0"/>
<path fill-rule="evenodd" clip-rule="evenodd" d="M30.2262 30.9226C30.2262 31.2875 29.9304 31.5833 29.5655 31.5833H27.8036C27.4387 31.5833 27.1429 31.2875 27.1429 30.9226C27.1429 30.5577 27.4387 30.2619 27.8036 30.2619H29.5655C29.9304 30.2619 30.2262 30.5577 30.2262 30.9226Z" fill="#5A6CC0"/>
<path fill-rule="evenodd" clip-rule="evenodd" d="M28.4643 17.9286V21.4524H39.0357V17.9286H28.4643ZM28.0238 16.6071C27.5373 16.6071 27.1429 17.0016 27.1429 17.4881V21.8929C27.1429 22.3794 27.5373 22.7738 28.0238 22.7738H39.4762C39.9627 22.7738 40.3571 22.3794 40.3571 21.8929V17.4881C40.3571 17.0016 39.9627 16.6071 39.4762 16.6071H28.0238Z" fill="#5A6CC0"/>
</g>
</g>
</svg>
