<svg width="48" height="48" viewBox="0 0 48 48" fill="none" xmlns="http://www.w3.org/2000/svg">
<g id="icon 18">
<g id="Vector">
<path fill-rule="evenodd" clip-rule="evenodd" d="M21.4533 3.40799C21.781 3.22551 22.1522 3.18396 22.4665 3.18396H25.9957C26.2827 3.18396 26.6492 3.22861 26.9713 3.40796C27.3266 3.6058 27.6107 3.96641 27.628 4.46972L28.1456 9.05501C28.1634 9.12801 28.1886 9.16724 28.2024 9.1834C28.2095 9.19162 28.2143 9.19486 28.2168 9.19633C28.219 9.19764 28.2252 9.20108 28.2394 9.20392C28.2693 9.20988 28.2987 9.21768 28.3276 9.22729C29.4929 9.61512 30.5899 10.0838 31.6897 10.7141C31.7087 10.725 31.7272 10.7367 31.7451 10.7493C31.7519 10.7473 31.7608 10.7443 31.7716 10.7396C31.7937 10.7302 31.8209 10.7152 31.8513 10.6931L35.4438 7.84826L35.4447 7.8475C36.0873 7.33496 36.9943 7.33313 37.6366 7.84987C37.6601 7.86877 37.6824 7.8891 37.7034 7.91075L40.1544 10.4373C40.5054 10.7392 40.663 11.1598 40.6791 11.5458C40.695 11.9254 40.5772 12.3453 40.2822 12.6611L37.3105 16.3784C37.2645 16.4417 37.2436 16.4994 37.2371 16.5384C37.2331 16.5623 37.2349 16.575 37.236 16.5798C37.852 17.741 38.3307 18.9323 38.5728 20.2168C38.5755 20.2293 38.5787 20.2352 38.5802 20.2377C38.5807 20.2387 38.5815 20.2399 38.5826 20.2413C38.5848 20.2443 38.5883 20.2483 38.5941 20.2532C38.6107 20.2675 38.6498 20.2925 38.7212 20.3101L43.4857 20.8307C43.4937 20.8316 43.5017 20.8326 43.5096 20.8337C43.9536 20.897 44.3324 21.112 44.5675 21.4961C44.7759 21.8365 44.8164 22.2241 44.8164 22.5357V26.0647C44.8164 26.424 44.7403 26.8045 44.5245 27.1289C44.2966 27.4716 43.9477 27.6966 43.5265 27.7667C43.5203 27.7678 43.514 27.7687 43.5078 27.7696C43.4993 27.7708 43.4907 27.7718 43.4821 27.7727L38.4945 28.2933C38.4223 28.3112 38.3833 28.3361 38.3672 28.3499C38.359 28.3569 38.3558 28.3617 38.3544 28.364C38.3532 28.366 38.3499 28.3719 38.3471 28.3858C38.3398 28.422 38.3299 28.4576 38.3173 28.4922C38.0172 29.3188 37.6465 30.1388 37.2894 30.9284L37.2476 31.0209C37.2287 31.0627 37.2059 31.1027 37.1796 31.1402C37.1815 31.1474 37.1847 31.1571 37.1899 31.1693C37.1992 31.191 37.2139 31.2177 37.2354 31.2473L40.2274 34.9901C40.8049 35.7107 40.5991 36.6258 40.1523 37.1834C40.1355 37.2044 40.1176 37.2244 40.0986 37.2434L37.6219 39.7215L37.6212 39.7221C36.9699 40.3765 36.0208 40.3733 35.3687 39.8524L35.3625 39.8475L31.6994 36.8566C31.6753 36.8403 31.6501 36.8318 31.6129 36.8298C31.5704 36.8276 31.5038 36.8344 31.4122 36.8663C30.3178 37.4847 29.1567 37.9478 27.9389 38.3277C27.9143 38.3354 27.8892 38.3418 27.8639 38.3468C27.8497 38.3497 27.8435 38.3531 27.8413 38.3544C27.8388 38.3559 27.834 38.3591 27.8269 38.3673C27.8132 38.3834 27.7883 38.4222 27.7705 38.4941L27.2519 43.3355C27.2504 43.3498 27.2485 43.364 27.2461 43.3782C27.1231 44.1149 26.4942 44.8166 25.6203 44.8166H22.0159C21.1434 44.8166 20.5156 44.1134 20.3929 43.3782C20.3905 43.3638 20.3885 43.3493 20.387 43.3347L19.8657 38.4188C19.8478 38.3471 19.823 38.3084 19.8093 38.2924C19.8022 38.2842 19.7974 38.2809 19.7949 38.2794C19.7927 38.2781 19.7865 38.2747 19.7723 38.2719C19.7529 38.268 19.7336 38.2633 19.7146 38.2579C18.6026 37.9407 17.5021 37.4657 16.4895 36.9213C16.4563 36.9034 16.4246 36.8831 16.3945 36.8604C16.3865 36.8543 16.3701 36.8477 16.3508 36.8486C16.3425 36.8491 16.3356 36.8508 16.3299 36.8533C16.3247 36.8556 16.3173 36.8597 16.3079 36.8691C16.2902 36.8867 16.2716 36.9035 16.2522 36.9193L12.6479 39.8485L12.643 39.8524C12.2818 40.141 11.8426 40.2287 11.4607 40.1982C11.0837 40.1679 10.6853 40.0167 10.3915 39.7233L10.3833 39.715L7.93308 37.1893C7.21431 36.5772 7.29907 35.5967 7.78339 34.9912L7.78426 34.9901L10.7035 31.3227C10.7498 31.2591 10.7708 31.2012 10.7773 31.1621C10.7817 31.1359 10.7792 31.1232 10.7781 31.1196C10.3311 30.2269 9.94328 29.3802 9.62968 28.3786C9.61766 28.3588 9.6039 28.3386 9.58868 28.3188C9.56235 28.2845 9.53592 28.257 9.51303 28.2374C9.50646 28.2318 9.50077 28.2273 9.49604 28.2238C9.49123 28.2234 9.48643 28.2229 9.48164 28.2224L4.52841 27.6976C4.51255 27.6959 4.49675 27.6937 4.48103 27.691C3.63318 27.5449 3.09839 26.7405 3.19527 25.9385V22.5128C3.08824 21.65 3.70144 20.9667 4.48522 20.8363C4.49748 20.8343 4.50979 20.8326 4.52214 20.8311L9.06443 20.3104C9.15395 20.2893 9.22491 20.255 9.26709 20.2232C9.28019 20.2133 9.28777 20.206 9.29185 20.2015C9.29267 20.1978 9.29352 20.194 9.2944 20.1903C9.61013 18.8506 10.0833 17.6676 10.7064 16.4963C10.7117 16.4846 10.7188 16.4649 10.7241 16.4384C10.7301 16.4084 10.7321 16.3785 10.7308 16.3531C10.7304 16.3456 10.7297 16.3393 10.729 16.3342C10.723 16.3272 10.717 16.32 10.7113 16.3127L7.78426 12.6356L7.78341 12.6346C7.22451 11.9359 7.37779 10.9921 7.91294 10.4573L10.4666 7.9024C11.0809 7.28904 12.0325 7.36164 12.6417 7.84717L12.643 7.84826L16.245 10.7006C16.2526 10.7066 16.2601 10.7128 16.2674 10.7191C16.2727 10.7199 16.2792 10.7205 16.287 10.7209C16.3125 10.7223 16.3423 10.7203 16.3718 10.7144C16.3914 10.7104 16.4069 10.7056 16.418 10.7014C17.6069 9.99176 18.8596 9.52659 20.0728 9.14807C20.0974 9.14038 20.1225 9.134 20.1478 9.12895C20.2252 9.11349 20.2921 9.05168 20.3162 8.97772L20.7619 4.4465C20.7635 4.43009 20.7657 4.41373 20.7684 4.39745C20.8415 3.95948 21.0834 3.61404 21.4533 3.40799ZM22.2158 4.67621C22.2234 4.67437 22.2319 4.67251 22.2415 4.67068C22.2944 4.66053 22.3681 4.65335 22.4665 4.65335H25.9957C26.0642 4.65335 26.1238 4.65878 26.1716 4.66754L26.6897 9.25709C26.692 9.27785 26.6952 9.2985 26.6993 9.31898C26.8114 9.87846 27.1847 10.4674 27.9003 10.6338C28.9619 10.9892 29.9459 11.4115 30.9265 11.9703C31.5776 12.425 32.3029 12.1907 32.7384 11.8647C32.7437 11.8607 32.7489 11.8566 32.7541 11.8525L36.3584 8.99828L36.3608 8.99637C36.4603 8.91687 36.5897 8.91222 36.6899 8.97632L39.1268 11.4882C39.1484 11.5105 39.1713 11.5314 39.1956 11.5507L39.1964 11.5516C39.197 11.5525 39.1987 11.5548 39.2007 11.5592C39.2051 11.5686 39.2101 11.5851 39.211 11.6071C39.212 11.6294 39.2083 11.6482 39.2042 11.66C39.2036 11.6615 39.2031 11.6628 39.2027 11.6638C39.1861 11.6809 39.1703 11.6988 39.1554 11.7175L36.1544 15.4714C36.1498 15.4771 36.1453 15.483 36.1408 15.4889C35.8023 15.9395 35.6112 16.6119 35.9201 17.2341C35.9231 17.2402 35.9262 17.2463 35.9295 17.2524C36.5041 18.3329 36.9222 19.3887 37.1299 20.4944L37.1315 20.5031C37.2811 21.2496 37.883 21.6417 38.4589 21.7567C38.4801 21.761 38.5015 21.7643 38.5229 21.7666L43.3113 22.2898C43.3159 22.2905 43.32 22.2913 43.3238 22.292C43.3258 22.2993 43.3279 22.308 43.33 22.3183C43.3398 22.3667 43.347 22.4371 43.347 22.5357V26.0647C43.347 26.2246 43.3129 26.296 43.3021 26.3135C43.301 26.3138 43.2999 26.3142 43.2985 26.3145L38.3013 26.8361C38.2786 26.8384 38.256 26.8419 38.2337 26.8463C37.6776 26.9573 37.0905 27.3261 36.9201 28.0348C36.6423 28.7928 36.2986 29.553 35.9415 30.343L35.9363 30.3546C35.5135 30.9976 35.7426 31.7066 36.0657 32.1368C36.0701 32.1427 36.0746 32.1485 36.0793 32.1543L39.0802 35.9083L39.0807 35.9089C39.1003 35.9333 39.1146 35.9663 39.1096 36.0256C39.1047 36.0854 39.0789 36.163 39.0249 36.2391L36.5813 38.684L36.58 38.6853C36.5203 38.7454 36.4693 38.7584 36.4345 38.7599C36.3958 38.7615 36.3434 38.7496 36.2879 38.7061L36.2857 38.7043L32.6124 35.7051C32.6044 35.6986 32.5963 35.6922 32.5881 35.6861C32.017 35.2585 31.3522 35.307 30.8267 35.5169C30.7952 35.5295 30.7646 35.5443 30.7351 35.5611C29.7509 36.1226 28.6868 36.5533 27.5327 36.9152C26.8119 37.0791 26.4363 37.6702 26.3238 38.2318C26.3195 38.2536 26.3161 38.2757 26.3137 38.2978L25.7939 43.1509C25.7808 43.2101 25.7488 43.2651 25.7086 43.3029C25.6672 43.3418 25.6352 43.3472 25.6203 43.3472H22.0159C22.0034 43.3472 21.9723 43.3427 21.9306 43.3034C21.8904 43.2655 21.8583 43.2104 21.8451 43.1511L21.3226 38.2236C21.3202 38.2012 21.3168 38.1789 21.3124 38.1568C21.1994 37.5927 20.8209 36.9987 20.0936 36.838C19.1253 36.5595 18.1465 36.1407 17.2262 35.649C16.667 35.2646 15.8588 35.271 15.3007 35.7991L11.726 38.7043L11.725 38.7051C11.7096 38.7168 11.6622 38.7402 11.5781 38.7335C11.5382 38.7303 11.5014 38.7206 11.4722 38.7082C11.4581 38.7022 11.4474 38.6962 11.4401 38.6913C11.4351 38.6881 11.4321 38.6857 11.4307 38.6844L8.9599 36.1375C8.93831 36.1152 8.91533 36.0943 8.89109 36.075C8.88518 36.0703 8.8822 36.0669 8.88092 36.0653L8.87974 36.0637L8.87877 36.0621C8.87877 36.0621 8.87615 36.0567 8.87566 36.0455C8.8746 36.021 8.88351 35.9681 8.93095 35.9089L8.93243 35.9071L11.8609 32.2281C11.8652 32.2227 11.8694 32.2173 11.8735 32.2118C12.2118 31.7614 12.4034 31.089 12.0944 30.4666L12.0933 30.4643C11.6503 29.5797 11.2951 28.7966 11.0121 27.8758C11.0002 27.8368 10.985 27.799 10.9668 27.7626C10.8519 27.5331 10.6808 27.3028 10.4685 27.1211C10.2728 26.9536 9.97583 26.7726 9.60673 26.7581L4.72095 26.2404C4.70863 26.2359 4.69264 26.2257 4.67717 26.2031C4.65635 26.1727 4.65002 26.1383 4.65463 26.1107C4.6613 26.0707 4.66466 26.0302 4.66466 25.9897V22.4607C4.66466 22.4202 4.6613 22.3797 4.65463 22.3397C4.65318 22.3311 4.65308 22.3253 4.65319 22.3222C4.65329 22.3195 4.65367 22.3176 4.65367 22.3176L4.65403 22.3171C4.65403 22.3171 4.66894 22.2981 4.71423 22.2881L9.26723 21.7662C9.28742 21.7639 9.3075 21.7607 9.32742 21.7567C9.81355 21.6597 10.5589 21.3165 10.727 20.5174C11.0109 19.3167 11.436 18.2517 12.0096 17.1753C12.0125 17.1699 12.0153 17.1644 12.0181 17.1588C12.1539 16.8878 12.2138 16.5725 12.1981 16.2757C12.1835 15.9985 12.0965 15.6495 11.8406 15.3721L8.93243 11.7187L8.93095 11.7168C8.90901 11.6894 8.89793 11.656 8.90175 11.612C8.90611 11.5619 8.92879 11.5194 8.95167 11.4966L11.5043 8.94274C11.5074 8.94054 11.5221 8.93209 11.557 8.93209C11.6041 8.93209 11.6674 8.94952 11.726 8.99637L11.7284 8.99828L15.3069 11.8321C15.5845 12.0871 15.9332 12.1737 16.2098 12.1883C16.5061 12.2039 16.8217 12.1443 17.0928 12.0077C17.1092 11.9994 17.1252 11.9906 17.1409 11.9811C18.1851 11.3531 19.3122 10.926 20.479 10.5606C21.1242 10.4138 21.6323 9.89558 21.7628 9.24401C21.7676 9.22008 21.7712 9.19592 21.7736 9.17163L22.2158 4.67621Z" fill="#5A6CC0"/>
<path fill-rule="evenodd" clip-rule="evenodd" d="M23.9998 34.2857C29.6805 34.2857 34.2855 29.6806 34.2855 24C34.2855 18.3194 29.6805 13.7143 23.9998 13.7143C18.3192 13.7143 13.7141 18.3194 13.7141 24C13.7141 29.6806 18.3192 34.2857 23.9998 34.2857ZM23.9998 35.7551C30.492 35.7551 35.7549 30.4922 35.7549 24C35.7549 17.5078 30.492 12.2449 23.9998 12.2449C17.5077 12.2449 12.2447 17.5078 12.2447 24C12.2447 30.4922 17.5077 35.7551 23.9998 35.7551Z" fill="#5A6CC0"/>
<path fill-rule="evenodd" clip-rule="evenodd" d="M23.9998 22.0408C24.8114 22.0408 25.4692 21.3829 25.4692 20.5714C25.4692 19.7599 24.8114 19.102 23.9998 19.102C23.1883 19.102 22.5304 19.7599 22.5304 20.5714C22.5304 21.3829 23.1883 22.0408 23.9998 22.0408ZM23.9998 23.5102C25.6229 23.5102 26.9386 22.1945 26.9386 20.5714C26.9386 18.9484 25.6229 17.6327 23.9998 17.6327C22.3768 17.6327 21.0611 18.9484 21.0611 20.5714C21.0611 22.1945 22.3768 23.5102 23.9998 23.5102Z" fill="#5A6CC0"/>
<path d="M24.9794 9.55102C24.9794 9.95678 24.6505 10.2857 24.2447 10.2857C23.839 10.2857 23.51 9.95678 23.51 9.55102C23.51 9.14526 23.839 8.81633 24.2447 8.81633C24.6505 8.81633 24.9794 9.14526 24.9794 9.55102Z" fill="#5A6CC0"/>
<path d="M35.2651 13.4694C35.2651 13.8751 34.9362 14.2041 34.5304 14.2041C34.1247 14.2041 33.7957 13.8751 33.7957 13.4694C33.7957 13.0636 34.1247 12.7347 34.5304 12.7347C34.9362 12.7347 35.2651 13.0636 35.2651 13.4694Z" fill="#5A6CC0"/>
<path d="M39.1835 24.2449C39.1835 24.6507 38.8546 24.9796 38.4488 24.9796C38.043 24.9796 37.7141 24.6507 37.7141 24.2449C37.7141 23.8391 38.043 23.5102 38.4488 23.5102C38.8546 23.5102 39.1835 23.8391 39.1835 24.2449Z" fill="#5A6CC0"/>
<path d="M35.2651 34.0408C35.2651 34.4466 34.9362 34.7755 34.5304 34.7755C34.1247 34.7755 33.7957 34.4466 33.7957 34.0408C33.7957 33.6351 34.1247 33.3061 34.5304 33.3061C34.9362 33.3061 35.2651 33.6351 35.2651 34.0408Z" fill="#5A6CC0"/>
<path d="M24.4896 38.449C24.4896 38.8547 24.1607 39.1837 23.7549 39.1837C23.3492 39.1837 23.0202 38.8547 23.0202 38.449C23.0202 38.0432 23.3492 37.7143 23.7549 37.7143C24.1607 37.7143 24.4896 38.0432 24.4896 38.449Z" fill="#5A6CC0"/>
<path d="M14.2039 34.0408C14.2039 34.4466 13.875 34.7755 13.4692 34.7755C13.0635 34.7755 12.7345 34.4466 12.7345 34.0408C12.7345 33.6351 13.0635 33.3061 13.4692 33.3061C13.875 33.3061 14.2039 33.6351 14.2039 34.0408Z" fill="#5A6CC0"/>
<path d="M10.2855 24.2449C10.2855 24.6507 9.95661 24.9796 9.55085 24.9796C9.14509 24.9796 8.81616 24.6507 8.81616 24.2449C8.81616 23.8391 9.14509 23.5102 9.55085 23.5102C9.95661 23.5102 10.2855 23.8391 10.2855 24.2449Z" fill="#5A6CC0"/>
<path d="M14.2039 13.4694C14.2039 13.8751 13.875 14.2041 13.4692 14.2041C13.0635 14.2041 12.7345 13.8751 12.7345 13.4694C12.7345 13.0636 13.0635 12.7347 13.4692 12.7347C13.875 12.7347 14.2039 13.0636 14.2039 13.4694Z" fill="#5A6CC0"/>
<path fill-rule="evenodd" clip-rule="evenodd" d="M25.4692 25.9592H22.5304C21.1779 25.9592 20.0815 27.0556 20.0815 28.4082V28.898H27.9182V28.4082C27.9182 27.0556 26.8218 25.9592 25.4692 25.9592ZM22.5304 24.4898C20.3664 24.4898 18.6121 26.2441 18.6121 28.4082V30.3673H29.3876V28.4082C29.3876 26.2441 27.6333 24.4898 25.4692 24.4898H22.5304Z" fill="#5A6CC0"/>
</g>
</g>
</svg>
