<svg width="48" height="48" viewBox="0 0 48 48" fill="none" xmlns="http://www.w3.org/2000/svg">
<g id="icon 17">
<path id="Polygon 2" d="M31.4579 14.7596L28.4885 4.69645L41.6879 17.0901L31.4579 14.7596Z" fill="white"/>
<g id="Group">
<path id="Vector" d="M27.82 4L30.9666 15.2093L44 18.0653L27.82 4ZM27.82 4H4V44H44V18.0653" stroke="white" stroke-width="1.5" stroke-miterlimit="10" stroke-linecap="round" stroke-linejoin="round"/>
</g>
<g id="Vector_2">
<path fill-rule="evenodd" clip-rule="evenodd" d="M21.4376 26.7486C21.5563 26.6299 21.7488 26.6299 21.8675 26.7486L23.8022 28.6833C23.9209 28.8021 23.9209 28.9946 23.8022 29.1133C23.6835 29.232 23.491 29.232 23.3723 29.1133L21.9565 27.6975V35.0706H21.3485V27.6975L19.9328 29.1133C19.8141 29.232 19.6216 29.232 19.5028 29.1133C19.3841 28.9946 19.3841 28.8021 19.5028 28.6833L21.4376 26.7486Z" fill="white"/>
<path d="M25.7417 18.4722L22.5858 23.9122C22.5124 24.02 22.4702 24.146 22.464 24.2762C22.4578 24.4065 22.4878 24.5359 22.5506 24.6502C22.6135 24.7644 22.7067 24.8591 22.8201 24.9236C22.9334 24.9881 23.0624 25.0199 23.1927 25.0157H29.5099C29.6403 25.0199 29.7692 24.9881 29.8826 24.9236C29.9959 24.8591 30.0892 24.7644 30.152 24.6502C30.2148 24.5359 30.2448 24.4065 30.2386 24.2762C30.2324 24.146 30.1903 24.02 30.1168 23.9122L26.961 18.4722C26.8987 18.3658 26.8097 18.2775 26.7028 18.2161C26.5958 18.1547 26.4746 18.1224 26.3513 18.1224C26.228 18.1224 26.1068 18.1547 25.9999 18.2161C25.8929 18.2775 25.8039 18.3658 25.7417 18.4722Z" fill="white"/>
<path fill-rule="evenodd" clip-rule="evenodd" d="M18.8389 22.3226C19.1692 21.783 19.6447 21.3241 20.2212 20.9995C20.7977 20.6749 21.4429 20.5028 22.0873 20.4937C22.385 20.4894 22.6826 20.52 22.9731 20.5864L23.1548 19.9997C22.9525 19.9535 22.7472 19.922 22.5407 19.9051C22.3838 19.8922 22.2261 19.8877 22.0685 19.8915C21.3251 19.9093 20.5822 20.1113 19.9171 20.4858C19.2519 20.8603 18.7011 21.3867 18.3135 22.0056C18.1232 22.3095 17.9723 22.6357 17.8665 22.9772C17.7945 23.2096 17.745 23.4399 17.7174 23.6706C17.7159 23.6832 17.7144 23.6958 17.7131 23.7083C17.7038 23.7932 17.6975 23.8781 17.6941 23.9632C17.6904 24.0573 17.6902 24.1517 17.6936 24.2465C17.6939 24.2556 17.6943 24.2648 17.6947 24.2739L18.0317 24.2647L18.3325 23.9396C18.3458 23.6649 18.3942 23.3887 18.4784 23.117C18.5647 22.8385 18.6863 22.5719 18.8389 22.3226Z" fill="white"/>
<path fill-rule="evenodd" clip-rule="evenodd" d="M29.2519 26.8374C29.4911 27.3567 29.6182 27.9233 29.6182 28.5026C29.6182 29.5892 29.1711 30.6313 28.3752 31.3997C27.5793 32.168 26.4998 32.5996 25.3743 32.5996H23.2739V33.323H25.3743C26.6986 33.323 27.9686 32.8151 28.905 31.9111C29.8414 31.0072 30.3675 29.7811 30.3675 28.5026C30.3675 27.7153 30.168 26.914 29.7959 26.2294H28.905C29.0385 26.4227 29.1545 26.6261 29.2519 26.8374Z" fill="white"/>
<path fill-rule="evenodd" clip-rule="evenodd" d="M16.7653 33.3113C16.015 33.2533 15.2895 32.9816 14.6612 32.5203C13.9484 31.997 13.3929 31.2531 13.0648 30.3828C12.7367 29.5125 12.6509 28.5549 12.8182 27.631C12.9854 26.7071 13.3982 25.8584 14.0044 25.1923C14.6106 24.5262 15.3829 24.0726 16.2237 23.8888C16.6804 23.789 17.1446 23.7712 17.6007 23.8336C17.8317 23.8651 18.0606 23.9173 18.2854 23.9897L17.7743 24.5403C17.3035 24.4407 16.8173 24.4413 16.3425 24.545C15.6198 24.703 14.956 25.0929 14.4349 25.6654C13.9139 26.2379 13.5591 26.9674 13.4153 27.7615C13.2716 28.5556 13.3454 29.3787 13.6273 30.1268C13.9093 30.8748 14.3868 31.5142 14.9995 31.964C15.6122 32.4139 16.3325 32.654 17.0693 32.654H20.2384V33.323H17.0693C16.9677 33.323 16.8663 33.3191 16.7653 33.3113Z" fill="white"/>
</g>
</g>
</svg>
