<svg width="48" height="48" viewBox="0 0 48 48" fill="none" xmlns="http://www.w3.org/2000/svg">
<g id="icon 34">
<g id="Vector">
<path fill-rule="evenodd" clip-rule="evenodd" d="M6.85696 6.12246C6.1807 6.12246 5.63247 6.67069 5.63247 7.34695V40.6531C5.63247 41.3293 6.1807 41.8776 6.85696 41.8776H16.1631V43.347H6.85696C5.36918 43.347 4.16309 42.1409 4.16309 40.6531V7.34695C4.16309 5.85917 5.36918 4.65308 6.85696 4.65308H16.1631V6.12246H6.85696Z" fill="#5A6CC0"/>
<path fill-rule="evenodd" clip-rule="evenodd" d="M41.1427 6.12246H31.8366V4.65308H41.1427C42.6305 4.65308 43.8366 5.85917 43.8366 7.34695V40.6531C43.8366 42.1409 42.6305 43.347 41.1427 43.347H31.8366V41.8776H41.1427C41.8189 41.8776 42.3672 41.3293 42.3672 40.6531V7.34695C42.3672 6.67069 41.8189 6.12246 41.1427 6.12246Z" fill="#5A6CC0"/>
<path fill-rule="evenodd" clip-rule="evenodd" d="M11.2651 11.7551V21.0612H20.5712V11.7551H11.2651ZM10.2855 10.2857C10.015 10.2857 9.79574 10.505 9.79574 10.7755V22.0408C9.79574 22.3113 10.015 22.5306 10.2855 22.5306H21.5508C21.8213 22.5306 22.0406 22.3113 22.0406 22.0408V10.7755C22.0406 10.505 21.8213 10.2857 21.5508 10.2857H10.2855Z" fill="#5A6CC0"/>
<path fill-rule="evenodd" clip-rule="evenodd" d="M27.4284 26.9388V36.2449H36.7345V26.9388H27.4284ZM26.4488 25.4694C26.1783 25.4694 25.959 25.6887 25.959 25.9592V37.2245C25.959 37.495 26.1783 37.7143 26.4488 37.7143H37.7141C37.9846 37.7143 38.2039 37.495 38.2039 37.2245V25.9592C38.2039 25.6887 37.9846 25.4694 37.7141 25.4694H26.4488Z" fill="#5A6CC0"/>
<path fill-rule="evenodd" clip-rule="evenodd" d="M37.9979 15.6645L36.5335 15.5045C36.419 15.4817 36.3275 15.4123 36.3046 15.298C36.2359 14.9323 36.0986 14.5886 35.9162 14.2457C35.8704 14.1535 35.8933 14.0392 35.962 13.9478L36.8769 12.8033C36.9685 12.7119 36.9685 12.529 36.854 12.4376L36.0985 11.6588C35.9849 11.5674 35.8246 11.5674 35.7102 11.6588L34.6113 12.529C34.5197 12.5976 34.406 12.6204 34.3145 12.5519C33.994 12.3682 33.6735 12.231 33.3301 12.1167C33.2156 12.0939 33.1469 12.0025 33.124 11.8882L32.9638 10.4686C32.9638 10.3314 32.8272 10.2857 32.6899 10.2857H31.6139C31.4536 10.2857 31.34 10.3314 31.3171 10.4686L31.1797 11.8653C31.1568 11.9796 31.0653 12.071 30.9508 12.0939C30.5845 12.2082 30.2182 12.3453 29.8748 12.5519C29.784 12.5976 29.6467 12.5976 29.578 12.529L28.4791 11.6588C28.3647 11.5674 28.2052 11.5674 28.1137 11.6588L27.3353 12.4376C27.2437 12.529 27.2208 12.689 27.3124 12.8033L28.2052 13.9249C28.2739 13.9935 28.2739 14.1306 28.2281 14.2221C28.045 14.5657 27.9076 14.9094 27.816 15.298C27.7931 15.4123 27.6787 15.4817 27.5642 15.5045L26.1686 15.6645C26.0312 15.6874 25.9396 15.8017 25.9625 15.9388V17.0147C25.9396 17.1518 26.0312 17.289 26.1686 17.3127L27.6787 17.4727C27.7703 17.4727 27.8618 17.5641 27.9076 17.6555C27.9992 17.9535 28.1137 18.2049 28.251 18.4792C28.2968 18.5714 28.2739 18.6857 28.2052 18.7772L27.3124 19.8988C27.2208 20.0131 27.2208 20.1731 27.3353 20.2645L28.0907 21.0433C28.1823 21.1347 28.3647 21.1576 28.4791 21.0661L29.578 20.1731C29.6696 20.0816 29.8069 20.0816 29.8977 20.1502C30.1953 20.3102 30.5158 20.4482 30.8363 20.5396C30.9508 20.5625 31.0195 20.6539 31.0424 20.7682L31.2026 22.2792C31.2255 22.4163 31.34 22.5306 31.4765 22.5306H32.5754C32.7128 22.5306 32.8273 22.4163 32.8501 22.2792L33.0095 20.791C33.0324 20.6768 33.1011 20.5853 33.2156 20.5625C33.5819 20.4482 33.9253 20.3102 34.2458 20.1274C34.3603 20.0816 34.4739 20.0816 34.5655 20.1502L35.6873 21.0661C35.8017 21.1576 35.962 21.1576 36.0756 21.0433L36.8311 20.2874C36.9227 20.1731 36.9456 20.0131 36.854 19.8988L35.9391 18.7543C35.8704 18.6629 35.8475 18.5486 35.9162 18.4563C36.0299 18.2049 36.1443 17.9535 36.2359 17.7012C36.2588 17.587 36.3503 17.5184 36.4648 17.4955L37.9979 17.3355C38.1352 17.3127 38.2039 17.1976 38.2039 17.0376V15.9616C38.2039 15.8016 38.1581 15.6874 37.9979 15.6645ZM32.0718 18.5943C30.8363 18.5943 29.8298 17.5869 29.8298 16.351C29.8298 15.1151 30.8363 14.1078 32.0718 14.1078C33.3072 14.1078 34.3145 15.1151 34.3145 16.351C34.3145 17.5869 33.3072 18.5943 32.0718 18.5943Z" fill="#5A6CC0"/>
<path fill-rule="evenodd" clip-rule="evenodd" d="M19.6485 29.8786L15.1438 34.8956L12.1878 31.6036L13.2812 30.6219L15.1438 32.6963L18.5552 28.8969L19.6485 29.8786Z" fill="#5A6CC0"/>
<path fill-rule="evenodd" clip-rule="evenodd" d="M15.9182 36.2449C18.488 36.2449 20.5712 34.1617 20.5712 31.5919C20.5712 29.022 18.488 26.9388 15.9182 26.9388C13.3484 26.9388 11.2651 29.022 11.2651 31.5919C11.2651 34.1617 13.3484 36.2449 15.9182 36.2449ZM15.9182 37.7143C19.2995 37.7143 22.0406 34.9732 22.0406 31.5919C22.0406 28.2105 19.2995 25.4694 15.9182 25.4694C12.5369 25.4694 9.79574 28.2105 9.79574 31.5919C9.79574 34.9732 12.5369 37.7143 15.9182 37.7143Z" fill="#5A6CC0"/>
</g>
</g>
</svg>
