<svg width="48" height="48" viewBox="0 0 48 48" fill="none" xmlns="http://www.w3.org/2000/svg">
<g id="icon 5">
<g id="Vector">
<path fill-rule="evenodd" clip-rule="evenodd" d="M32.0075 7.68822L11.1792 29.1282L11.1629 29.1439C10.9933 29.3081 10.8637 29.617 10.8637 29.9032V39.0088C10.8637 39.6185 11.3521 40.0933 11.9284 40.0933H20.7322C21.0765 40.0933 21.2918 39.9628 21.3618 39.8793L21.3961 39.8385L42.2418 18.3781L42.2588 18.3617C42.3953 18.23 42.5246 17.9415 42.5246 17.6049V8.49806C42.5246 7.79296 41.9748 7.34697 41.5255 7.34697H32.6882C32.5054 7.34697 32.214 7.45908 32.0259 7.6678L32.0075 7.68822ZM30.9344 6.68406L10.1411 28.088C9.65434 28.559 9.39427 29.2644 9.39427 29.9032V39.0088C9.39427 40.4208 10.5313 41.5627 11.9284 41.5627H20.7322C21.3825 41.5627 22.0649 41.3272 22.4873 40.824L43.2793 19.4189C43.7661 18.949 43.994 18.2425 43.994 17.6049V8.49806C43.994 7.054 42.857 5.87758 41.5255 5.87758H32.6882C32.0714 5.87758 31.389 6.17971 30.9344 6.68406Z" fill="#5A6CC0"/>
<path fill-rule="evenodd" clip-rule="evenodd" d="M31.3614 25.0497C29.2157 25.0497 27.4287 26.8375 27.4287 28.9862V36.8085L31.6066 40.8936C31.6145 40.9013 31.6223 40.9092 31.6298 40.9173C31.9329 41.2417 32.4265 41.4229 32.9053 41.4229H42.0384C43.0154 41.4229 43.8557 40.604 43.8557 39.6037V30.498C43.8557 30.0171 43.6747 29.5232 43.3499 29.2194C43.3432 29.2131 43.3366 29.2067 43.3302 29.2002L39.2148 25.0497H31.3614ZM25.9593 28.9862C25.9593 26.0272 28.403 23.5803 31.3614 23.5803H39.5209C39.7169 23.5803 39.9047 23.6586 40.0426 23.7977L44.3646 28.1565C45.0391 28.7943 45.3251 29.7057 45.3251 30.498V39.6037C45.3251 41.4272 43.8151 42.8923 42.0384 42.8923H32.9053C32.1149 42.8923 31.2049 42.6061 30.5684 41.9335L26.1804 37.6429C26.039 37.5047 25.9593 37.3153 25.9593 37.1176V28.9862Z" fill="#5A6CC0"/>
<path fill-rule="evenodd" clip-rule="evenodd" d="M12.4396 7.20706C11.5409 7.20706 10.7249 8.00688 10.7249 9.09285V18.1997C10.7249 18.6698 10.9167 19.1795 11.2314 19.4941C11.2367 19.4993 11.2418 19.5046 11.2469 19.51L15.0799 23.5802H22.3925C24.3334 23.5802 25.9589 21.9336 25.9589 19.7449V11.9033L22.1062 7.78047C22.0943 7.7677 22.0828 7.75452 22.0718 7.74094C21.8067 7.41331 21.3602 7.20706 20.9476 7.20706H12.4396ZM9.25556 9.09285C9.25556 7.2907 10.6372 5.73767 12.4396 5.73767H20.9476C21.7835 5.73767 22.6444 6.12715 23.1963 6.79485L27.2303 11.1118C27.3575 11.2479 27.4282 11.4272 27.4282 11.6134V19.7449C27.4282 22.6639 25.2239 25.0496 22.3925 25.0496H14.7626C14.5601 25.0496 14.3666 24.966 14.2278 24.8186L10.1842 20.5249C9.5644 19.9 9.25556 19.0034 9.25556 18.1997V9.09285Z" fill="#5A6CC0"/>
<path fill-rule="evenodd" clip-rule="evenodd" d="M23.1434 14.2041C24.1444 14.2041 24.9044 14.9559 24.9044 15.9027V32.7592C24.9044 33.7072 24.1444 34.4257 23.1434 34.4257H5.25891C4.25791 34.4257 3.42871 33.7072 3.42871 32.7592V15.9027C3.42871 14.9559 4.25791 14.2041 5.25891 14.2041H23.1434Z" fill="#5A6CC0"/>
</g>
<path id="E" d="M11.1279 29.3878V19.5135H17.2994V20.4803H12.1359V23.8952H16.4765V24.8621H12.1359V28.4209H17.2994V29.3878H11.1279Z" fill="white"/>
</g>
</svg>
