<svg width="48" height="48" viewBox="0 0 48 48" fill="none" xmlns="http://www.w3.org/2000/svg">
<g id="icon 6">
<g id="Vector">
<path fill-rule="evenodd" clip-rule="evenodd" d="M13.7143 32.3265C15.0673 32.3265 16.1632 33.5505 16.1632 35.061V41.3471C16.1632 42.8576 15.0673 44.0816 13.7143 44.0816C12.3624 44.0816 11.2653 42.8576 11.2653 41.3471V35.061C11.2653 33.5505 12.3624 32.3265 13.7143 32.3265Z" fill="#5A6CC0"/>
<path fill-rule="evenodd" clip-rule="evenodd" d="M21.0612 44.0816C19.7094 44.0816 18.6122 42.8596 18.6122 41.3526V25.18C18.6489 23.673 19.7816 22.4913 21.1347 22.5316C22.4498 22.5316 23.5102 23.7133 23.5102 25.18V41.3526C23.5102 42.8596 22.4143 44.0816 21.0612 44.0816Z" fill="#5A6CC0"/>
<path fill-rule="evenodd" clip-rule="evenodd" d="M35.7551 44.0816C34.4032 44.0816 33.3061 42.8979 33.3061 41.4369V19.2573C33.3428 17.7978 34.4388 16.6531 35.7918 16.6531C37.1082 16.692 38.1673 17.8368 38.204 19.2573V41.4369C38.204 42.8979 37.1081 44.0816 35.7551 44.0816Z" fill="#5A6CC0"/>
<path fill-rule="evenodd" clip-rule="evenodd" d="M28.4081 44.0816C27.0563 44.0816 25.9592 42.8859 25.9592 41.4102V29.6502C25.9592 28.1745 27.0195 26.9788 28.3714 26.9388C29.7244 26.9388 30.8571 28.0945 30.8571 29.5702C30.8571 29.6102 30.8571 29.6502 30.8571 29.6502V41.4102C30.8571 42.8859 29.7612 44.0816 28.4081 44.0816Z" fill="#5A6CC0"/>
<path fill-rule="evenodd" clip-rule="evenodd" d="M2.69385 6.36734C2.69385 4.87955 3.89994 3.67346 5.38773 3.67346H42.6122C44.1 3.67346 45.3061 4.87955 45.3061 6.36734V37.7143C45.3061 39.2021 44.1 40.4082 42.6122 40.4082H39.7311V38.9388H42.6122C43.2885 38.9388 43.8367 38.3905 43.8367 37.7143V6.36734C43.8367 5.69107 43.2885 5.14285 42.6122 5.14285H5.38773C4.71146 5.14285 4.16324 5.69107 4.16324 6.36734V37.7143C4.16324 38.3905 4.71146 38.9388 5.38772 38.9388H8.26888V40.4082H5.38772C3.89994 40.4082 2.69385 39.2021 2.69385 37.7143V6.36734Z" fill="#5A6CC0"/>
</g>
</g>
</svg>
