<svg width="48" height="48" viewBox="0 0 48 48" fill="none" xmlns="http://www.w3.org/2000/svg">
<g id="icon 24">
<g id="Vector">
<path fill-rule="evenodd" clip-rule="evenodd" d="M35.5104 9.30612C35.5104 7.81833 34.3043 6.61224 32.8165 6.61224H15.3108C15.1173 6.61224 14.9317 6.68856 14.7941 6.82462L5.85082 15.6716C5.71131 15.8096 5.63281 15.9976 5.63281 16.1939V38.6939C5.63281 40.1817 6.8389 41.3878 8.32669 41.3878H32.8165C34.3043 41.3878 35.5104 40.1817 35.5104 38.6939V31.4327C35.5104 31.0269 35.1814 30.698 34.7757 30.698C34.3699 30.698 34.041 31.0269 34.041 31.4327V38.6939C34.041 39.3701 33.4928 39.9184 32.8165 39.9184H8.32669C7.65042 39.9184 7.1022 39.3701 7.1022 38.6939V16.9286H13.3516C14.8394 16.9286 16.0455 15.7225 16.0455 14.2347V8.08163H32.8165C33.4928 8.08163 34.041 8.62985 34.041 9.30612V18.8327C34.041 19.2385 34.3699 19.5674 34.7757 19.5674C35.1814 19.5674 35.5104 19.2385 35.5104 18.8327V9.30612ZM14.5761 9.10714L8.15489 15.4592H13.3516C14.0279 15.4592 14.5761 14.911 14.5761 14.2347V9.10714Z" fill="#5A6CC0"/>
<path fill-rule="evenodd" clip-rule="evenodd" d="M38.5259 17.4541C38.8893 17.0907 39.4786 17.0907 39.842 17.4541L42.3355 19.9476C42.6989 20.3111 42.6989 20.9003 42.3355 21.2637L28.7269 34.8721L23.7167 37.282C22.9203 37.6651 22.0885 36.8265 22.4779 36.0333L24.9195 31.0603L38.5259 17.4541ZM39.1839 18.8741L38.0703 19.9878L39.8018 21.7193L40.9155 20.6057L39.1839 18.8741ZM38.7628 22.7583L37.0312 21.0268L26.5643 31.4936L28.2958 33.2252L38.7628 22.7583ZM27.0438 34.0511L25.732 32.7394L24.4834 35.2827L27.0438 34.0511Z" fill="#5A6CC0"/>
<path fill-rule="evenodd" clip-rule="evenodd" d="M25.9593 20.0816C28.1234 20.0816 29.8777 18.3273 29.8777 16.1633C29.8777 13.9992 28.1234 12.2449 25.9593 12.2449C23.7953 12.2449 22.041 13.9992 22.041 16.1633C22.041 18.3273 23.7953 20.0816 25.9593 20.0816ZM25.9593 21.551C28.9349 21.551 31.3471 19.1388 31.3471 16.1633C31.3471 13.1877 28.9349 10.7755 25.9593 10.7755C22.9838 10.7755 20.5716 13.1877 20.5716 16.1633C20.5716 19.1388 22.9838 21.551 25.9593 21.551Z" fill="#5A6CC0"/>
<path fill-rule="evenodd" clip-rule="evenodd" d="M25.2246 11.7551H26.694V15.4286H30.8573V16.898H25.2246V11.7551Z" fill="#5A6CC0"/>
<path fill-rule="evenodd" clip-rule="evenodd" d="M10.5308 24.9796C10.5308 24.5738 10.8597 24.2449 11.2655 24.2449H21.5512C21.9569 24.2449 22.2859 24.5738 22.2859 24.9796C22.2859 25.3853 21.9569 25.7143 21.5512 25.7143H11.2655C10.8597 25.7143 10.5308 25.3853 10.5308 24.9796Z" fill="#5A6CC0"/>
<path fill-rule="evenodd" clip-rule="evenodd" d="M10.5308 28.4082C10.5308 28.0024 10.8597 27.6735 11.2655 27.6735H18.1226C18.5284 27.6735 18.8573 28.0024 18.8573 28.4082C18.8573 28.8139 18.5284 29.1429 18.1226 29.1429H11.2655C10.8597 29.1429 10.5308 28.8139 10.5308 28.4082Z" fill="#5A6CC0"/>
<path fill-rule="evenodd" clip-rule="evenodd" d="M10.5308 31.8367C10.5308 31.431 10.8597 31.102 11.2655 31.102H21.5512C21.9569 31.102 22.2859 31.431 22.2859 31.8367C22.2859 32.2425 21.9569 32.5714 21.5512 32.5714H11.2655C10.8597 32.5714 10.5308 32.2425 10.5308 31.8367Z" fill="#5A6CC0"/>
</g>
</g>
</svg>
