<svg width="48" height="48" viewBox="0 0 48 48" fill="none" xmlns="http://www.w3.org/2000/svg">
<g id="icon 10">
<g id="Vector">
<path fill-rule="evenodd" clip-rule="evenodd" d="M4.89798 3.67349C4.22171 3.67349 3.67349 4.22171 3.67349 4.89798V43.1021C3.67349 43.7783 4.22171 44.3266 4.89798 44.3266H13.2245V45.7959H4.89798C3.41019 45.7959 2.2041 44.5899 2.2041 43.1021V4.89798C2.2041 3.41019 3.41019 2.2041 4.89798 2.2041H13.2245V3.67349H4.89798Z" fill="#5A6CC0"/>
<path fill-rule="evenodd" clip-rule="evenodd" d="M43.1021 3.67349H33.7959V2.2041H43.1021C44.5899 2.2041 45.7959 3.41019 45.7959 4.89798V43.1021C45.7959 44.5899 44.5899 45.7959 43.1021 45.7959H33.7959V44.3266H43.1021C43.7783 44.3266 44.3266 43.7783 44.3266 43.1021V4.89798C44.3266 4.22171 43.7783 3.67349 43.1021 3.67349Z" fill="#5A6CC0"/>
<path fill-rule="evenodd" clip-rule="evenodd" d="M10.7755 10.7755V20.0817H20.0817V10.7755H10.7755ZM9.79594 9.30614C9.52543 9.30614 9.30614 9.52543 9.30614 9.79594V21.0612C9.30614 21.3318 9.52543 21.551 9.79594 21.551H21.0612C21.3318 21.551 21.551 21.3318 21.551 21.0612V9.79594C21.551 9.52543 21.3318 9.30614 21.0612 9.30614H9.79594Z" fill="#5A6CC0"/>
<path d="M9.30614 26.9388C9.30614 26.6683 9.52543 26.449 9.79594 26.449H21.0612C21.3318 26.449 21.551 26.6683 21.551 26.9388V38.2041C21.551 38.4746 21.3318 38.6939 21.0612 38.6939H9.79594C9.52543 38.6939 9.30614 38.4746 9.30614 38.2041V26.9388Z" fill="#5A6CC0"/>
<path fill-rule="evenodd" clip-rule="evenodd" d="M27.9184 27.9184V37.2245H37.2245V27.9184H27.9184ZM26.9388 26.449C26.6683 26.449 26.449 26.6683 26.449 26.9388V38.2041C26.449 38.4746 26.6683 38.6939 26.9388 38.6939H38.2041C38.4746 38.6939 38.6939 38.4746 38.6939 38.2041V26.9388C38.6939 26.6683 38.4746 26.449 38.2041 26.449H26.9388Z" fill="#5A6CC0"/>
<path d="M26.449 9.79594C26.449 9.52543 26.6683 9.30614 26.9388 9.30614H38.2041C38.4746 9.30614 38.6939 9.52543 38.6939 9.79594V21.0612C38.6939 21.3318 38.4746 21.551 38.2041 21.551H26.9388C26.6683 21.551 26.449 21.3318 26.449 21.0612V9.79594Z" fill="#5A6CC0"/>
</g>
</g>
</svg>
