<svg width="48" height="48" viewBox="0 0 48 48" fill="none" xmlns="http://www.w3.org/2000/svg">
<g id="icon 28">
<g id="Icons">
<path id="Vector" d="M40.5 37.5V9H30V16H22V10H13.5V7H7.5V37.5H7V41H41V37.5H40.5ZM31 10H39.5V13.5H31V10ZM31 16V14.5H39.5V31.5H31V16ZM39.5 32.5V37.5H31V32.5H39.5ZM30 17V37.5H22V17H30ZM21 11V37.5H13.5V11H21ZM8.5 8H12.5V37.5H8.5V8ZM40 40H8V38.5H40V40Z" fill="white" stroke="#5A6CC0" stroke-width="0.999986"/>
<path id="Vector_2" d="M19 13H15.5V16.5H19V13ZM18 15.5H16.5V14H18V15.5Z" fill="white" stroke="#5A6CC0" stroke-width="0.999986"/>
<path id="Vector_3" d="M26 22C26.5523 22 27 21.5523 27 21C27 20.4477 26.5523 20 26 20C25.4477 20 25 20.4477 25 21C25 21.5523 25.4477 22 26 22Z" fill="white" stroke="#5A6CC0" stroke-width="0.999986"/>
<path id="Vector_4" d="M26 33.5C26.5523 33.5 27 33.0523 27 32.5C27 31.9477 26.5523 31.5 26 31.5C25.4477 31.5 25 31.9477 25 32.5C25 33.0523 25.4477 33.5 26 33.5Z" fill="white" stroke="#5A6CC0" stroke-width="0.999986"/>
</g>
</g>
</svg>
