<svg width="48" height="48" viewBox="0 0 48 48" fill="none" xmlns="http://www.w3.org/2000/svg">
<g id="icon 33">
<g id="Vector">
<path fill-rule="evenodd" clip-rule="evenodd" d="M38.2417 10.0219C38.2417 8.41972 36.9429 7.12085 35.3406 7.12085H16.4884C16.28 7.12085 16.0801 7.20304 15.932 7.34957L6.3007 16.877C6.15046 17.0257 6.06592 17.2282 6.06592 17.4395V41.6703C6.06592 43.2725 7.36478 44.5714 8.96702 44.5714H35.3406C36.9429 44.5714 38.2417 43.2725 38.2417 41.6703V10.0219ZM35.3406 8.70327C36.0689 8.70327 36.6593 9.29366 36.6593 10.0219V41.6703C36.6593 42.3986 36.0689 42.989 35.3406 42.989H8.96702C8.23873 42.989 7.64834 42.3986 7.64834 41.6703V18.2307H14.3785C15.9807 18.2307 17.2796 16.9319 17.2796 15.3296V8.70327H35.3406ZM15.6972 9.80767L8.782 16.6483H14.3785C15.1068 16.6483 15.6972 16.0579 15.6972 15.3296V9.80767Z" fill="#5A6CC0"/>
<path fill-rule="evenodd" clip-rule="evenodd" d="M11.3406 26.9011C11.3406 26.4641 11.6949 26.1099 12.1319 26.1099H23.2088C23.6457 26.1099 24 26.4641 24 26.9011C24 27.338 23.6457 27.6923 23.2088 27.6923H12.1319C11.6949 27.6923 11.3406 27.338 11.3406 26.9011Z" fill="#5A6CC0"/>
<path fill-rule="evenodd" clip-rule="evenodd" d="M11.3406 30.5934C11.3406 30.1564 11.6949 29.8022 12.1319 29.8022H19.5165C19.9534 29.8022 20.3077 30.1564 20.3077 30.5934C20.3077 31.0304 19.9534 31.3846 19.5165 31.3846H12.1319C11.6949 31.3846 11.3406 31.0304 11.3406 30.5934Z" fill="#5A6CC0"/>
<path fill-rule="evenodd" clip-rule="evenodd" d="M11.3406 34.2857C11.3406 33.8487 11.6949 33.4945 12.1319 33.4945H23.2088C23.6457 33.4945 24 33.8487 24 34.2857C24 34.7227 23.6457 35.0769 23.2088 35.0769H12.1319C11.6949 35.0769 11.3406 34.7227 11.3406 34.2857Z" fill="#5A6CC0"/>
<path fill-rule="evenodd" clip-rule="evenodd" d="M30.0659 20.5714C32.3964 20.5714 34.2857 18.6821 34.2857 16.3516C34.2857 14.0211 32.3964 12.1318 30.0659 12.1318C27.7354 12.1318 25.8461 14.0211 25.8461 16.3516C25.8461 18.6821 27.7354 20.5714 30.0659 20.5714ZM30.0659 22.1538C33.2704 22.1538 35.8681 19.5561 35.8681 16.3516C35.8681 13.1472 33.2704 10.5494 30.0659 10.5494C26.8615 10.5494 24.2637 13.1472 24.2637 16.3516C24.2637 19.5561 26.8615 22.1538 30.0659 22.1538Z" fill="#5A6CC0"/>
<path fill-rule="evenodd" clip-rule="evenodd" d="M33.7722 14.8187L29.2961 19.0191L26.3597 16.2635L27.4425 15.1096L29.2961 16.849L32.6893 13.6648L33.7722 14.8187Z" fill="#5A6CC0"/>
</g>
</g>
</svg>
