<svg width="48" height="48" viewBox="0 0 48 48" fill="none" xmlns="http://www.w3.org/2000/svg">
<path d="M1.7898 24.4711C1.25839 22.9651 0.959961 21.4005 0.959961 19.7735C0.959715 18.3488 1.24532 16.9384 1.80008 15.6247C2.35484 14.311 3.16763 13.1203 4.19095 12.1222C5.21426 11.1241 6.42758 10.3386 7.75998 9.81171C9.09238 9.2848 10.5171 9.027 11.951 9.05338C13.6475 9.04443 15.3266 9.39378 16.8769 10.0783C18.4273 10.7628 19.8135 11.7668 20.9436 13.0238C22.0738 11.7668 23.46 10.7628 25.0103 10.0783C26.5607 9.39378 28.2398 9.04443 29.9363 9.05338C31.3701 9.027 32.7949 9.2848 34.1273 9.81171C35.4597 10.3386 36.673 11.1241 37.6963 12.1222C38.7196 13.1203 39.5324 14.311 40.0872 15.6247C40.642 16.9384 40.9276 18.3488 40.9273 19.7735C40.9273 21.3991 40.6293 22.9639 40.0986 24.4711M5.86989 31.2764C10.2404 36.5076 16.5967 40.9301 20.9436 44.7871C25.2941 40.9677 31.6367 36.5428 36.0036 31.3103" stroke="white" stroke-width="1.5"/>
<path d="M0.489746 27.8047H9.31773C9.66601 27.8047 9.98921 27.6235 10.1709 27.3263L14.0076 21.0514C14.4316 20.3579 15.462 20.4332 15.7807 21.1809L20.1128 31.3447C20.4232 32.073 21.4165 32.1689 21.8606 31.5136L26.9005 24.0756C27.3059 23.4773 28.1926 23.4934 28.576 24.106L30.5973 27.3352C30.7801 27.6273 31.1004 27.8047 31.4449 27.8047H41.3975" stroke="white" stroke-width="1.5"/>
<path fill-rule="evenodd" clip-rule="evenodd" d="M47.7528 9.39332L45.9955 9.20132C45.8582 9.17389 45.7483 9.09062 45.7208 8.95348C45.6384 8.51462 45.4736 8.10221 45.2548 7.69078C45.1999 7.58009 45.2273 7.44294 45.3097 7.33322L46.4076 5.95984C46.5175 5.85013 46.5175 5.6307 46.3802 5.52099L45.4736 4.58646C45.3372 4.47675 45.1449 4.47675 45.0076 4.58646L43.6889 5.6307C43.579 5.71299 43.4426 5.74042 43.3327 5.65813C42.9481 5.43772 42.5635 5.27315 42.1514 5.136C42.0141 5.10857 41.9316 4.99886 41.9042 4.86172L41.7119 3.15821C41.7119 2.99364 41.548 2.93878 41.3832 2.93878H40.092C39.8997 2.93878 39.7634 2.99364 39.7359 3.15821L39.571 4.83429C39.5435 4.97143 39.4337 5.08115 39.2963 5.10857C38.8568 5.24572 38.4172 5.41029 38.0051 5.65813C37.8962 5.71299 37.7314 5.71299 37.649 5.6307L36.3303 4.58646C36.193 4.47675 36.0016 4.47675 35.8917 4.58646L34.9577 5.52099C34.8478 5.6307 34.8203 5.8227 34.9302 5.95984L36.0016 7.3058C36.084 7.38808 36.084 7.55267 36.0291 7.66238C35.8093 8.07479 35.6445 8.48719 35.5346 8.95348C35.5071 9.09062 35.3698 9.17389 35.2324 9.20132L33.5576 9.39332C33.3928 9.42075 33.2829 9.55789 33.3104 9.72246V11.0136C33.2829 11.1781 33.3928 11.3427 33.5576 11.3711L35.3698 11.5631C35.4797 11.5631 35.5895 11.6728 35.6445 11.7825C35.7544 12.1401 35.8918 12.4418 36.0566 12.7709C36.1115 12.8816 36.084 13.0188 36.0016 13.1285L34.9302 14.4745C34.8203 14.6116 34.8203 14.8036 34.9577 14.9133L35.8642 15.8478C35.9741 15.9576 36.193 15.985 36.3303 15.8753L37.649 14.8036C37.7589 14.6939 37.9237 14.6939 38.0326 14.7762C38.3897 14.9682 38.7743 15.1337 39.159 15.2434C39.2963 15.2709 39.3787 15.3806 39.4062 15.5177L39.5985 17.3309C39.626 17.4955 39.7633 17.6327 39.9272 17.6327H41.2459C41.4107 17.6327 41.5481 17.4955 41.5755 17.3309L41.7668 15.5452C41.7943 15.408 41.8767 15.2983 42.0141 15.2709C42.4536 15.1337 42.8657 14.9682 43.2503 14.7487C43.3877 14.6939 43.524 14.6939 43.6339 14.7762L44.9801 15.8753C45.1174 15.985 45.3097 15.985 45.4461 15.8478L46.3527 14.9407C46.4626 14.8036 46.49 14.6116 46.3802 14.4745L45.2822 13.1011C45.1998 12.9913 45.1724 12.8542 45.2548 12.7435C45.3912 12.4418 45.5285 12.1401 45.6384 11.8374C45.6659 11.7003 45.7758 11.618 45.9131 11.5905L47.7528 11.3985C47.9176 11.3711 48 11.233 48 11.041V9.74989C48 9.55789 47.9451 9.42075 47.7528 9.39332ZM40.6415 12.9091C39.1589 12.9091 37.9512 11.7002 37.9512 10.2171C37.9512 8.73404 39.1589 7.52524 40.6415 7.52524C42.124 7.52524 43.3327 8.73404 43.3327 10.2171C43.3327 11.7002 42.124 12.9091 40.6415 12.9091Z" fill="white"/>
<path fill-rule="evenodd" clip-rule="evenodd" d="M29.8741 12.5432C29.956 12.4976 30.0432 12.4898 30.1052 12.4898H30.7078C30.7668 12.4898 30.8524 12.4986 30.9324 12.5431C31.0233 12.5937 31.0994 12.689 31.1056 12.8197L31.1872 13.5425C31.3567 13.6011 31.5194 13.6706 31.6819 13.7592L32.2463 13.3123L32.2468 13.3119C32.3999 13.1899 32.6167 13.1894 32.7701 13.3128C32.778 13.3191 32.7854 13.3259 32.7924 13.3331L33.2074 13.7609C33.2931 13.8369 33.3302 13.94 33.3341 14.0319C33.3378 14.1218 33.3107 14.2248 33.2376 14.3052L32.7628 14.8991C32.8464 15.0649 32.9147 15.2373 32.957 15.4214L33.7068 15.5034L33.7148 15.5044C33.8201 15.5194 33.9189 15.5727 33.9805 15.6734C34.0331 15.7594 34.0405 15.852 34.0405 15.9132V16.5157C34.0405 16.5928 34.0243 16.683 33.9707 16.7636C33.913 16.8503 33.8242 16.9069 33.7204 16.9242C33.7155 16.925 33.7106 16.9257 33.7057 16.9262L32.9096 17.0093C32.8627 17.1333 32.808 17.2555 32.7559 17.3708L33.2308 17.9649C33.3742 18.1441 33.318 18.3639 33.218 18.4888C33.2124 18.4957 33.2064 18.5024 33.2001 18.5087L32.7774 18.9316C32.6209 19.0887 32.3898 19.0879 32.2335 18.9631L32.2314 18.9614L31.65 18.4867C31.4812 18.5781 31.305 18.6491 31.1234 18.7081L31.041 19.4771C31.0405 19.4819 31.0399 19.4866 31.0391 19.4914C31.0103 19.6638 30.8617 19.8367 30.6437 19.8367H30.0283C29.8103 19.8367 29.6621 19.6633 29.6334 19.4914C29.6326 19.4866 29.6319 19.4817 29.6314 19.4769L29.5486 18.6963C29.3845 18.6452 29.2238 18.5763 29.074 18.4987L28.5026 18.9631C28.4127 19.0349 28.3059 19.055 28.2166 19.0478C28.129 19.0408 28.0327 19.0056 27.9592 18.9322L27.9565 18.9295L27.5419 18.5021C27.3646 18.3472 27.3923 18.1063 27.5049 17.9654L27.5053 17.9649L27.9746 17.3753C27.9155 17.2544 27.8618 17.1334 27.8158 16.9966L27.03 16.9133C27.0247 16.9128 27.0195 16.912 27.0142 16.9111C26.8057 16.8752 26.6763 16.6814 26.6955 16.4877V15.9162C26.673 15.7027 26.8278 15.5365 27.0156 15.5052C27.0197 15.5046 27.0238 15.504 27.0279 15.5035L27.7563 15.42C27.8074 15.2254 27.8777 15.0488 27.9658 14.8762L27.5053 14.2977C27.3678 14.1257 27.4064 13.8961 27.536 13.7666L27.9719 13.3305C28.1278 13.1748 28.3601 13.1988 28.5021 13.3119L28.5026 13.3123L29.0661 13.7585C29.2518 13.6549 29.4429 13.583 29.6253 13.5247L29.6953 12.8131C29.6958 12.8077 29.6966 12.8022 29.6975 12.7968C29.7157 12.6874 29.7782 12.5966 29.8741 12.5432ZM27.7383 15.4935C27.7386 15.4919 27.7389 15.4904 27.7393 15.489L27.7383 15.4935ZM30.1711 12.9796L30.1058 13.6432C30.105 13.6513 30.1038 13.6594 30.1022 13.6674C30.071 13.8232 29.9509 13.947 29.7975 13.984C29.6037 14.0448 29.4229 14.1141 29.2575 14.2136C29.2523 14.2168 29.247 14.2197 29.2415 14.2225C29.1753 14.2558 29.1006 14.2696 29.0307 14.2659C28.9672 14.2625 28.8791 14.2427 28.8056 14.177L28.2545 13.7406L27.9391 14.0562L28.382 14.6127C28.448 14.6862 28.468 14.7745 28.4714 14.8381C28.4751 14.9081 28.4612 14.9827 28.4282 15.0487L28.4254 15.0543C28.3318 15.2298 28.2633 15.4016 28.2175 15.5948C28.1736 15.7998 27.9865 15.8772 27.8854 15.8974C27.8787 15.8987 27.872 15.8998 27.8653 15.9005L27.1853 15.9785V16.4372L27.9187 16.5149C28.0162 16.52 28.0904 16.5676 28.1345 16.6053C28.1839 16.6476 28.2226 16.7 28.2487 16.7521C28.2547 16.7643 28.2598 16.7769 28.2638 16.7898C28.3093 16.9379 28.3666 17.0648 28.441 17.2134L28.4414 17.2142C28.5199 17.3725 28.4683 17.5356 28.3922 17.637L28.388 17.6425L27.9383 18.2073L28.2547 18.5334L28.8032 18.0876C28.9397 17.9614 29.1345 17.959 29.272 18.0495C29.4207 18.1285 29.5769 18.195 29.7298 18.2393C29.9104 18.281 29.9998 18.4296 30.0253 18.5568C30.0268 18.5641 30.0279 18.5716 30.0287 18.5791L30.1101 19.347H30.5624L30.6433 18.5916C30.6441 18.5842 30.6452 18.5769 30.6467 18.5696C30.672 18.4432 30.7604 18.2957 30.9387 18.2529C31.1283 18.1932 31.3002 18.1232 31.4577 18.0333C31.4676 18.0277 31.4778 18.0228 31.4883 18.0186C31.6024 17.973 31.7634 17.9568 31.9049 18.0628C31.9076 18.0648 31.9103 18.067 31.913 18.0691L32.4824 18.534L32.8026 18.2136L32.336 17.63L32.3315 17.6242C32.2601 17.5292 32.1972 17.3548 32.2998 17.1908C32.359 17.0597 32.414 16.9377 32.4585 16.817C32.5035 16.6431 32.6493 16.5569 32.7738 16.532C32.7812 16.5305 32.7888 16.5294 32.7963 16.5286L33.5507 16.4499V15.979L32.8336 15.9007C32.8264 15.8999 32.8193 15.8988 32.8122 15.8974C32.6813 15.8712 32.5295 15.7775 32.4919 15.5897L32.4913 15.5868C32.4587 15.4132 32.3926 15.2446 32.2983 15.0673L32.2951 15.0612C32.2165 14.903 32.2681 14.7398 32.3443 14.6384L32.3489 14.6325L32.8104 14.0551L32.5005 13.7357L31.9306 14.187C31.8341 14.2593 31.6535 14.3244 31.486 14.2106C31.3293 14.1217 31.1714 14.0538 31 13.9961C30.8236 13.9526 30.7359 13.8059 30.7108 13.6802C30.7094 13.6733 30.7083 13.6665 30.7075 13.6595L30.6308 12.9796H30.1711ZM33.5505 16.5206L33.5506 16.5197L33.5505 16.5206ZM30.3616 15.1199C29.8052 15.1199 29.351 15.5743 29.351 16.1313C29.351 16.6883 29.8052 17.1426 30.3616 17.1426C30.9182 17.1426 31.3726 16.6882 31.3726 16.1313C31.3726 15.5744 30.9182 15.1199 30.3616 15.1199ZM28.8612 16.1313C28.8612 15.3041 29.5344 14.6302 30.3616 14.6302C31.1888 14.6302 31.8624 15.3039 31.8624 16.1313C31.8624 16.9586 31.1888 17.6324 30.3616 17.6324C29.5344 17.6324 28.8612 16.9585 28.8612 16.1313Z" fill="white"/>
</svg>
