<svg width="48" height="48" viewBox="0 0 48 48" fill="none" xmlns="http://www.w3.org/2000/svg">
<g id="icon 21">
<g id="Vector">
<path fill-rule="evenodd" clip-rule="evenodd" d="M42.3676 7.34695C42.3676 5.85917 41.1615 4.65308 39.6737 4.65308H15.6737C15.4776 4.65308 15.2897 4.73143 15.1518 4.87069L5.35583 14.7584C5.21953 14.896 5.14307 15.0819 5.14307 15.2755V40.6531C5.14307 42.1409 6.34916 43.347 7.83694 43.347H39.6737C41.1615 43.347 42.3676 42.1409 42.3676 40.6531V7.34695ZM39.6737 6.12246C40.3499 6.12246 40.8982 6.67069 40.8982 7.34695V40.6531C40.8982 41.3293 40.3499 41.8776 39.6737 41.8776H7.83694C7.16068 41.8776 6.61245 41.3293 6.61245 40.6531V16.0102H13.7145C15.2023 16.0102 16.4084 14.8041 16.4084 13.3163V6.12246H39.6737ZM14.939 7.17325L7.63983 14.5408H13.7145C14.3908 14.5408 14.939 13.9926 14.939 13.3163V7.17325Z" fill="#5A6CC0"/>
<path fill-rule="evenodd" clip-rule="evenodd" d="M36.7349 26.9388H26.939V36.7347H36.7349V26.9388ZM38.2043 26.449C38.2043 25.908 37.7657 25.4694 37.2247 25.4694H26.4492C25.9082 25.4694 25.4696 25.908 25.4696 26.449V37.2245C25.4696 37.7655 25.9082 38.2041 26.4492 38.2041H37.2247C37.7657 38.2041 38.2043 37.7655 38.2043 37.2245V26.449Z" fill="#5A6CC0"/>
<path fill-rule="evenodd" clip-rule="evenodd" d="M25.9594 32.5714H21.5512V31.1021H25.9594V32.5714Z" fill="#5A6CC0"/>
<path fill-rule="evenodd" clip-rule="evenodd" d="M31.1023 25.4694V21.0612H32.5716V25.4694H31.1023Z" fill="#5A6CC0"/>
<path fill-rule="evenodd" clip-rule="evenodd" d="M20.5716 26.9388H10.7757L10.7757 36.7347H20.5716L20.5716 26.9388ZM22.041 26.449C22.041 25.908 21.6024 25.4694 21.0614 25.4694H10.2859C9.74491 25.4694 9.30633 25.908 9.30633 26.449L9.30633 37.2245C9.30633 37.7655 9.74491 38.2041 10.2859 38.2041H21.0614C21.6024 38.2041 22.041 37.7655 22.041 37.2245V26.449Z" fill="#5A6CC0"/>
<path fill-rule="evenodd" clip-rule="evenodd" d="M31.8369 20.0816C34.542 20.0816 36.7349 17.8888 36.7349 15.1837C36.7349 12.4786 34.542 10.2857 31.8369 10.2857C29.1319 10.2857 26.939 12.4786 26.939 15.1837C26.939 17.8888 29.1319 20.0816 31.8369 20.0816ZM31.8369 21.551C35.3535 21.551 38.2043 18.7003 38.2043 15.1837C38.2043 11.6671 35.3535 8.81634 31.8369 8.81634C28.3204 8.81634 25.4696 11.6671 25.4696 15.1837C25.4696 18.7003 28.3204 21.551 31.8369 21.551Z" fill="#5A6CC0"/>
<path fill-rule="evenodd" clip-rule="evenodd" d="M35.7937 13.2454L31.003 18.1998L27.8802 14.9704L28.9365 13.9489L31.003 16.086L34.7374 12.224L35.7937 13.2454Z" fill="#5A6CC0"/>
<path fill-rule="evenodd" clip-rule="evenodd" d="M11.5104 30.3674C11.5104 29.9616 11.8393 29.6327 12.2451 29.6327H19.1023C19.508 29.6327 19.8369 29.9616 19.8369 30.3674C19.8369 30.7731 19.508 31.1021 19.1023 31.1021H12.2451C11.8393 31.1021 11.5104 30.7731 11.5104 30.3674Z" fill="#5A6CC0"/>
<path fill-rule="evenodd" clip-rule="evenodd" d="M27.6737 30.3674C27.6737 29.9616 28.0026 29.6327 28.4084 29.6327H35.2655C35.6713 29.6327 36.0002 29.9616 36.0002 30.3674C36.0002 30.7731 35.6713 31.1021 35.2655 31.1021H28.4084C28.0026 31.1021 27.6737 30.7731 27.6737 30.3674Z" fill="#5A6CC0"/>
<path fill-rule="evenodd" clip-rule="evenodd" d="M11.5104 33.3061C11.5104 32.9004 11.8393 32.5714 12.2451 32.5714H19.1023C19.508 32.5714 19.8369 32.9004 19.8369 33.3061C19.8369 33.7119 19.508 34.0408 19.1023 34.0408H12.2451C11.8393 34.0408 11.5104 33.7119 11.5104 33.3061Z" fill="#5A6CC0"/>
<path fill-rule="evenodd" clip-rule="evenodd" d="M27.6737 33.3061C27.6737 32.9004 28.0026 32.5714 28.4084 32.5714H35.2655C35.6713 32.5714 36.0002 32.9004 36.0002 33.3061C36.0002 33.7119 35.6713 34.0408 35.2655 34.0408H28.4084C28.0026 34.0408 27.6737 33.7119 27.6737 33.3061Z" fill="#5A6CC0"/>
</g>
</g>
</svg>
