<svg width="48" height="48" viewBox="0 0 48 48" fill="none" xmlns="http://www.w3.org/2000/svg">
<g id="icon 31">
<g id="Icons">
<path id="Vector" d="M36.5315 24C40.4108 20.2239 42.2118 16.544 40.8876 14.25C39.5633 11.956 35.4754 11.6758 30.2657 13.1475C28.9352 7.89965 26.6487 4.5 23.9999 4.5C21.351 4.5 19.0645 7.89965 17.7341 13.1475C12.5241 11.6758 8.43676 11.9559 7.11217 14.25C5.78757 16.5441 7.58896 20.2239 11.4683 24C7.58896 27.7761 5.78792 31.4561 7.11217 33.75C7.89717 35.1096 9.65172 35.7622 12.036 35.7622C13.9675 35.7151 15.8839 35.4083 17.7335 34.85C19.0638 40.0991 21.3506 43.5 23.9999 43.5C26.6492 43.5 28.9359 40.0991 30.2663 34.85C32.1159 35.4083 34.0322 35.7152 35.9637 35.7622C38.3473 35.7622 40.1027 35.1094 40.8876 33.75C42.2118 31.4561 40.4108 27.7761 36.5315 24ZM36.0472 13.2177C38.0013 13.2177 39.4215 13.7107 40.0214 14.75C41.0999 16.6175 39.3236 19.895 35.7949 23.3062C34.3876 22.0275 32.8953 20.8458 31.3283 19.7689C31.1792 17.874 30.902 15.9914 30.4987 14.1339C32.2985 13.5799 34.1649 13.2717 36.0472 13.2177ZM27.2499 29.6292C26.164 30.2561 25.076 30.8306 23.9999 31.35C22.9238 30.8307 21.8357 30.2562 20.7499 29.6293C19.664 29.0023 18.6226 28.3473 17.6349 27.6751C17.5464 26.4833 17.4999 25.2538 17.4999 24C17.4999 22.7462 17.5464 21.5167 17.6349 20.325C18.6227 19.6528 19.6642 18.9978 20.7499 18.3708C21.8355 17.7438 22.9241 17.1698 24.0005 16.6504C25.0764 17.1697 26.1642 17.7439 27.2499 18.3708C28.3355 18.9977 29.3772 19.6528 30.3649 20.3251C30.4532 21.5166 30.4999 22.7462 30.4999 24.0002C30.4999 25.2542 30.4534 26.4834 30.3649 27.6751C29.3772 28.3472 28.3357 29.0022 27.2499 29.6292ZM30.2505 28.9576C30.0968 30.5093 29.8557 32.051 29.5283 33.5755C28.0432 33.0965 26.5864 32.5338 25.1648 31.8904C26.0201 31.4583 26.8827 30.9958 27.7498 30.4951C28.6156 29.9954 29.4492 29.4829 30.2505 28.9576ZM22.8349 31.8905C21.4133 32.5339 19.9565 33.0965 18.4715 33.5755C18.1441 32.0511 17.9029 30.5093 17.7493 28.9577C18.55 29.4815 19.3835 29.994 20.2499 30.4954C21.117 30.9959 21.9799 31.4585 22.8349 31.8905ZM16.5813 26.9343C15.3143 26.0254 14.0997 25.0458 12.9432 24C14.0997 22.9542 15.3143 21.9746 16.5813 21.0657C16.528 22.021 16.5009 22.9991 16.4999 24C16.4999 24.9998 16.527 25.9778 16.5813 26.9343ZM17.7493 19.0424C17.9029 17.4907 18.1441 15.949 18.4715 14.4246C19.9555 14.9032 21.4112 15.4652 22.8319 16.108C21.9779 16.5395 21.1172 17.0051 20.2499 17.5047C19.3841 18.0045 18.5505 18.5171 17.7493 19.0424ZM25.1675 16.1079C26.5884 15.4659 28.0445 14.9049 29.5289 14.4275C29.856 15.951 30.0969 17.4918 30.2505 19.0425C29.4497 18.5186 28.6162 18.006 27.7499 17.5047C26.884 17.0049 26.0232 16.5393 25.1675 16.1079ZM31.4185 21.0657C32.6854 21.9746 33.9 22.9542 35.0565 24C33.9 25.0458 32.6854 26.0254 31.4185 26.9343C31.4717 25.979 31.4989 25.0009 31.4999 24C31.4999 23.0002 31.4727 22.0222 31.4185 21.0657ZM23.9999 5.5C26.1564 5.5 28.1067 8.67675 29.2964 13.4385C27.4855 14.018 25.716 14.7195 23.9999 15.5381C22.2838 14.7196 20.5142 14.0181 18.7034 13.4385C19.8931 8.67675 21.8433 5.5 23.9999 5.5ZM7.97836 14.75C9.05666 12.8826 12.783 12.7819 17.5016 14.1323C17.098 15.9903 16.8207 17.8735 16.6716 19.7689C15.1045 20.8458 13.6122 22.0275 12.2049 23.3062C8.67616 19.895 6.90011 16.6175 7.97836 14.75ZM7.97836 33.25C6.90011 31.3825 8.67617 28.105 12.2051 24.6938C13.6124 25.9725 15.1047 27.1542 16.6717 28.2311C16.8208 30.1266 17.0981 32.0097 17.5017 33.8677C12.7828 35.2182 9.05651 35.1177 7.97836 33.25ZM23.9999 42.5C21.8431 42.5 19.8927 39.3225 18.703 34.56C20.514 33.9804 22.2837 33.2787 23.9999 32.46C25.7161 33.2787 27.4858 33.9804 29.2968 34.56C28.1071 39.3225 26.1566 42.5 23.9999 42.5ZM40.0214 33.25C38.9431 35.1175 35.2168 35.2181 30.4982 33.8677C30.9017 32.0097 31.179 30.1266 31.3282 28.2311C32.8952 27.1542 34.3876 25.9725 35.7949 24.6938C39.3236 28.105 41.0999 31.3825 40.0214 33.25Z" fill="#5A6CC0" stroke="#5A6CC0" stroke-width="1.0001"/>
<path id="Vector_2" d="M24 21C22.3432 21 21 22.3432 21 24C21 25.6568 22.3432 27 24 27C25.6568 27 27 25.6568 27 24C26.9982 22.3439 25.6561 21.0018 24 21ZM24 26C22.8954 26 22 25.1045 22 24C22 22.8954 22.8954 22 24 22C25.1045 22 26 22.8954 26 24C25.9988 25.1041 25.1041 25.9988 24 26Z" fill="#5A6CC0" stroke="#5A6CC0" stroke-width="1.0001"/>
</g>
</g>
</svg>
