<svg width="48" height="48" viewBox="0 0 48 48" fill="none" xmlns="http://www.w3.org/2000/svg">
<g id="icon 12" clip-path="url(#clip0_378_1188)">
<g id="Vector">
<path fill-rule="evenodd" clip-rule="evenodd" d="M38.9386 27.0052H11.5101V25.5359H38.9386V27.0052Z" fill="#5A6CC0"/>
<path fill-rule="evenodd" clip-rule="evenodd" d="M16.3504 31.4134H11.5101V29.944H16.3504V31.4134Z" fill="#5A6CC0"/>
<path fill-rule="evenodd" clip-rule="evenodd" d="M25.4933 22.5971H11.5101V21.1277H25.4933V22.5971Z" fill="#5A6CC0"/>
<path fill-rule="evenodd" clip-rule="evenodd" d="M40.3725 14.3007L38.8793 14.1376C38.7626 14.1143 38.6693 14.0435 38.6459 13.927C38.5759 13.5541 38.4359 13.2037 38.2499 12.8541C38.2033 12.76 38.2266 12.6435 38.2966 12.5503L39.2295 11.3833C39.3229 11.2901 39.3229 11.1036 39.2062 11.0104L38.4358 10.2163C38.3199 10.1231 38.1566 10.1231 38.0398 10.2163L36.9194 11.1036C36.826 11.1736 36.7101 11.1969 36.6167 11.1269C36.2899 10.9397 35.9631 10.7998 35.613 10.6833C35.4963 10.66 35.4262 10.5668 35.4029 10.4502L35.2395 9.00276C35.2395 8.86292 35.1003 8.81631 34.9602 8.81631H33.8631C33.6997 8.81631 33.5838 8.86292 33.5605 9.00276L33.4204 10.4269C33.3971 10.5435 33.3037 10.6367 33.187 10.66C32.8135 10.7765 32.44 10.9164 32.0898 11.1269C31.9973 11.1736 31.8573 11.1736 31.7872 11.1036L30.6668 10.2163C30.5501 10.1231 30.3875 10.1231 30.2941 10.2163L29.5004 11.0104C29.407 11.1036 29.3837 11.2668 29.4771 11.3833L30.3875 12.527C30.4575 12.5969 30.4575 12.7367 30.4108 12.83C30.2241 13.1804 30.084 13.5308 29.9906 13.927C29.9673 14.0435 29.8506 14.1143 29.7339 14.1376L28.3108 14.3007C28.1707 14.324 28.0774 14.4406 28.1007 14.5804V15.6775C28.0774 15.8173 28.1707 15.9571 28.3108 15.9813L29.8506 16.1444C29.944 16.1444 30.0373 16.2376 30.084 16.3309C30.1774 16.6347 30.2941 16.8911 30.4342 17.1707C30.4809 17.2648 30.4575 17.3813 30.3875 17.4745L29.4771 18.6182C29.3837 18.7347 29.3837 18.8979 29.5004 18.9911L30.2707 19.7852C30.3641 19.8784 30.5501 19.9017 30.6668 19.8085L31.7872 18.8979C31.8806 18.8046 32.0207 18.8047 32.1132 18.8746C32.4167 19.0377 32.7435 19.1784 33.0703 19.2716C33.187 19.2949 33.257 19.3881 33.2804 19.5047L33.4438 21.0454C33.4671 21.1852 33.5838 21.3017 33.723 21.3017H34.8435C34.9836 21.3017 35.1003 21.1852 35.1236 21.0454L35.2862 19.528C35.3095 19.4114 35.3795 19.3182 35.4963 19.2949C35.8698 19.1784 36.2199 19.0377 36.5467 18.8513C36.6634 18.8047 36.7793 18.8047 36.8727 18.8746L38.0165 19.8085C38.1332 19.9017 38.2966 19.9017 38.4125 19.7852L39.1828 19.0144C39.2762 18.8979 39.2995 18.7347 39.2062 18.6182L38.2732 17.4512C38.2032 17.358 38.1799 17.2415 38.2499 17.1474C38.3658 16.8911 38.4825 16.6347 38.5759 16.3775C38.5992 16.261 38.6926 16.191 38.8093 16.1677L40.3725 16.0046C40.5125 15.9813 40.5826 15.8639 40.5826 15.7008V14.6037C40.5826 14.4406 40.5359 14.324 40.3725 14.3007ZM34.33 17.2881C33.0703 17.2881 32.044 16.2609 32.044 15.0008C32.044 13.7406 33.0703 12.7134 34.33 12.7134C35.5896 12.7134 36.6167 13.7406 36.6167 15.0008C36.6167 16.2609 35.5896 17.2881 34.33 17.2881Z" fill="#5A6CC0"/>
<path fill-rule="evenodd" clip-rule="evenodd" d="M15.9254 0.192665L20.601 4.86823C20.8879 5.15514 20.8879 5.62033 20.601 5.90724L15.9254 10.5828C15.6385 10.8697 15.1733 10.8697 14.8864 10.5828C14.5995 10.2959 14.5995 9.83071 14.8864 9.54379L18.3078 6.12243H6.36722C5.69095 6.12243 5.14273 6.67065 5.14273 7.34692V40.1632C5.14273 40.8395 5.69095 41.3877 6.36722 41.3877H13.7142V42.8571H6.36722C4.87943 42.8571 3.67334 41.651 3.67334 40.1632V7.34692C3.67334 5.85913 4.87943 4.65304 6.36722 4.65304H18.3078L14.8864 1.23168C14.5995 0.944763 14.5995 0.479581 14.8864 0.192665C15.1733 -0.094251 15.6385 -0.094251 15.9254 0.192665Z" fill="#5A6CC0"/>
<path fill-rule="evenodd" clip-rule="evenodd" d="M41.6325 6.12243C42.3088 6.12243 42.857 6.67065 42.857 7.34692V40.1632C42.857 40.8395 42.3088 41.3877 41.6325 41.3877H29.6919L33.1133 37.9664C33.4002 37.6795 33.4002 37.2143 33.1133 36.9274C32.8264 36.6404 32.3612 36.6404 32.0743 36.9274L27.3987 41.6029C27.1118 41.8898 27.1118 42.355 27.3987 42.6419L32.0743 47.3175C32.3612 47.6044 32.8264 47.6044 33.1133 47.3175C33.4002 47.0306 33.4002 46.5654 33.1133 46.2785L29.6919 42.8571H41.6325C43.1203 42.8571 44.3264 41.651 44.3264 40.1632V7.34692C44.3264 5.85913 43.1203 4.65304 41.6325 4.65304H33.7958V6.12243H41.6325Z" fill="#5A6CC0"/>
</g>
</g>
<defs>
<clipPath id="clip0_378_1188">
<rect width="48" height="48" fill="white"/>
</clipPath>
</defs>
</svg>
