<svg width="48" height="48" viewBox="0 0 48 48" fill="none" xmlns="http://www.w3.org/2000/svg">
<g id="icon 40">
<g id="Vector">
<path fill-rule="evenodd" clip-rule="evenodd" d="M21.5511 9.25026C21.8336 9.09292 22.1446 9.06143 22.3883 9.06143H24.9707C25.1972 9.06143 25.5035 9.09602 25.7804 9.25023C26.0903 9.42277 26.3438 9.74233 26.3618 10.1846L26.7351 13.4921C26.7365 13.4926 26.7378 13.493 26.7392 13.4935C27.5817 13.7739 28.3784 14.1122 29.1765 14.564L31.7609 12.5174L31.7625 12.5162C32.3043 12.0846 33.0699 12.0829 33.612 12.519C33.6355 12.5379 33.6578 12.5583 33.6788 12.5799L35.4662 14.4224C35.7658 14.6837 35.898 15.0432 35.9116 15.3687C35.925 15.6879 35.8272 16.0469 35.5736 16.3219L33.4071 19.0319C33.4063 19.033 33.4056 19.0341 33.4049 19.0352C33.8315 19.8501 34.1689 20.6922 34.3504 21.5991L37.7897 21.9748C37.7977 21.9757 37.8056 21.9767 37.8136 21.9779C38.1871 22.0311 38.5205 22.2159 38.728 22.5548C38.9087 22.8499 38.9391 23.1772 38.9391 23.4183V26.0005C38.9391 26.2894 38.878 26.6094 38.6925 26.8884C38.4948 27.1856 38.1912 27.3803 37.8305 27.4404C37.8157 27.4428 37.801 27.4448 37.7861 27.4464L34.1791 27.8228C34.1768 27.8299 34.1743 27.837 34.1718 27.8441C33.9496 28.4561 33.6755 29.0622 33.4151 29.6382L33.3834 29.7082C33.383 29.7092 33.3825 29.7102 33.3821 29.7112L35.5384 32.4086C36.0346 33.0285 35.8491 33.8026 35.483 34.2594C35.4662 34.2804 35.4483 34.3004 35.4293 34.3194L33.6175 36.1323L33.6168 36.133C33.0654 36.6867 32.2573 36.6836 31.7059 36.2431L31.6998 36.2382L29.0518 34.0761C29.0503 34.0764 29.0487 34.0766 29.047 34.077C29.0381 34.0786 29.0272 34.0813 29.0141 34.0853C28.2058 34.54 27.3515 34.8802 26.4608 35.1587L26.0859 38.6587C26.0848 38.6687 26.0835 38.6786 26.0821 38.6886C26.0814 38.6929 26.0808 38.6971 26.08 38.7014C25.9772 39.3174 25.449 39.9186 24.696 39.9186H22.0586C21.3063 39.9186 20.7792 39.3159 20.6767 38.7014C20.6743 38.687 20.6723 38.6725 20.6707 38.6579L20.2939 35.1043C19.4769 34.8687 18.6716 34.5204 17.9317 34.1234L15.3235 36.2432C15.0126 36.4915 14.6387 36.5641 14.3196 36.5386C14.0053 36.5134 13.6672 36.3872 13.4137 36.1341L13.4055 36.1258L11.6192 34.2844C11.0027 33.7532 11.0867 32.9143 11.4905 32.4092L11.4914 32.4081L13.624 29.729C13.6253 29.7271 13.6265 29.7253 13.6277 29.7235C13.3156 29.0968 13.0406 28.4905 12.8156 27.7786C12.8136 27.7757 12.8115 27.7728 12.8092 27.7699L12.8087 27.7693L9.24215 27.3914C9.2263 27.3897 9.2105 27.3875 9.19478 27.3848C8.46889 27.2597 8.01464 26.5775 8.09034 25.8969V23.4135C8.00469 22.6727 8.53633 22.0907 9.19897 21.9805C9.21123 21.9784 9.22354 21.9767 9.23588 21.9753L12.5467 21.5957C12.5568 21.593 12.5664 21.5899 12.5752 21.5866C12.8076 20.6284 13.1491 19.7771 13.593 18.9377L11.4914 16.2976L11.4906 16.2966C11.0123 15.6985 11.1454 14.8955 11.6 14.4411L13.4687 12.5716C14.0024 12.0387 14.8135 12.1112 15.322 12.5163L15.3235 12.5174L17.9067 14.5631C18.7824 14.0474 19.6994 13.7085 20.5782 13.4344C20.5934 13.4296 20.6089 13.4253 20.6244 13.4216L20.9449 10.1631C20.9465 10.1466 20.9487 10.1303 20.9514 10.114C21.0145 9.73637 21.2263 9.43116 21.5511 9.25026ZM33.3427 29.6579L33.3431 29.6587L33.3427 29.6579ZM29.1193 14.606L29.1199 14.6057L29.1193 14.606ZM22.3852 10.5308L22.0775 13.6591C22.0751 13.6833 22.0715 13.7075 22.0667 13.7314C21.9565 14.2819 21.5296 14.7195 20.9858 14.8464C20.141 15.1113 19.3357 15.4178 18.5932 15.8644C18.5775 15.8739 18.5614 15.8827 18.545 15.891C18.3139 16.0074 18.0485 16.057 17.7999 16.0439C17.5707 16.0319 17.2683 15.9601 17.0218 15.7367L14.4323 13.686L12.6834 15.4357L14.7632 18.0485C14.9875 18.2949 15.0596 18.5977 15.0717 18.8274C15.0849 19.0765 15.035 19.3415 14.9195 19.5723C14.9167 19.5778 14.9138 19.5834 14.9109 19.5888C14.4984 20.3628 14.1942 21.1256 13.9908 21.9845C13.8428 22.6825 13.1986 22.9647 12.813 23.0417C12.7931 23.0456 12.773 23.0488 12.7528 23.0511L9.55973 23.4172V25.9457L9.55973 25.9474L12.9932 26.3112C13.3205 26.3261 13.5767 26.4861 13.7375 26.6238C13.9146 26.7753 14.0554 26.9654 14.1502 27.1546C14.1684 27.191 14.1836 27.2289 14.1955 27.2678C14.398 27.9264 14.6523 28.4883 14.9744 29.1315L14.9756 29.1338C15.2443 29.6751 15.0729 30.2469 14.795 30.6168C14.7909 30.6223 14.7867 30.6277 14.7824 30.6331L12.6829 33.2706L14.4316 35.0732L14.433 35.0735L17.0152 32.9749C17.4918 32.5286 18.1773 32.5219 18.6561 32.8445C19.3153 33.196 20.0132 33.494 20.7008 33.6923C21.3263 33.8333 21.6443 34.3461 21.7371 34.8097C21.7416 34.8318 21.745 34.8541 21.7474 34.8765L22.1262 38.4492H24.6305L25.0074 34.9306C25.0098 34.9085 25.0132 34.8864 25.0175 34.8646C25.1099 34.4034 25.4249 33.8937 26.0437 33.7495C26.8758 33.4882 27.6382 33.1788 28.3409 32.7779C28.3703 32.7611 28.4009 32.7463 28.4325 32.7337C28.8572 32.5641 29.4221 32.5155 29.9125 32.8828C29.9208 32.889 29.9289 32.8953 29.9368 32.9018L32.5975 35.0742L34.351 33.3197C34.356 33.3115 34.36 33.3036 34.363 33.2963C34.3635 33.2952 34.3639 33.2941 34.3643 33.2931L32.1949 30.5794C32.1903 30.5737 32.1858 30.5678 32.1814 30.5619C31.9182 30.2116 31.7111 29.6046 32.071 29.0443C32.3303 28.4707 32.5762 27.9262 32.7752 27.3847C32.926 26.7784 33.4311 26.4701 33.8867 26.3792C33.9091 26.3747 33.9316 26.3713 33.9543 26.3689L37.4697 26.002V26.0005V23.4183L34.1156 23.0515C34.0941 23.0492 34.0727 23.0459 34.0515 23.0417C33.5763 22.9468 33.055 22.6157 32.9256 21.9698L32.9239 21.9611C32.7767 21.1772 32.4794 20.4239 32.0653 19.6451C32.0621 19.639 32.0589 19.6329 32.0559 19.6268C31.7873 19.0857 31.9583 18.5139 32.2364 18.1437C32.2408 18.1378 32.2453 18.132 32.2499 18.1262L34.4014 15.435L32.6821 13.6628C32.6811 13.6633 32.6797 13.6641 32.6779 13.6655L32.6755 13.6674L30.0382 15.7559C30.0364 15.7574 30.0345 15.7588 30.0327 15.7603C30.0293 15.7629 30.0259 15.7655 30.0225 15.768C29.6673 16.034 29.0429 16.2472 28.4732 15.8544C27.7737 15.4564 27.0707 15.1545 26.3104 14.8994C25.6969 14.7527 25.3842 14.2454 25.2923 13.7863C25.2882 13.7658 25.285 13.7452 25.2826 13.7244L24.9221 10.5308H22.3883C22.3873 10.5308 22.3863 10.5308 22.3852 10.5308Z" fill="#5A6CC0"/>
<path fill-rule="evenodd" clip-rule="evenodd" d="M23.5103 30.8571C27.0269 30.8571 29.8777 28.0064 29.8777 24.4898C29.8777 20.9732 27.0269 18.1224 23.5103 18.1224C19.9937 18.1224 17.143 20.9732 17.143 24.4898C17.143 28.0064 19.9937 30.8571 23.5103 30.8571ZM23.5103 32.3265C27.8384 32.3265 31.347 28.8179 31.347 24.4898C31.347 20.1617 27.8384 16.6531 23.5103 16.6531C19.1822 16.6531 15.6736 20.1617 15.6736 24.4898C15.6736 28.8179 19.1822 32.3265 23.5103 32.3265Z" fill="#5A6CC0"/>
<path fill-rule="evenodd" clip-rule="evenodd" d="M29.143 4.40816C29.143 4.0024 29.4719 3.67346 29.8777 3.67346C35.2097 3.67346 39.866 6.56184 42.3692 10.8562L45.9411 9.97067L43.5919 18.1224L37.7069 12.0121L40.8759 11.2264C38.5788 7.57068 34.5113 5.14285 29.8777 5.14285C29.4719 5.14285 29.143 4.81392 29.143 4.40816Z" fill="#5A6CC0"/>
<path fill-rule="evenodd" clip-rule="evenodd" d="M18.8572 43.5918C18.8572 43.9976 18.5283 44.3265 18.1226 44.3265C12.7905 44.3265 8.1342 41.4381 5.63097 37.1438L2.05908 38.0293L4.40827 29.8775L10.2933 35.9879L7.12426 36.7736C9.42139 40.4293 13.4889 42.8571 18.1226 42.8571C18.5283 42.8571 18.8572 43.1861 18.8572 43.5918Z" fill="#5A6CC0"/>
<path fill-rule="evenodd" clip-rule="evenodd" d="M27.9943 22.0198L22.5572 28.5799L19.0263 24.3198L20.1576 23.3821L22.5572 26.2773L26.863 21.0822L27.9943 22.0198Z" fill="#5A6CC0"/>
</g>
</g>
</svg>
