<svg width="48" height="48" viewBox="0 0 48 48" fill="none" xmlns="http://www.w3.org/2000/svg">
<g id="icon 36">
<g id="Vector">
<path fill-rule="evenodd" clip-rule="evenodd" d="M40.079 7.42854H7.94737C7.67849 7.42854 7.46053 7.64651 7.46053 7.91539V14.7312C7.46053 15 7.67849 15.218 7.94737 15.218H40.079C40.3478 15.218 40.5658 15.0001 40.5658 14.7312V7.91539C40.5658 7.64651 40.3478 7.42854 40.079 7.42854ZM7.94737 5.96802C6.87187 5.96802 6 6.83988 6 7.91539V14.7312C6 15.8067 6.87187 16.6785 7.94737 16.6785H40.079C41.1545 16.6785 42.0263 15.8067 42.0263 14.7312V7.91539C42.0263 6.83988 41.1545 5.96802 40.079 5.96802H7.94737Z" fill="#5A6CC0"/>
<path fill-rule="evenodd" clip-rule="evenodd" d="M24.9868 20.0864H7.94737C7.67849 20.0864 7.46053 20.3044 7.46053 20.5733V41.0206C7.46053 41.2895 7.67849 41.5075 7.94737 41.5075H24.9868C25.2557 41.5075 25.4737 41.2895 25.4737 41.0206V20.5733C25.4737 20.3044 25.2557 20.0864 24.9868 20.0864ZM7.94737 18.6259C6.87187 18.6259 6 19.4978 6 20.5733V41.0206C6 42.0962 6.87187 42.968 7.94737 42.968H24.9868C26.0623 42.968 26.9342 42.0962 26.9342 41.0206V20.5733C26.9342 19.4978 26.0623 18.6259 24.9868 18.6259H7.94737Z" fill="#5A6CC0"/>
<path fill-rule="evenodd" clip-rule="evenodd" d="M40.079 20.0864H30.8289C30.5601 20.0864 30.3421 20.3044 30.3421 20.5733V23.4943C30.3421 23.7632 30.5601 23.9812 30.8289 23.9812H40.079C40.3478 23.9812 40.5658 23.7632 40.5658 23.4943V20.5733C40.5658 20.3044 40.3478 20.0864 40.079 20.0864ZM30.8289 18.6259C29.7534 18.6259 28.8816 19.4978 28.8816 20.5733V23.4943C28.8816 24.5698 29.7534 25.4417 30.8289 25.4417H40.079C41.1545 25.4417 42.0263 24.5698 42.0263 23.4943V20.5733C42.0263 19.4978 41.1545 18.6259 40.079 18.6259H30.8289Z" fill="#5A6CC0"/>
<path fill-rule="evenodd" clip-rule="evenodd" d="M40.079 28.8496H30.8289C30.5601 28.8496 30.3421 29.0676 30.3421 29.3364V32.2575C30.3421 32.5264 30.5601 32.7443 30.8289 32.7443H40.079C40.3478 32.7443 40.5658 32.5264 40.5658 32.2575V29.3364C40.5658 29.0676 40.3478 28.8496 40.079 28.8496ZM30.8289 27.3891C29.7534 27.3891 28.8816 28.2609 28.8816 29.3364V32.2575C28.8816 33.333 29.7534 34.2049 30.8289 34.2049H40.079C41.1545 34.2049 42.0263 33.333 42.0263 32.2575V29.3364C42.0263 28.2609 41.1545 27.3891 40.079 27.3891H30.8289Z" fill="#5A6CC0"/>
<path fill-rule="evenodd" clip-rule="evenodd" d="M40.079 37.6128H30.8289C30.5601 37.6128 30.3421 37.8307 30.3421 38.0996V41.0206C30.3421 41.2895 30.5601 41.5075 30.8289 41.5075H40.079C40.3478 41.5075 40.5658 41.2895 40.5658 41.0206V38.0996C40.5658 37.8307 40.3478 37.6128 40.079 37.6128ZM30.8289 36.1522C29.7534 36.1522 28.8816 37.0241 28.8816 38.0996V41.0206C28.8816 42.0962 29.7534 42.968 30.8289 42.968H40.079C41.1545 42.968 42.0263 42.0962 42.0263 41.0206V38.0996C42.0263 37.0241 41.1545 36.1522 40.079 36.1522H30.8289Z" fill="#5A6CC0"/>
<path fill-rule="evenodd" clip-rule="evenodd" d="M40.7281 8.38397L7.62282 15.93L7.29823 14.506L40.4035 6.95996L40.7281 8.38397Z" fill="#5A6CC0"/>
<path fill-rule="evenodd" clip-rule="evenodd" d="M7.29823 8.38397L40.4035 15.93L40.7281 14.506L7.62282 6.95996L7.29823 8.38397Z" fill="#5A6CC0"/>
</g>
</g>
</svg>
