<svg width="48" height="48" viewBox="0 0 48 48" fill="none" xmlns="http://www.w3.org/2000/svg">
<g id="icon 22">
<g id="Vector">
<path fill-rule="evenodd" clip-rule="evenodd" d="M24 34.0976C29.5767 34.0976 34.0976 29.5767 34.0976 24C34.0976 18.4233 29.5767 13.9024 24 13.9024C18.4233 13.9024 13.9024 18.4233 13.9024 24C13.9024 29.5767 18.4233 34.0976 24 34.0976ZM24 35.7805C30.5062 35.7805 35.7805 30.5062 35.7805 24C35.7805 17.4938 30.5062 12.2195 24 12.2195C17.4938 12.2195 12.2195 17.4938 12.2195 24C12.2195 30.5062 17.4938 35.7805 24 35.7805Z" fill="#5A6CC0"/>
<path fill-rule="evenodd" clip-rule="evenodd" d="M23.1586 13.061L23.1585 7.17073L24.8415 7.17073L24.8415 13.061L23.1586 13.061Z" fill="#5A6CC0"/>
<path fill-rule="evenodd" clip-rule="evenodd" d="M23.1586 41.6707L23.1585 35.7805L24.8415 35.7805L24.8415 41.6707L23.1586 41.6707Z" fill="#5A6CC0"/>
<path fill-rule="evenodd" clip-rule="evenodd" d="M31.2588 15.2286L35.4238 11.0635L36.6138 12.2535L32.4488 16.4186L31.2588 15.2286Z" fill="#5A6CC0"/>
<path fill-rule="evenodd" clip-rule="evenodd" d="M16.7412 15.2286L12.5762 11.0635L11.3862 12.2535L15.5512 16.4186L16.7412 15.2286Z" fill="#5A6CC0"/>
<path fill-rule="evenodd" clip-rule="evenodd" d="M35.2195 23.1586L41.1098 23.1585L41.1098 24.8415L35.2195 24.8415L35.2195 23.1586Z" fill="#5A6CC0"/>
<path fill-rule="evenodd" clip-rule="evenodd" d="M12.7805 23.1586L6.89025 23.1585L6.89024 24.8415L12.7805 24.8415L12.7805 23.1586Z" fill="#5A6CC0"/>
<path fill-rule="evenodd" clip-rule="evenodd" d="M32.4488 31.2588L36.6138 35.4238L35.4238 36.6138L31.2587 32.4488L32.4488 31.2588Z" fill="#5A6CC0"/>
<path fill-rule="evenodd" clip-rule="evenodd" d="M15.5512 31.2588L11.3862 35.4238L12.5762 36.6138L16.7413 32.4488L15.5512 31.2588Z" fill="#5A6CC0"/>
<path fill-rule="evenodd" clip-rule="evenodd" d="M24 6.04878C24.9295 6.04878 25.6829 5.29531 25.6829 4.36585C25.6829 3.4364 24.9295 2.68293 24 2.68293C23.0705 2.68293 22.3171 3.4364 22.3171 4.36585C22.3171 5.29531 23.0705 6.04878 24 6.04878ZM24 7.73171C25.8589 7.73171 27.3659 6.22476 27.3659 4.36585C27.3659 2.50694 25.8589 1 24 1C22.1411 1 20.6341 2.50694 20.6341 4.36585C20.6341 6.22476 22.1411 7.73171 24 7.73171Z" fill="#5A6CC0"/>
<path fill-rule="evenodd" clip-rule="evenodd" d="M24 45.3171C24.9295 45.3171 25.6829 44.5636 25.6829 43.6341C25.6829 42.7047 24.9295 41.9512 24 41.9512C23.0705 41.9512 22.3171 42.7047 22.3171 43.6341C22.3171 44.5636 23.0705 45.3171 24 45.3171ZM24 47C25.8589 47 27.3659 45.4931 27.3659 43.6341C27.3659 41.7752 25.8589 40.2683 24 40.2683C22.1411 40.2683 20.6341 41.7752 20.6341 43.6341C20.6341 45.4931 22.1411 47 24 47Z" fill="#5A6CC0"/>
<path fill-rule="evenodd" clip-rule="evenodd" d="M38.0244 11.6585C38.9538 11.6585 39.7073 10.9051 39.7073 9.97561C39.7073 9.04615 38.9538 8.29268 38.0244 8.29268C37.0949 8.29268 36.3415 9.04615 36.3415 9.97561C36.3415 10.9051 37.0949 11.6585 38.0244 11.6585ZM38.0244 13.3415C39.8833 13.3415 41.3902 11.8345 41.3902 9.97561C41.3902 8.1167 39.8833 6.60976 38.0244 6.60976C36.1655 6.60976 34.6585 8.1167 34.6585 9.97561C34.6585 11.8345 36.1655 13.3415 38.0244 13.3415Z" fill="#5A6CC0"/>
<path fill-rule="evenodd" clip-rule="evenodd" d="M9.97561 11.6585C9.04615 11.6585 8.29268 10.9051 8.29268 9.97561C8.29268 9.04615 9.04615 8.29268 9.97561 8.29268C10.9051 8.29268 11.6585 9.04615 11.6585 9.97561C11.6585 10.9051 10.9051 11.6585 9.97561 11.6585ZM9.97561 13.3415C8.1167 13.3415 6.60976 11.8345 6.60976 9.97561C6.60976 8.1167 8.1167 6.60976 9.97561 6.60976C11.8345 6.60976 13.3415 8.1167 13.3415 9.97561C13.3415 11.8345 11.8345 13.3415 9.97561 13.3415Z" fill="#5A6CC0"/>
<path fill-rule="evenodd" clip-rule="evenodd" d="M43.6341 25.6829C44.5636 25.6829 45.3171 24.9295 45.3171 24C45.3171 23.0705 44.5636 22.3171 43.6341 22.3171C42.7047 22.3171 41.9512 23.0705 41.9512 24C41.9512 24.9295 42.7047 25.6829 43.6341 25.6829ZM43.6341 27.3659C45.4931 27.3659 47 25.8589 47 24C47 22.1411 45.4931 20.6341 43.6341 20.6341C41.7752 20.6341 40.2683 22.1411 40.2683 24C40.2683 25.8589 41.7752 27.3659 43.6341 27.3659Z" fill="#5A6CC0"/>
<path fill-rule="evenodd" clip-rule="evenodd" d="M4.36585 25.6829C3.4364 25.6829 2.68293 24.9295 2.68293 24C2.68293 23.0705 3.4364 22.3171 4.36585 22.3171C5.29531 22.3171 6.04878 23.0705 6.04878 24C6.04878 24.9295 5.29531 25.6829 4.36585 25.6829ZM4.36585 27.3659C2.50694 27.3659 1 25.8589 1 24C1 22.1411 2.50694 20.6341 4.36585 20.6341C6.22476 20.6341 7.73171 22.1411 7.73171 24C7.73171 25.8589 6.22476 27.3659 4.36585 27.3659Z" fill="#5A6CC0"/>
<path fill-rule="evenodd" clip-rule="evenodd" d="M38.0244 39.7073C38.9538 39.7073 39.7073 38.9538 39.7073 38.0244C39.7073 37.0949 38.9538 36.3415 38.0244 36.3415C37.0949 36.3415 36.3415 37.0949 36.3415 38.0244C36.3415 38.9538 37.0949 39.7073 38.0244 39.7073ZM38.0244 41.3902C39.8833 41.3902 41.3902 39.8833 41.3902 38.0244C41.3902 36.1655 39.8833 34.6585 38.0244 34.6585C36.1655 34.6585 34.6585 36.1655 34.6585 38.0244C34.6585 39.8833 36.1655 41.3902 38.0244 41.3902Z" fill="#5A6CC0"/>
<path fill-rule="evenodd" clip-rule="evenodd" d="M9.97561 39.7073C9.04615 39.7073 8.29268 38.9538 8.29268 38.0244C8.29268 37.0949 9.04615 36.3415 9.97561 36.3415C10.9051 36.3415 11.6585 37.0949 11.6585 38.0244C11.6585 38.9538 10.9051 39.7073 9.97561 39.7073ZM9.97561 41.3902C8.1167 41.3902 6.60976 39.8833 6.60976 38.0244C6.60976 36.1655 8.1167 34.6585 9.97561 34.6585C11.8345 34.6585 13.3415 36.1655 13.3415 38.0244C13.3415 39.8833 11.8345 41.3902 9.97561 41.3902Z" fill="#5A6CC0"/>
<path fill-rule="evenodd" clip-rule="evenodd" d="M33.5366 29.8902L13.9024 29.8902V28.2073L33.5366 28.2073V29.8902Z" fill="#5A6CC0"/>
<path fill-rule="evenodd" clip-rule="evenodd" d="M18.1098 19.7927V29.0488H16.4268V19.5122C16.4268 18.7376 17.0547 18.1098 17.8293 18.1098H23.439C24.2136 18.1098 24.8415 18.7376 24.8415 19.5122V29.0488H23.1585V19.7927H18.1098Z" fill="#5A6CC0"/>
<path fill-rule="evenodd" clip-rule="evenodd" d="M29.8902 21.4756H26.2439V19.7927H30.1707C30.9453 19.7927 31.5732 20.4206 31.5732 21.1951V29.0488H29.8902V21.4756Z" fill="#5A6CC0"/>
<path fill-rule="evenodd" clip-rule="evenodd" d="M19.2317 20.9146H22.0366V22.5976H19.2317V20.9146Z" fill="#5A6CC0"/>
<path fill-rule="evenodd" clip-rule="evenodd" d="M19.2317 23.7195H22.0366V25.4024H19.2317V23.7195Z" fill="#5A6CC0"/>
</g>
</g>
</svg>
