<svg width="48" height="48" viewBox="0 0 48 48" fill="none" xmlns="http://www.w3.org/2000/svg">
<g id="icon 14">
<path id="Vector" d="M29.3185 23.5007L29.4244 22.7582C29.4163 22.7571 29.4082 22.7561 29.4 22.7552L29.3185 23.5007ZM26.4821 23.1908L26.3353 23.9263C26.3569 23.9306 26.3787 23.934 26.4007 23.9364L26.4821 23.1908ZM26.0388 22.7908L25.3016 22.9292L25.3034 22.9381L26.0388 22.7908ZM25.2865 20.7526L24.6148 21.0861C24.6179 21.0924 24.6211 21.0986 24.6244 21.1048L25.2865 20.7526ZM25.3752 20.1755L24.7894 19.7072C24.7847 19.7131 24.7801 19.719 24.7755 19.725L25.3752 20.1755ZM27.1474 17.9587L26.6174 17.428C26.5977 17.4477 26.579 17.4685 26.5615 17.4904L27.1474 17.9587ZM27.103 17.2503L26.5647 17.7726C26.5867 17.7953 26.6102 17.8166 26.6349 17.8363L27.103 17.2503ZM25.6396 15.7419L26.178 15.2197C26.1565 15.1976 26.1338 15.1768 26.1098 15.1575L25.6396 15.7419ZM24.8874 15.7419L25.3531 16.3299L25.3555 16.3279L24.8874 15.7419ZM22.759 17.4274L23.2085 18.0278C23.2139 18.0237 23.2193 18.0196 23.2246 18.0154L22.759 17.4274ZM22.184 17.4717L22.6336 16.8714C22.6091 16.853 22.5835 16.8362 22.557 16.821L22.184 17.4717ZM20.2773 16.6289L20.5142 15.9173C20.4847 15.9075 20.4546 15.8995 20.4242 15.8934L20.2773 16.6289ZM19.8782 16.1862L19.1329 16.2703C19.1353 16.2915 19.1386 16.3126 19.1428 16.3335L19.8782 16.1862ZM19.5678 13.4365H18.8178C18.8178 13.4646 18.8194 13.4927 18.8226 13.5207L19.5678 13.4365ZM16.3783 13.4365L15.6386 13.313C15.6358 13.3297 15.6336 13.3464 15.6319 13.3631L16.3783 13.4365ZM16.1122 16.1419L16.8476 16.2892C16.8525 16.2648 16.8562 16.2401 16.8586 16.2153L16.1122 16.1419ZM15.6689 16.5847L15.522 15.8492C15.4962 15.8543 15.4706 15.8608 15.4455 15.8687L15.6689 16.5847ZM13.5847 17.4717L13.9221 18.1415C13.9388 18.1331 13.9552 18.1241 13.9712 18.1144L13.5847 17.4717ZM13.0098 17.4274L13.5397 16.8967C13.5194 16.8764 13.4979 16.8573 13.4754 16.8395L13.0098 17.4274ZM10.8814 15.7419L10.4133 16.3279L10.4158 16.3299L10.8814 15.7419ZM10.1734 15.7419L9.64352 15.2112L9.64297 15.2117L10.1734 15.7419ZM8.66572 17.2503L9.19563 17.7811L9.19618 17.7805L8.66572 17.2503ZM8.62145 17.9587L9.20825 17.4916L9.20674 17.4897L8.62145 17.9587ZM10.3508 20.1312L9.76401 20.5983C9.78174 20.6206 9.80073 20.6419 9.82089 20.662L10.3508 20.1312ZM10.3952 20.7068L11.057 21.0595C11.06 21.0539 11.0629 21.0483 11.0658 21.0426L10.3952 20.7068ZM9.59695 22.7908L8.86694 22.6187C8.86501 22.6269 8.86321 22.6352 8.86156 22.6435L9.59695 22.7908ZM9.1092 23.1908L9.19462 23.9359C9.21522 23.9336 9.23572 23.9304 9.25606 23.9263L9.1092 23.1908ZM6.4059 23.5007L6.32048 22.7556C6.30787 22.7571 6.29531 22.7588 6.28279 22.7609L6.4059 23.5007ZM6.00679 24.032H6.75679C6.75679 23.9906 6.75337 23.9493 6.74655 23.9085L6.00679 24.032ZM6.00679 26.116L6.74655 26.2395C6.75337 26.1987 6.75679 26.1574 6.75679 26.116H6.00679ZM6.4059 26.6931L6.27852 27.4322C6.29456 27.435 6.31069 27.4372 6.32688 27.4389L6.4059 26.6931ZM9.33094 27.003L9.25192 27.7489C9.27816 27.7516 9.30454 27.753 9.33094 27.753V27.003ZM9.77432 27.3572L10.4912 27.1369C10.479 27.0972 10.4635 27.0585 10.4449 27.0214L9.77432 27.3572ZM10.4395 28.9526L11.1113 28.6192L11.1101 28.6168L10.4395 28.9526ZM10.3508 29.5297L10.9376 29.9968C10.942 29.9913 10.9462 29.9858 10.9505 29.9802L10.3508 29.5297ZM8.62145 31.7023L9.20674 32.1713L9.20825 32.1694L8.62145 31.7023ZM8.66572 32.4107L9.20404 31.8884C9.18199 31.8657 9.15853 31.8444 9.13379 31.8246L8.66572 32.4107ZM10.1291 33.9191L9.59068 34.4414L9.59915 34.4498L10.1291 33.9191ZM10.8814 33.9634L11.3495 34.5494L11.3544 34.5454L10.8814 33.9634ZM13.0098 32.2336L13.4828 32.8156C13.5027 32.7995 13.5217 32.7824 13.5397 32.7643L13.0098 32.2336ZM13.629 32.1893L13.1769 32.7877C13.2076 32.8109 13.24 32.8317 13.2739 32.8499L13.629 32.1893ZM15.4471 32.9435L15.2414 33.6647C15.2608 33.6703 15.2804 33.675 15.3003 33.679L15.4471 32.9435ZM15.8462 33.3862L16.592 33.3072C16.5896 33.2843 16.5861 33.2615 16.5816 33.2389L15.8462 33.3862ZM16.1566 36.313L15.4108 36.3921C15.4124 36.4069 15.4144 36.4218 15.4168 36.4365L16.1566 36.313ZM19.3477 36.313L20.0875 36.4365C20.0899 36.422 20.0919 36.4075 20.0935 36.3929L19.3477 36.313ZM19.6565 33.4305L18.9211 33.2832C18.9166 33.3055 18.9132 33.328 18.9107 33.3506L19.6565 33.4305ZM20.0556 32.9878L20.2024 33.7233C20.2283 33.7181 20.2538 33.7116 20.279 33.7038L20.0556 32.9878ZM22.051 32.145L21.7729 31.4485C21.7407 31.4614 21.7095 31.4764 21.6794 31.4936L22.051 32.145ZM22.6702 32.1893L23.1446 31.6083C23.1365 31.6017 23.1282 31.5952 23.1198 31.5889L22.6702 32.1893ZM24.8431 33.9634L24.3687 34.5443L24.375 34.5494L24.8431 33.9634ZM25.5953 33.9191L25.0648 33.3889L25.0635 33.3902L25.5953 33.9191ZM27.0586 32.4549L27.5891 32.9851C27.6085 32.9657 27.6268 32.9453 27.6439 32.9239L27.0586 32.4549ZM27.103 31.7023L26.5172 32.1706L26.5177 32.1713L27.103 31.7023ZM25.3308 29.4855L24.7312 29.9359C24.7357 29.9419 24.7403 29.9479 24.745 29.9538L25.3308 29.4855ZM25.2865 28.9084L25.8881 29.3562C25.9203 29.313 25.9478 29.2664 25.97 29.2173L25.2865 28.9084ZM25.9058 27.4458L26.6107 27.7017C26.6236 27.6663 26.6337 27.63 26.6411 27.5931L25.9058 27.4458ZM26.3491 27.0473L26.2713 26.3014C26.2481 26.3038 26.2251 26.3073 26.2023 26.3118L26.3491 27.0473ZM29.3185 26.7374L29.3964 27.4833C29.4115 27.4818 29.4266 27.4797 29.4416 27.4772L29.3185 26.7374ZM41.7933 13.3952L41.8992 12.6527C41.8911 12.6516 41.8829 12.6506 41.8748 12.6497L41.7933 13.3952ZM40.3245 13.2347L40.1776 13.9702C40.1992 13.9745 40.2211 13.9779 40.243 13.9803L40.3245 13.2347ZM40.0949 13.0276L39.3577 13.166L39.3595 13.1749L40.0949 13.0276ZM39.7053 11.9721L39.0335 12.3056C39.0366 12.3118 39.0398 12.3181 39.0431 12.3243L39.7053 11.9721ZM39.7512 11.6732L39.1654 11.2049C39.1607 11.2108 39.1561 11.2168 39.1516 11.2228L39.7512 11.6732ZM40.669 10.5253L40.139 9.9945C40.1193 10.0143 40.1006 10.0351 40.0831 10.0569L40.669 10.5253ZM40.646 10.1584L40.1077 10.6806C40.1297 10.7034 40.1532 10.7247 40.1779 10.7444L40.646 10.1584ZM39.8882 9.37727L40.4265 8.85504C40.4051 8.83295 40.3823 8.81219 40.3583 8.79289L39.8882 9.37727ZM39.4986 9.37727L39.9643 9.96524L39.9667 9.96328L39.4986 9.37727ZM38.3964 10.2501L38.8459 10.8505C38.8514 10.8464 38.8567 10.8423 38.862 10.8381L38.3964 10.2501ZM38.0987 10.2731L38.5482 9.67271C38.5237 9.65437 38.4981 9.63755 38.4716 9.62233L38.0987 10.2731ZM37.1113 9.83662L37.3481 9.12499C37.3186 9.11519 37.2886 9.10722 37.2581 9.10114L37.1113 9.83662ZM36.9046 9.60735L36.1593 9.69147C36.1617 9.71267 36.165 9.73375 36.1692 9.75466L36.9046 9.60735ZM36.7439 8.18342H35.9939C35.9939 8.21152 35.9954 8.23961 35.9986 8.26754L36.7439 8.18342ZM35.0921 8.18342L34.3524 8.05993C34.3496 8.07654 34.3474 8.09324 34.3457 8.11L35.0921 8.18342ZM34.9543 9.58442L35.6897 9.73173C35.6946 9.7073 35.6983 9.68264 35.7007 9.65784L34.9543 9.58442ZM34.7247 9.81369L34.5779 9.07821C34.552 9.08337 34.5265 9.08988 34.5013 9.09773L34.7247 9.81369ZM33.6454 10.2731L33.9828 10.9429C33.9995 10.9345 34.0159 10.9254 34.032 10.9158L33.6454 10.2731ZM33.3477 10.2501L33.8776 9.71938C33.8573 9.69909 33.8359 9.67999 33.8133 9.66216L33.3477 10.2501ZM32.2455 9.37727L31.7774 9.96328L31.7799 9.96523L32.2455 9.37727ZM31.8789 9.37727L31.349 8.84652L31.3484 8.84706L31.8789 9.37727ZM31.0981 10.1584L31.628 10.6892L31.6286 10.6886L31.0981 10.1584ZM31.0752 10.5253L31.662 10.0582L31.6605 10.0563L31.0752 10.5253ZM31.9707 11.6503L31.3839 12.1174C31.4017 12.1397 31.4207 12.1609 31.4408 12.1811L31.9707 11.6503ZM31.9937 11.9484L32.6556 12.3011C32.6586 12.2955 32.6615 12.2899 32.6643 12.2842L31.9937 11.9484ZM31.5804 13.0276L30.8503 12.8555C30.8484 12.8637 30.8466 12.872 30.845 12.8803L31.5804 13.0276ZM31.3278 13.2347L31.4132 13.9799C31.4338 13.9775 31.4543 13.9743 31.4746 13.9702L31.3278 13.2347ZM29.9278 13.3952L29.8424 12.6501C29.8298 12.6516 29.8173 12.6533 29.8047 12.6554L29.9278 13.3952ZM29.7212 13.6704H30.4712C30.4712 13.629 30.4677 13.5877 30.4609 13.5469L29.7212 13.6704ZM29.7212 14.7496L30.4609 14.873C30.4677 14.8322 30.4712 14.7909 30.4712 14.7496H29.7212ZM29.9278 15.0484L29.8005 15.7875C29.8165 15.7903 29.8326 15.7925 29.8488 15.7943L29.9278 15.0484ZM31.4426 15.2089L31.3636 15.9547C31.3898 15.9575 31.4162 15.9589 31.4426 15.9589V15.2089ZM31.6722 15.3923L32.3891 15.172C32.3769 15.1323 32.3614 15.0937 32.3428 15.0565L31.6722 15.3923ZM32.0167 16.2185L32.6885 15.8851L32.6873 15.8827L32.0167 16.2185ZM31.9707 16.5174L32.5575 16.9845C32.5619 16.979 32.5662 16.9735 32.5704 16.9679L31.9707 16.5174ZM31.0752 17.6425L31.6605 18.1114L31.662 18.1096L31.0752 17.6425ZM31.0981 18.0093L31.6364 17.4871C31.6144 17.4644 31.5909 17.443 31.5662 17.4233L31.0981 18.0093ZM31.8559 18.7905L31.3175 19.3127L31.326 19.3212L31.8559 18.7905ZM32.2455 18.8134L32.7136 19.3994L32.7185 19.3954L32.2455 18.8134ZM33.3477 17.9176L33.8208 18.4996C33.8406 18.4835 33.8596 18.4664 33.8776 18.4483L33.3477 17.9176ZM33.6684 17.8947L33.2163 18.4931C33.247 18.5162 33.2794 18.537 33.3133 18.5553L33.6684 17.8947ZM34.6099 18.2852L34.4042 19.0065C34.4236 19.012 34.4432 19.0168 34.463 19.0207L34.6099 18.2852ZM34.8166 18.5145L35.5624 18.4354C35.56 18.4125 35.5565 18.3898 35.552 18.3672L34.8166 18.5145ZM34.9773 20.0302L34.2315 20.1092C34.2331 20.1241 34.2351 20.1389 34.2376 20.1536L34.9773 20.0302ZM36.6299 20.0302L37.3696 20.1536C37.3721 20.1392 37.374 20.1246 37.3756 20.11L36.6299 20.0302ZM36.7898 18.5374L36.0544 18.3901C36.0499 18.4124 36.0464 18.4349 36.044 18.4576L36.7898 18.5374ZM36.9964 18.3082L37.1433 19.0437C37.1691 19.0385 37.1947 19.032 37.2198 19.0241L36.9964 18.3082ZM38.0298 17.8717L37.7516 17.1752C37.7195 17.1881 37.6882 17.2031 37.6581 17.2203L38.0298 17.8717ZM38.3505 17.8947L38.8248 17.3137C38.8167 17.3071 38.8084 17.3006 38.8 17.2943L38.3505 17.8947ZM39.4757 18.8134L39.0013 19.3944L39.0076 19.3994L39.4757 18.8134ZM39.8652 18.7905L39.3347 18.2603L39.3334 18.2616L39.8652 18.7905ZM40.623 18.0322L41.1535 18.5624C41.1729 18.543 41.1912 18.5226 41.2083 18.5012L40.623 18.0322ZM40.646 17.6425L40.0602 18.1108L40.0607 18.1114L40.646 17.6425ZM39.7283 16.4945L39.1286 16.9449C39.1331 16.9509 39.1377 16.9569 39.1424 16.9628L39.7283 16.4945ZM39.7053 16.1956L40.3069 16.6435C40.3391 16.6003 40.3665 16.5537 40.3887 16.5045L39.7053 16.1956ZM40.026 15.4382L40.731 15.6941C40.7438 15.6587 40.754 15.6224 40.7614 15.5855L40.026 15.4382ZM40.2556 15.2319L40.1777 14.4859C40.1546 14.4883 40.1316 14.4918 40.1087 14.4964L40.2556 15.2319ZM41.7933 15.0714L41.8712 15.8173C41.8863 15.8157 41.9014 15.8137 41.9164 15.8112L41.7933 15.0714ZM35.5403 37.3303C35.8332 37.6232 36.308 37.6232 36.6009 37.3303L41.3739 32.5574C41.6668 32.2645 41.6668 31.7896 41.3739 31.4967C41.081 31.2038 40.6061 31.2038 40.3132 31.4967L36.0706 35.7393L31.8279 31.4967C31.5351 31.2038 31.0602 31.2038 30.7673 31.4967C30.4744 31.7896 30.4744 32.2645 30.7673 32.5574L35.5403 37.3303ZM30.9882 40.0912H40.7294V38.5912H30.9882V40.0912ZM29.4 22.7552L26.5636 22.4453L26.4007 23.9364L29.2371 24.2463L29.4 22.7552ZM26.629 22.4553C26.6202 22.4536 26.6456 22.4564 26.6833 22.4889C26.7028 22.5057 26.7234 22.5287 26.7408 22.5581C26.7584 22.5878 26.769 22.6175 26.7741 22.6435L25.3034 22.9381C25.4237 23.5388 25.9089 23.8412 26.3353 23.9263L26.629 22.4553ZM26.7759 22.6523C26.6249 21.8482 26.3258 21.1096 25.9487 20.4005L24.6244 21.1048C24.9536 21.7239 25.1866 22.3166 25.3016 22.9292L26.7759 22.6523ZM25.9583 20.4192C25.9933 20.4896 25.9932 20.5526 25.9875 20.5866C25.9823 20.6181 25.9727 20.6289 25.9748 20.626L24.7755 19.725C24.5269 20.056 24.3641 20.5811 24.6148 21.0861L25.9583 20.4192ZM25.961 20.6438L27.7332 18.427L26.5615 17.4904L24.7894 19.7072L25.961 20.6438ZM27.6773 18.4895C27.9391 18.228 28.0369 17.8784 28.0242 17.5732C28.0111 17.2606 27.8786 16.9099 27.5711 16.6643L26.6349 17.8363C26.5491 17.7678 26.5274 17.6828 26.5255 17.6358C26.5238 17.5963 26.5329 17.5123 26.6174 17.428L27.6773 18.4895ZM27.6413 16.7281L26.178 15.2197L25.1013 16.2641L26.5647 17.7726L27.6413 16.7281ZM26.1098 15.1575C25.6141 14.7588 24.9138 14.7609 24.4194 15.1559L25.3555 16.3279C25.3045 16.3687 25.2249 16.3708 25.1695 16.3263L26.1098 15.1575ZM24.4218 15.1539L22.2934 16.8395L23.2246 18.0154L25.3531 16.3299L24.4218 15.1539ZM22.3094 16.8271C22.3029 16.832 22.3271 16.8106 22.3885 16.8038C22.4214 16.8001 22.4637 16.8011 22.5108 16.8132C22.5587 16.8255 22.6007 16.8467 22.6336 16.8714L21.7345 18.072C22.2808 18.4811 22.8836 18.2711 23.2085 18.0278L22.3094 16.8271ZM22.557 16.821C21.8866 16.4368 21.2191 16.1519 20.5142 15.9173L20.0405 17.3406C20.6658 17.5487 21.2399 17.7951 21.8111 18.1224L22.557 16.821ZM20.4242 15.8934C20.45 15.8986 20.48 15.9092 20.5101 15.927C20.5399 15.9447 20.5633 15.9656 20.5803 15.9854C20.6131 16.0236 20.6156 16.0491 20.6136 16.0389L19.1428 16.3335C19.2276 16.7568 19.5272 17.2439 20.1305 17.3644L20.4242 15.8934ZM20.6235 16.1021L20.3131 13.3524L18.8226 13.5207L19.1329 16.2703L20.6235 16.1021ZM20.3178 13.4365C20.3178 12.9935 20.0691 12.6727 19.7672 12.5046C19.5108 12.3618 19.2333 12.3324 19.0373 12.3324V13.8324C19.0639 13.8324 19.08 13.8347 19.0852 13.8358C19.0919 13.8371 19.072 13.8344 19.0375 13.8151C19.0006 13.7946 18.9396 13.7507 18.889 13.6708C18.8357 13.5868 18.8178 13.5007 18.8178 13.4365H20.3178ZM19.0373 12.3324H16.9532V13.8324H19.0373V12.3324ZM16.9532 12.3324C16.7454 12.3324 16.4631 12.3586 16.2011 12.5046C15.8958 12.6746 15.6971 12.9627 15.6386 13.313L17.1181 13.56C17.1134 13.5882 17.0987 13.6401 17.0592 13.6971C17.0191 13.7547 16.9707 13.7929 16.9309 13.8151C16.8948 13.8352 16.8729 13.8383 16.8798 13.8369C16.8865 13.8356 16.9093 13.8324 16.9532 13.8324V12.3324ZM15.6319 13.3631L15.3658 16.0685L16.8586 16.2153L17.1247 13.51L15.6319 13.3631ZM15.3768 15.9946C15.3921 15.9186 15.4473 15.8641 15.522 15.8492L15.8157 17.3201C16.3339 17.2167 16.7437 16.808 16.8476 16.2892L15.3768 15.9946ZM15.4455 15.8687C14.7121 16.0975 13.9376 16.3842 13.1981 16.829L13.9712 18.1144C14.562 17.7591 15.2067 17.5145 15.8922 17.3006L15.4455 15.8687ZM13.2473 16.8019C13.2842 16.7833 13.3049 16.7828 13.3206 16.7836C13.3323 16.7842 13.3576 16.7869 13.393 16.8001C13.4287 16.8134 13.4842 16.8412 13.5397 16.8967L12.4799 17.9582C12.7204 18.1983 13.0232 18.27 13.2418 18.2815C13.4677 18.2934 13.7093 18.2487 13.9221 18.1415L13.2473 16.8019ZM13.4754 16.8395L11.347 15.1539L10.4158 16.3299L12.5442 18.0154L13.4754 16.8395ZM11.3494 15.1559C10.8892 14.7883 10.1419 14.7136 9.64352 15.2112L10.7033 16.2727C10.6336 16.3423 10.5556 16.3591 10.5108 16.3591C10.4663 16.3591 10.4342 16.3446 10.4133 16.3279L11.3494 15.1559ZM9.64297 15.2117L8.13526 16.7201L9.19618 17.7805L10.7039 16.2721L9.64297 15.2117ZM8.13581 16.7196C7.71803 17.1367 7.59364 17.8754 8.03616 18.4277L9.20674 17.4897C9.24896 17.5424 9.2619 17.605 9.25774 17.6529C9.25412 17.6945 9.2369 17.7399 9.19563 17.7811L8.13581 16.7196ZM8.03466 18.4258L9.76401 20.5983L10.9376 19.6641L9.20824 17.4916L8.03466 18.4258ZM9.82089 20.662C9.7653 20.6065 9.73726 20.5509 9.72379 20.5149C9.71047 20.4792 9.70779 20.4537 9.70717 20.4419C9.70632 20.4258 9.70699 20.406 9.72456 20.371L11.0658 21.0426C11.172 20.8305 11.217 20.5893 11.2051 20.3629C11.1935 20.1439 11.1215 19.8409 10.8807 19.6005L9.82089 20.662ZM9.73328 20.3541C9.35245 21.0687 9.0611 21.7949 8.86694 22.6187L10.3269 22.9628C10.4875 22.2814 10.7284 21.6762 11.057 21.0595L9.73328 20.3541ZM8.86156 22.6435C8.88346 22.5341 8.94607 22.4749 8.9683 22.4582C8.98597 22.4449 8.98484 22.4508 8.96233 22.4553L9.25606 23.9263C9.59371 23.8589 10.1991 23.603 10.3323 22.9381L8.86156 22.6435ZM9.02378 22.4457L6.32048 22.7556L6.49132 24.2459L9.19462 23.9359L9.02378 22.4457ZM6.28279 22.7609C5.65537 22.8653 5.14681 23.4353 5.26703 24.1555L6.74655 23.9085C6.7583 23.9789 6.74057 24.0673 6.68535 24.1394C6.63342 24.2072 6.56987 24.2338 6.52901 24.2406L6.28279 22.7609ZM5.25679 24.032V26.116H6.75679V24.032H5.25679ZM5.26703 25.9925C5.15882 26.6407 5.58178 27.3121 6.27852 27.4322L6.53328 25.954C6.61727 25.9685 6.6768 26.0165 6.70897 26.0635C6.74022 26.1092 6.758 26.1709 6.74655 26.2395L5.26703 25.9925ZM6.32688 27.4389L9.25192 27.7489L9.40996 26.2572L6.48492 25.9473L6.32688 27.4389ZM9.33094 27.753C9.24965 27.753 9.1889 27.7328 9.15426 27.7172C9.12025 27.7018 9.10241 27.6871 9.09819 27.6835C9.09329 27.6793 9.09402 27.6791 9.09768 27.6839C9.0992 27.6859 9.10067 27.688 9.10191 27.69C9.10317 27.692 9.10375 27.6931 9.10371 27.693L10.4449 27.0214C10.3599 26.8516 10.2338 26.6811 10.0736 26.5439C9.92182 26.414 9.6657 26.253 9.33094 26.253V27.753ZM9.05741 27.5775C9.2525 28.2123 9.49514 28.7418 9.76893 29.2885L11.1101 28.6168C10.8518 28.1009 10.6509 27.6564 10.4912 27.1369L9.05741 27.5775ZM9.76774 29.2861C9.73272 29.2155 9.73284 29.1525 9.73852 29.1184C9.74376 29.087 9.7534 29.0763 9.75114 29.0793L10.9505 29.9802C11.1989 29.6495 11.3621 29.1244 11.1113 28.6192L9.76774 29.2861ZM9.764 29.0627L8.03466 31.2352L9.20825 32.1694L10.9376 29.9968L9.764 29.0627ZM8.03616 31.2333C7.66099 31.7015 7.58009 32.5034 8.19765 32.9967L9.13379 31.8246C9.20134 31.8786 9.23987 31.9633 9.24322 32.0406C9.24616 32.1083 9.22293 32.1511 9.20674 32.1713L8.03616 31.2333ZM8.1274 32.9329L9.59074 34.4413L10.6674 33.3969L9.20404 31.8884L8.1274 32.9329ZM9.59915 34.4498C9.83444 34.6848 10.1445 34.7989 10.4287 34.8216C10.7179 34.8448 11.0614 34.7794 11.3494 34.5494L10.4133 33.3773C10.4796 33.3244 10.5357 33.3254 10.5485 33.3264C10.5581 33.3272 10.5699 33.3295 10.5849 33.3359C10.5995 33.3422 10.6273 33.3567 10.659 33.3883L9.59915 34.4498ZM11.3544 34.5454L13.4828 32.8156L12.5368 31.6515L10.4084 33.3813L11.3544 34.5454ZM13.5397 32.7643C13.435 32.8689 13.2794 32.8652 13.1769 32.7877L14.0812 31.5909C13.627 31.2478 12.9394 31.244 12.4799 31.7028L13.5397 32.7643ZM13.2739 32.8499C13.8875 33.1798 14.5586 33.47 15.2414 33.6647L15.6529 32.2223C15.094 32.0629 14.5234 31.8186 13.9842 31.5287L13.2739 32.8499ZM15.3003 33.679C15.2744 33.6738 15.2444 33.6632 15.2143 33.6454C15.1846 33.6278 15.1612 33.6069 15.1441 33.587C15.1113 33.5488 15.1088 33.5234 15.1108 33.5336L16.5816 33.2389C16.4968 32.8156 16.1973 32.3285 15.594 32.208L15.3003 33.679ZM15.1004 33.4653L15.4108 36.3921L16.9024 36.2339L16.592 33.3072L15.1004 33.4653ZM15.4168 36.4365C15.5098 36.9934 15.9891 37.55 16.6871 37.55V36.05C16.7707 36.05 16.8275 36.0857 16.8535 36.1101C16.8775 36.1328 16.8913 36.1589 16.8964 36.1895L15.4168 36.4365ZM16.6871 37.55H18.8156V36.05H16.6871V37.55ZM18.8156 37.55C19.5138 37.55 19.9943 36.995 20.0875 36.4365L18.608 36.1895C18.6131 36.1588 18.627 36.1324 18.6512 36.1096C18.6776 36.0848 18.7339 36.05 18.8156 36.05V37.55ZM20.0935 36.3929L20.4022 33.5104L18.9107 33.3506L18.602 36.2331L20.0935 36.3929ZM20.3919 33.5778C20.3939 33.5677 20.3913 33.5931 20.3586 33.6313C20.3415 33.6511 20.3181 33.672 20.2884 33.6897C20.2583 33.7075 20.2283 33.7181 20.2024 33.7233L19.9087 32.2523C19.3055 32.3728 19.0059 32.8599 18.9211 33.2832L20.3919 33.5778ZM20.279 33.7038C21.0244 33.4712 21.7426 33.1845 22.4227 32.7965L21.6794 31.4936C21.1179 31.8139 20.5057 32.0617 19.8322 32.2718L20.279 33.7038ZM22.3292 32.8415C22.3635 32.8278 22.3647 32.8345 22.3378 32.8331C22.3233 32.8323 22.3033 32.8293 22.2804 32.8212C22.2572 32.813 22.2368 32.8017 22.2207 32.7896L23.1198 31.5889C22.6661 31.2492 22.1478 31.2988 21.7729 31.4485L22.3292 32.8415ZM22.1959 32.7702L24.3687 34.5443L25.3174 33.3824L23.1446 31.6083L22.1959 32.7702ZM24.375 34.5494C24.8794 34.9522 25.6225 34.9553 26.1271 34.4479L25.0635 33.3902C25.0827 33.3709 25.1273 33.3438 25.1885 33.3413C25.2454 33.3389 25.2879 33.3588 25.3111 33.3773L24.375 34.5494ZM26.1258 34.4493L27.5891 32.9851L26.5281 31.9247L25.0648 33.3889L26.1258 34.4493ZM27.6439 32.9239C27.9707 32.516 28.1485 31.8077 27.6883 31.2333L26.5177 32.1713C26.4979 32.1466 26.4828 32.117 26.4742 32.0864C26.4658 32.0568 26.4651 32.0324 26.4664 32.0162C26.4689 31.9873 26.4774 31.9809 26.4733 31.986L27.6439 32.9239ZM27.6888 31.234L25.9166 29.0172L24.745 29.9538L26.5172 32.1706L27.6888 31.234ZM25.9305 29.035C25.9264 29.0296 25.9476 29.054 25.9543 29.1148C25.958 29.1474 25.957 29.1891 25.9451 29.2354C25.933 29.2825 25.9123 29.3238 25.8881 29.3562L24.685 28.4605C24.2786 29.0063 24.4853 29.6087 24.7312 29.9359L25.9305 29.035ZM25.97 29.2173C26.187 28.7371 26.4217 28.2225 26.6107 27.7017L25.2008 27.1898C25.0351 27.6462 24.8263 28.1056 24.6031 28.5994L25.97 29.2173ZM26.6411 27.5931C26.6359 27.6192 26.6252 27.6494 26.6072 27.6796C26.5894 27.7095 26.5685 27.7329 26.5486 27.7499C26.5105 27.7826 26.4853 27.7849 26.496 27.7828L26.2023 26.3118C25.7798 26.3962 25.2913 26.6946 25.1704 27.2984L26.6411 27.5931ZM26.427 27.7933L29.3964 27.4833L29.2407 25.9914L26.2713 26.3014L26.427 27.7933ZM29.4416 27.4772C29.7747 27.4218 30.0581 27.2407 30.2423 26.9638C30.4141 26.7055 30.4676 26.4142 30.4676 26.1603H28.9676C28.9676 26.2163 28.9546 26.1913 28.9934 26.1331C29.0143 26.1016 29.046 26.0679 29.0885 26.0407C29.1307 26.0136 29.1698 26.0018 29.1954 25.9976L29.4416 27.4772ZM30.4676 26.1603V24.0763H28.9676V26.1603H30.4676ZM30.4676 24.0763C30.4676 23.8712 30.4425 23.5723 30.2742 23.2973C30.0785 22.9778 29.7646 22.8068 29.4244 22.7582L29.2126 24.2432C29.2087 24.2427 29.171 24.2365 29.1202 24.2054C29.0663 24.1724 29.0233 24.1269 28.9948 24.0805C28.9818 24.0592 28.974 24.0413 28.9696 24.0292C28.9673 24.0232 28.9659 24.0185 28.9651 24.0154C28.9642 24.0124 28.9639 24.0107 28.9639 24.0107C28.9638 24.0106 28.9641 24.012 28.9645 24.0149C28.9649 24.0178 28.9654 24.022 28.9659 24.0277C28.9669 24.0392 28.9676 24.0552 28.9676 24.0763H30.4676ZM17.84 28.4256C15.8618 28.4256 14.2476 26.8106 14.2476 24.8305H12.7476C12.7476 27.6381 15.0324 29.9256 17.84 29.9256V28.4256ZM14.2476 24.8305C14.2476 22.8503 15.8618 21.2354 17.84 21.2354V19.7354C15.0324 19.7354 12.7476 22.0228 12.7476 24.8305H14.2476ZM17.84 21.2354C19.8186 21.2354 21.434 22.8507 21.434 24.8305H22.934C22.934 22.0225 20.6473 19.7354 17.84 19.7354V21.2354ZM21.434 24.8305C21.434 26.8103 19.8186 28.4256 17.84 28.4256V29.9256C20.6473 29.9256 22.934 27.6385 22.934 24.8305H21.434ZM41.8748 12.6497L40.4059 12.4892L40.243 13.9803L41.7119 14.1408L41.8748 12.6497ZM40.4713 12.4993C40.516 12.5082 40.5895 12.5326 40.6646 12.5972C40.7461 12.6674 40.8077 12.7674 40.8303 12.8803L39.3595 13.1749C39.4584 13.6689 39.8581 13.9064 40.1776 13.9702L40.4713 12.4993ZM40.832 12.8891C40.7451 12.4266 40.5743 12.0089 40.3675 11.62L39.0431 12.3243C39.2021 12.6232 39.3068 12.8949 39.3577 13.166L40.832 12.8891ZM40.3771 11.6387C40.4932 11.8724 40.3976 12.0615 40.3509 12.1237L39.1516 11.2228C38.9671 11.4684 38.8256 11.8867 39.0335 12.3056L40.3771 11.6387ZM40.337 12.1416L41.2548 10.9936L40.0831 10.0569L39.1654 11.2049L40.337 12.1416ZM41.1989 11.056C41.418 10.8372 41.4944 10.5517 41.4843 10.3105C41.4739 10.062 41.3681 9.77533 41.114 9.57241L40.1779 10.7444C40.0387 10.6332 39.9903 10.4841 39.9856 10.3731C39.9813 10.2695 40.0118 10.1216 40.139 9.9945L41.1989 11.056ZM41.1843 9.6362L40.4265 8.85504L39.3499 9.89949L40.1077 10.6806L41.1843 9.6362ZM40.3583 8.79289C39.9688 8.47956 39.4181 8.48168 39.0306 8.79125L39.9667 9.96328C39.8088 10.0894 39.5796 10.0916 39.4181 9.96164L40.3583 8.79289ZM39.033 8.7893L37.9308 9.66216L38.862 10.8381L39.9643 9.96523L39.033 8.7893ZM37.9469 9.64979C37.9831 9.62268 38.0552 9.57996 38.1645 9.56779C38.2874 9.5541 38.4298 9.58402 38.5482 9.67271L37.6491 10.8734C38.1099 11.2185 38.6065 11.0298 38.8459 10.8505L37.9469 9.64979ZM38.4716 9.62233C38.1005 9.4097 37.7324 9.25288 37.3481 9.12499L36.8744 10.5482C37.1791 10.6496 37.4538 10.7679 37.7258 10.9238L38.4716 9.62233ZM37.2581 9.10114C37.3711 9.1237 37.4719 9.18552 37.5425 9.26781C37.6074 9.34336 37.6313 9.41684 37.64 9.46004L36.1692 9.75466C36.2326 10.0713 36.468 10.473 36.9644 10.5721L37.2581 9.10114ZM37.6498 9.52322L37.4891 8.09929L35.9986 8.26754L36.1593 9.69147L37.6498 9.52322ZM37.4939 8.18342C37.4939 7.80443 37.277 7.52627 37.023 7.38486C36.8145 7.26878 36.601 7.25 36.4691 7.25V8.75C36.4637 8.75 36.4478 8.74969 36.423 8.74473C36.3997 8.74007 36.3518 8.72799 36.2933 8.69538C36.2324 8.6615 36.1515 8.60027 36.0869 8.4984C36.0197 8.39239 35.9939 8.27955 35.9939 8.18342H37.4939ZM36.4691 7.25H35.3898V8.75H36.4691V7.25ZM35.3898 7.25C35.2569 7.25 35.0386 7.26562 34.8244 7.38489C34.567 7.52822 34.4002 7.77364 34.3524 8.05993L35.8319 8.3069C35.8219 8.36714 35.7965 8.44568 35.7417 8.52465C35.6863 8.60429 35.618 8.65987 35.5542 8.69536C35.443 8.75731 35.362 8.75 35.3898 8.75V7.25ZM34.3457 8.11L34.2079 9.51101L35.7007 9.65784L35.8385 8.25683L34.3457 8.11ZM34.2189 9.43711C34.2556 9.25439 34.3963 9.11448 34.5779 9.07821L34.8716 10.5492C35.2828 10.4671 35.6072 10.1437 35.6897 9.73173L34.2189 9.43711ZM34.5013 9.09773C34.11 9.21983 33.6777 9.37847 33.2589 9.63034L34.032 10.9158C34.3021 10.7533 34.6046 10.6368 34.9481 10.5297L34.5013 9.09773ZM33.308 9.60323C33.3873 9.56328 33.4613 9.55212 33.5277 9.55562C33.5867 9.55872 33.7381 9.58005 33.8776 9.71938L32.8178 10.7809C33.0263 10.989 33.281 11.0447 33.4488 11.0535C33.6241 11.0628 33.8125 11.0287 33.9828 10.9429L33.308 9.60323ZM33.8133 9.66216L32.7111 8.7893L31.7799 9.96523L32.8821 10.8381L33.8133 9.66216ZM32.7136 8.79125C32.3602 8.50903 31.7618 8.43434 31.349 8.84652L32.4088 9.90802C32.1797 10.1368 31.9011 10.0621 31.7774 9.96328L32.7136 8.79125ZM31.3484 8.84706L30.5677 9.62822L31.6286 10.6886L32.4093 9.90747L31.3484 8.84706ZM30.5682 9.62767C30.2359 9.9594 30.1329 10.5487 30.4899 10.9942L31.6605 10.0563C31.8338 10.2725 31.7766 10.5409 31.628 10.6892L30.5682 9.62767ZM30.4884 10.9923L31.3839 12.1174L32.5575 11.1832L31.662 10.0582L30.4884 10.9923ZM31.4408 12.1811C31.301 12.0415 31.2795 11.8897 31.2763 11.8303C31.2728 11.7635 31.2842 11.6903 31.3231 11.6125L32.6643 12.2842C32.7492 12.1147 32.7835 11.9269 32.7742 11.7512C32.7654 11.5829 32.7094 11.3279 32.5007 11.1196L31.4408 12.1811ZM31.3318 11.5956C31.122 11.9893 30.959 12.3945 30.8503 12.8555L32.3104 13.1996C32.3854 12.8811 32.498 12.5969 32.6556 12.3011L31.3318 11.5956ZM30.845 12.8803C30.8776 12.7175 30.9722 12.6155 31.0372 12.5665C31.0976 12.521 31.15 12.5054 31.1809 12.4993L31.4746 13.9702C31.7054 13.9241 32.2039 13.733 32.3157 13.1749L30.845 12.8803ZM31.2423 12.4896L29.8424 12.6501L30.0133 14.1404L31.4132 13.9799L31.2423 12.4896ZM29.8047 12.6554C29.3056 12.7385 28.8826 13.2017 28.9814 13.7938L30.4609 13.5469C30.4834 13.6813 30.4496 13.8284 30.3596 13.9459C30.273 14.059 30.1559 14.1176 30.051 14.1351L29.8047 12.6554ZM28.9712 13.6704V14.7496H30.4712V13.6704H28.9712ZM28.9814 14.6261C28.8946 15.1462 29.232 15.6896 29.8005 15.7875L30.0552 14.3093C30.3481 14.3598 30.5018 14.628 30.4609 14.873L28.9814 14.6261ZM29.8488 15.7943L31.3636 15.9547L31.5216 14.4631L30.0069 14.3026L29.8488 15.7943ZM31.4426 15.9589C31.2425 15.9589 31.1209 15.8651 31.0869 15.836C31.0445 15.7997 31.0193 15.7635 31.0016 15.7282L32.3428 15.0565C32.2792 14.9295 32.1851 14.8016 32.0623 14.6965C31.948 14.5986 31.7346 14.4589 31.4426 14.4589V15.9589ZM30.9553 15.6127C31.0649 15.9692 31.2006 16.2638 31.3461 16.5544L32.6873 15.8827C32.5572 15.623 32.4632 15.4132 32.3891 15.172L30.9553 15.6127ZM31.3449 16.552C31.2287 16.318 31.3246 16.1289 31.3711 16.0669L32.5704 16.9679C32.7547 16.7225 32.8965 16.3042 32.6885 15.8851L31.3449 16.552ZM31.3839 16.0503L30.4884 17.1754L31.662 18.1096L32.5575 16.9845L31.3839 16.0503ZM30.4899 17.1735C30.2002 17.535 30.1194 18.1874 30.63 18.5953L31.5662 17.4233C31.6872 17.5199 31.7524 17.6634 31.7584 17.802C31.764 17.931 31.7194 18.0379 31.6605 18.1114L30.4899 17.1735ZM30.5598 18.5315L31.3176 19.3127L32.3942 18.2682L31.6364 17.4871L30.5598 18.5315ZM31.326 19.3212C31.5185 19.5134 31.7646 19.6009 31.9822 19.6183C32.2047 19.6361 32.479 19.5867 32.7136 19.3994L31.7774 18.2274C31.8972 18.1317 32.0226 18.1167 32.102 18.1231C32.1765 18.1291 32.2851 18.1592 32.3858 18.2597L31.326 19.3212ZM32.7185 19.3954L33.8208 18.4996L32.8747 17.3356L31.7725 18.2313L32.7185 19.3954ZM33.8776 18.4483C33.6874 18.6383 33.4036 18.6346 33.2163 18.4931L34.1205 17.2963C33.7512 17.0172 33.1918 17.0134 32.8178 17.3868L33.8776 18.4483ZM33.3133 18.5553C33.649 18.7357 34.0207 18.8971 34.4042 19.0065L34.8156 17.564C34.5561 17.49 34.2849 17.3746 34.0235 17.2341L33.3133 18.5553ZM34.463 19.0207C34.35 18.9982 34.2493 18.9363 34.1787 18.8541C34.1138 18.7785 34.0899 18.705 34.0812 18.6618L35.552 18.3672C35.4886 18.0506 35.2531 17.6489 34.7568 17.5498L34.463 19.0207ZM34.0708 18.5936L34.2315 20.1092L35.7231 19.9511L35.5624 18.4354L34.0708 18.5936ZM34.2376 20.1536C34.3091 20.5825 34.6816 21.0324 35.252 21.0324V19.5324C35.3994 19.5324 35.5148 19.5947 35.5861 19.6619C35.6555 19.7272 35.7013 19.812 35.7171 19.9067L34.2376 20.1536ZM35.252 21.0324H36.3543V19.5324H35.252V21.0324ZM36.3543 21.0324C36.9242 21.0324 37.2978 20.584 37.3696 20.1536L35.8901 19.9067C35.9059 19.8119 35.9519 19.7268 36.0216 19.6613C36.0934 19.5938 36.2084 19.5324 36.3543 19.5324V21.0324ZM37.3756 20.11L37.5355 18.6173L36.044 18.4576L35.8841 19.9503L37.3756 20.11ZM37.5251 18.6848C37.5165 18.728 37.4926 18.8014 37.4277 18.877C37.357 18.9593 37.2563 19.0211 37.1433 19.0437L36.8496 17.5727C36.3532 17.6718 36.1178 18.0735 36.0544 18.3901L37.5251 18.6848ZM37.2198 19.0241C37.6232 18.8983 38.0207 18.7404 38.4015 18.5232L37.6581 17.2203C37.396 17.3699 37.1045 17.4888 36.773 17.5922L37.2198 19.0241ZM38.308 18.5682C38.2888 18.5759 38.2367 18.5933 38.1592 18.5892C38.0744 18.5847 37.9811 18.5551 37.9009 18.495L38.8 17.2943C38.4318 17.0186 38.0196 17.0682 37.7516 17.1752L38.308 18.5682ZM37.8761 18.4756L39.0013 19.3943L39.95 18.2324L38.8248 17.3137L37.8761 18.4756ZM39.0076 19.3994C39.4051 19.7169 39.9986 19.7199 40.397 19.3193L39.3334 18.2616C39.4057 18.1889 39.5142 18.1352 39.6395 18.1299C39.7604 18.1249 39.867 18.1661 39.9437 18.2274L39.0076 19.3994ZM40.3957 19.3206L41.1535 18.5624L40.0925 17.502L39.3347 18.2603L40.3957 19.3206ZM41.2083 18.5012C41.4496 18.2 41.606 17.6411 41.2313 17.1735L40.0607 18.1114C39.9732 18.0023 39.9476 17.8752 39.956 17.7749C39.9637 17.682 39.999 17.6116 40.0377 17.5633L41.2083 18.5012ZM41.2318 17.1742L40.3141 16.0262L39.1424 16.9628L40.0602 18.1108L41.2318 17.1742ZM40.3279 16.044C40.3559 16.0813 40.3985 16.1537 40.4105 16.2627C40.4241 16.3848 40.3944 16.5259 40.3069 16.6435L39.1038 15.7477C38.7615 16.2074 38.9469 16.7031 39.1286 16.9449L40.3279 16.044ZM40.3887 16.5045C40.4997 16.2591 40.6274 15.9793 40.731 15.6941L39.321 15.1823C39.2408 15.4031 39.139 15.6277 39.0219 15.8867L40.3887 16.5045ZM40.7614 15.5855C40.7386 15.6991 40.6764 15.7999 40.594 15.8704C40.5185 15.9351 40.4452 15.9588 40.4025 15.9673L40.1087 14.4964C39.7931 14.5594 39.3902 14.7938 39.2906 15.2909L40.7614 15.5855ZM40.3334 15.9778L41.8712 15.8173L41.7155 14.3254L40.1777 14.4859L40.3334 15.9778ZM41.9164 15.8112C42.1853 15.7664 42.4207 15.6176 42.5728 15.3889C42.7125 15.1788 42.75 14.9517 42.75 14.7725H41.25C41.25 14.7538 41.253 14.6646 41.3238 14.5582C41.4071 14.433 41.5391 14.3534 41.6702 14.3315L41.9164 15.8112ZM42.75 14.7725V13.6933H41.25V14.7725H42.75ZM42.75 13.6933C42.75 13.5629 42.7355 13.328 42.5966 13.1011C42.4304 12.8296 42.1646 12.6906 41.8992 12.6527L41.6874 14.1377C41.646 14.1318 41.5776 14.115 41.5018 14.0685C41.4228 14.0202 41.3604 13.9547 41.3173 13.8842C41.2415 13.7605 41.25 13.6632 41.25 13.6933H42.75ZM35.8491 15.584C35.0246 15.584 34.3503 14.9098 34.3503 14.0839H32.8503C32.8503 15.7373 34.1952 17.084 35.8491 17.084V15.584ZM34.3503 14.0839C34.3503 13.2579 35.0246 12.5837 35.8491 12.5837V11.0837C34.1952 11.0837 32.8503 12.4304 32.8503 14.0839H34.3503ZM35.8491 12.5837C36.674 12.5837 37.3487 13.2582 37.3487 14.0839H38.8487C38.8487 12.4301 37.5026 11.0837 35.8491 11.0837V12.5837ZM37.3487 14.0839C37.3487 14.9095 36.674 15.584 35.8491 15.584V17.084C37.5026 17.084 38.8487 15.7376 38.8487 14.0839H37.3487ZM35.3206 24.9412V36.8H36.8206V24.9412H35.3206Z" fill="#5A6CC0"/>
</g>
</svg>
