<svg width="48" height="48" viewBox="0 0 48 48" fill="none" xmlns="http://www.w3.org/2000/svg">
<g id="icon 25">
<g id="Vector">
<path fill-rule="evenodd" clip-rule="evenodd" d="M23.7073 8.19512C25.4854 8.19512 26.9268 6.7537 26.9268 4.97561C26.9268 3.19752 25.4854 1.7561 23.7073 1.7561C21.9292 1.7561 20.4878 3.19752 20.4878 4.97561C20.4878 6.7537 21.9292 8.19512 23.7073 8.19512ZM23.7073 9.95122C26.4553 9.95122 28.6829 7.72356 28.6829 4.97561C28.6829 2.22766 26.4553 0 23.7073 0C20.9594 0 18.7317 2.22766 18.7317 4.97561C18.7317 7.72356 20.9594 9.95122 23.7073 9.95122Z" fill="#5A6CC0"/>
<path fill-rule="evenodd" clip-rule="evenodd" d="M14.6341 16.0976C10.9163 16.0976 7.90244 19.1115 7.90244 22.8293H6.14634C6.14634 18.1416 9.94646 14.3415 14.6341 14.3415V16.0976Z" fill="#5A6CC0"/>
<path fill-rule="evenodd" clip-rule="evenodd" d="M33.3659 16.0976C37.0837 16.0976 40.0976 19.1115 40.0976 22.8293H41.8537C41.8537 18.1416 38.0535 14.3415 33.3659 14.3415V16.0976Z" fill="#5A6CC0"/>
<path fill-rule="evenodd" clip-rule="evenodd" d="M28.8726 43.3942C26.2438 46.0231 21.9815 46.0231 19.3526 43.3942L18.1108 44.6359C21.4255 47.9506 26.7997 47.9506 30.1144 44.6359L28.8726 43.3942Z" fill="#5A6CC0"/>
<path fill-rule="evenodd" clip-rule="evenodd" d="M27.5122 12.2927H20.4878C18.8714 12.2927 17.561 13.6031 17.561 15.2195V18.1463H30.439V15.2195C30.439 13.6031 29.1286 12.2927 27.5122 12.2927ZM20.4878 10.5366C17.9015 10.5366 15.8049 12.6332 15.8049 15.2195V19.9024H32.1951V15.2195C32.1951 12.6332 30.0985 10.5366 27.5122 10.5366H20.4878Z" fill="#5A6CC0"/>
<path fill-rule="evenodd" clip-rule="evenodd" d="M7.90244 31.6098C9.68053 31.6098 11.122 30.1683 11.122 28.3902C11.122 26.6122 9.68053 25.1707 7.90244 25.1707C6.12435 25.1707 4.68293 26.6122 4.68293 28.3902C4.68293 30.1683 6.12435 31.6098 7.90244 31.6098ZM7.90244 33.3659C10.6504 33.3659 12.878 31.1382 12.878 28.3902C12.878 25.6423 10.6504 23.4146 7.90244 23.4146C5.15449 23.4146 2.92683 25.6423 2.92683 28.3902C2.92683 31.1382 5.15449 33.3659 7.90244 33.3659Z" fill="#5A6CC0"/>
<path fill-rule="evenodd" clip-rule="evenodd" d="M11.7073 35.7073H4.68293C3.06648 35.7073 1.7561 37.0177 1.7561 38.6341V41.561H14.6341V38.6341C14.6341 37.0177 13.3238 35.7073 11.7073 35.7073ZM4.68293 33.9512C2.09662 33.9512 0 36.0478 0 38.6341V43.3171H16.3902V38.6341C16.3902 36.0478 14.2936 33.9512 11.7073 33.9512H4.68293Z" fill="#5A6CC0"/>
<path fill-rule="evenodd" clip-rule="evenodd" d="M39.5122 31.6098C41.2903 31.6098 42.7317 30.1683 42.7317 28.3902C42.7317 26.6122 41.2903 25.1707 39.5122 25.1707C37.7341 25.1707 36.2927 26.6122 36.2927 28.3902C36.2927 30.1683 37.7341 31.6098 39.5122 31.6098ZM39.5122 33.3659C42.2601 33.3659 44.4878 31.1382 44.4878 28.3902C44.4878 25.6423 42.2601 23.4146 39.5122 23.4146C36.7642 23.4146 34.5366 25.6423 34.5366 28.3902C34.5366 31.1382 36.7642 33.3659 39.5122 33.3659Z" fill="#5A6CC0"/>
<path fill-rule="evenodd" clip-rule="evenodd" d="M43.3171 35.7073H36.2927C34.6762 35.7073 33.3659 37.0177 33.3659 38.6341V41.561H46.2439V38.6341C46.2439 37.0177 44.9335 35.7073 43.3171 35.7073ZM36.2927 33.9512C33.7064 33.9512 31.6098 36.0478 31.6098 38.6341V43.3171H48V38.6341C48 36.0478 45.9034 33.9512 43.3171 33.9512H36.2927Z" fill="#5A6CC0"/>
<path fill-rule="evenodd" clip-rule="evenodd" d="M30.7781 29.8429L29.028 29.6517C28.8912 29.6244 28.7818 29.5415 28.7545 29.4049C28.6724 28.9678 28.5082 28.5571 28.2903 28.1473C28.2356 28.0371 28.2629 27.9005 28.345 27.7912L29.4385 26.4234C29.5479 26.3141 29.5479 26.0956 29.4111 25.9863L28.5082 25.0556C28.3724 24.9464 28.1809 24.9464 28.0441 25.0556L26.7308 26.0956C26.6213 26.1776 26.4855 26.2049 26.376 26.1229C25.993 25.9034 25.61 25.7395 25.1996 25.6029C25.0628 25.5756 24.9807 25.4663 24.9533 25.3298L24.7618 23.6332C24.7618 23.4693 24.5986 23.4146 24.4344 23.4146H23.1485C22.957 23.4146 22.8212 23.4693 22.7938 23.6332L22.6296 25.3024C22.6023 25.439 22.4929 25.5483 22.3561 25.5756C21.9183 25.7122 21.4805 25.8761 21.0701 26.1229C20.9616 26.1776 20.7975 26.1776 20.7154 26.0956L19.4021 25.0556C19.2653 24.9464 19.0748 24.9464 18.9653 25.0556L18.035 25.9863C17.9256 26.0956 17.8983 26.2868 18.0077 26.4234L19.0748 27.7639C19.1568 27.8458 19.1568 28.0098 19.1021 28.119C18.8832 28.5298 18.7191 28.9405 18.6096 29.4049C18.5823 29.5415 18.4455 29.6244 18.3087 29.6517L16.6407 29.8429C16.4765 29.8703 16.3671 30.0068 16.3944 30.1707V31.4566C16.3671 31.6205 16.4765 31.7844 16.6407 31.8127L18.4455 32.0039C18.5549 32.0039 18.6643 32.1132 18.7191 32.2224C18.8285 32.5785 18.9653 32.879 19.1295 33.2068C19.1842 33.3171 19.1568 33.4537 19.0748 33.5629L18.0077 34.9034C17.8983 35.04 17.8982 35.2312 18.035 35.3405L18.9379 36.2712C19.0474 36.3805 19.2653 36.4078 19.4021 36.2985L20.7154 35.2312C20.8249 35.122 20.989 35.122 21.0975 35.2039C21.4532 35.3951 21.8362 35.56 22.2193 35.6693C22.3561 35.6966 22.4382 35.8059 22.4655 35.9424L22.657 37.7483C22.6844 37.9122 22.8211 38.0488 22.9843 38.0488H24.2977C24.4618 38.0488 24.5986 37.9122 24.626 37.7483L24.8165 35.9698C24.8439 35.8332 24.926 35.7239 25.0628 35.6966C25.5005 35.56 25.9109 35.3951 26.294 35.1766C26.4308 35.122 26.5666 35.122 26.676 35.2039L28.0167 36.2985C28.1535 36.4078 28.345 36.4078 28.4808 36.2712L29.3837 35.3678C29.4932 35.2312 29.5205 35.04 29.4111 34.9034L28.3176 33.5356C28.2356 33.4263 28.2083 33.2898 28.2903 33.1795C28.4262 32.879 28.563 32.5785 28.6724 32.2771C28.6998 32.1405 28.8092 32.0585 28.946 32.0312L30.7781 31.84C30.9423 31.8127 31.0244 31.6751 31.0244 31.4839V30.1981C31.0244 30.0068 30.9697 29.8703 30.7781 29.8429ZM23.6957 33.3444C22.2192 33.3444 21.0164 32.1405 21.0164 30.6634C21.0164 29.1863 22.2192 27.9824 23.6957 27.9824C25.1722 27.9824 26.376 29.1863 26.376 30.6634C26.376 32.1405 25.1722 33.3444 23.6957 33.3444Z" fill="#5A6CC0"/>
</g>
</g>
</svg>
