<svg width="48" height="48" viewBox="0 0 48 48" fill="none" xmlns="http://www.w3.org/2000/svg">
<g id="icon 8">
<g id="Vector">
<path fill-rule="evenodd" clip-rule="evenodd" d="M43.1022 3.42862H4.89815C4.62764 3.42862 4.40835 3.64791 4.40835 3.91841V12.7347C4.40835 13.0052 4.62764 13.2245 4.89815 13.2245H43.1022C43.3727 13.2245 43.592 13.0052 43.592 12.7347V3.91841C43.592 3.64791 43.3727 3.42862 43.1022 3.42862ZM4.89815 1.95923C3.81612 1.95923 2.93896 2.83638 2.93896 3.91841V12.7347C2.93896 13.8168 3.81612 14.6939 4.89815 14.6939H43.1022C44.1843 14.6939 45.0614 13.8168 45.0614 12.7347V3.91841C45.0614 2.83638 44.1843 1.95923 43.1022 1.95923H4.89815Z" fill="#5A6CC0"/>
<path fill-rule="evenodd" clip-rule="evenodd" d="M43.1022 32.8164H4.89815C4.62764 32.8164 4.40835 33.0357 4.40835 33.3062V42.1225C4.40835 42.393 4.62764 42.6123 4.89815 42.6123H43.1022C43.3727 42.6123 43.592 42.393 43.592 42.1225V33.3062C43.592 33.0357 43.3727 32.8164 43.1022 32.8164ZM4.89815 31.347C3.81612 31.347 2.93896 32.2241 2.93896 33.3062V42.1225C2.93896 43.2045 3.81612 44.0817 4.89815 44.0817H43.1022C44.1843 44.0817 45.0614 43.2045 45.0614 42.1225V33.3062C45.0614 32.2241 44.1843 31.347 43.1022 31.347H4.89815Z" fill="#5A6CC0"/>
<path fill-rule="evenodd" clip-rule="evenodd" d="M43.1022 18.1225H4.89815C4.62764 18.1225 4.40835 18.3418 4.40835 18.6123V27.4286C4.40835 27.6991 4.62764 27.9184 4.89815 27.9184H43.1022C43.3727 27.9184 43.592 27.6991 43.592 27.4286V18.6123C43.592 18.3418 43.3727 18.1225 43.1022 18.1225ZM4.89815 16.6531C3.81612 16.6531 2.93896 17.5303 2.93896 18.6123V27.4286C2.93896 28.5106 3.81612 29.3878 4.89815 29.3878H43.1022C44.1843 29.3878 45.0614 28.5106 45.0614 27.4286V18.6123C45.0614 17.5303 44.1843 16.6531 43.1022 16.6531H4.89815Z" fill="#5A6CC0"/>
<path d="M8.81652 10.2858C8.81652 11.0973 8.15865 11.7551 7.34713 11.7551C6.53561 11.7551 5.87774 11.0973 5.87774 10.2858C5.87774 9.47424 6.53561 8.81637 7.34713 8.81637C8.15865 8.81637 8.81652 9.47424 8.81652 10.2858Z" fill="#5A6CC0"/>
<path fill-rule="evenodd" clip-rule="evenodd" d="M41.6328 11.7551H28.8981V10.2858H41.6328V11.7551Z" fill="#5A6CC0"/>
<path fill-rule="evenodd" clip-rule="evenodd" d="M41.6328 26.449H28.8981V24.9796H41.6328V26.449Z" fill="#5A6CC0"/>
<path fill-rule="evenodd" clip-rule="evenodd" d="M41.6328 41.1429H28.8981V39.6735H41.6328V41.1429Z" fill="#5A6CC0"/>
<path fill-rule="evenodd" clip-rule="evenodd" d="M41.6328 8.81637H28.8981V7.34698H41.6328V8.81637Z" fill="#5A6CC0"/>
<path fill-rule="evenodd" clip-rule="evenodd" d="M41.6328 23.5102H28.8981V22.0409H41.6328V23.5102Z" fill="#5A6CC0"/>
<path fill-rule="evenodd" clip-rule="evenodd" d="M41.6328 38.2041H28.8981V36.7347H41.6328V38.2041Z" fill="#5A6CC0"/>
<path d="M8.81652 24.9796C8.81652 25.7912 8.15865 26.449 7.34713 26.449C6.53561 26.449 5.87774 25.7912 5.87774 24.9796C5.87774 24.1681 6.53561 23.5102 7.34713 23.5102C8.15865 23.5102 8.81652 24.1681 8.81652 24.9796Z" fill="#5A6CC0"/>
<path d="M8.81652 39.6735C8.81652 40.485 8.15865 41.1429 7.34713 41.1429C6.53561 41.1429 5.87774 40.485 5.87774 39.6735C5.87774 38.862 6.53561 38.2041 7.34713 38.2041C8.15865 38.2041 8.81652 38.862 8.81652 39.6735Z" fill="#5A6CC0"/>
</g>
</g>
</svg>
