<svg width="48" height="48" viewBox="0 0 48 48" fill="none" xmlns="http://www.w3.org/2000/svg">
<g id="icon 7">
<g id="Vector">
<path fill-rule="evenodd" clip-rule="evenodd" d="M23.768 24.6118C24.0104 24.3694 24.4034 24.3694 24.6458 24.6118L28.5958 28.5619C28.8382 28.8043 28.8382 29.1973 28.5958 29.4397C28.3534 29.682 27.9604 29.682 27.7181 29.4397L24.8276 26.5492V41.6024H23.5862V26.5492L20.6957 29.4397C20.4534 29.682 20.0604 29.682 19.818 29.4397C19.5756 29.1973 19.5756 28.8043 19.818 28.5619L23.768 24.6118Z" fill="#5A6CC0"/>
<path d="M32.5556 7.71411L26.1123 18.8208C25.9624 19.0408 25.8764 19.298 25.8637 19.564C25.851 19.8299 25.9122 20.0942 26.0405 20.3274C26.1689 20.5607 26.3592 20.7539 26.5906 20.8856C26.822 21.0173 27.0853 21.0824 27.3514 21.0737H40.2491C40.5152 21.0824 40.7785 21.0173 41.0099 20.8856C41.2413 20.7539 41.4317 20.5607 41.56 20.3274C41.6883 20.0942 41.7495 19.8299 41.7368 19.564C41.7242 19.298 41.6381 19.0408 41.4882 18.8208L35.045 7.71411C34.9179 7.49677 34.7361 7.31649 34.5178 7.19121C34.2994 7.06592 34.052 7 33.8003 7C33.5485 7 33.3011 7.06592 33.0828 7.19121C32.8644 7.31649 32.6826 7.49677 32.5556 7.71411Z" fill="#5A6CC0"/>
<path fill-rule="evenodd" clip-rule="evenodd" d="M18.4625 15.5753C19.1368 14.4736 20.1076 13.5367 21.2846 12.874C22.4616 12.2113 23.779 11.8599 25.0945 11.8412C25.7024 11.8326 26.3099 11.895 26.903 12.0306L27.274 10.8328C26.8609 10.7384 26.4419 10.6741 26.0203 10.6395C25.6999 10.6132 25.378 10.6041 25.0562 10.6118C23.5384 10.6482 22.0216 11.0606 20.6636 11.8252C19.3056 12.5898 18.1811 13.6646 17.3898 14.9282C17.0013 15.5487 16.6931 16.2147 16.4772 16.9118C16.3302 17.3863 16.229 17.8565 16.1726 18.3276C16.1696 18.3532 16.1666 18.3789 16.1638 18.4045C16.1449 18.5777 16.132 18.7511 16.1251 18.9249C16.1175 19.1171 16.1172 19.3097 16.1241 19.5033C16.1248 19.5219 16.1255 19.5406 16.1263 19.5593L16.8143 19.5405L17.4286 18.8768C17.4557 18.3159 17.5545 17.752 17.7264 17.1973C17.9025 16.6287 18.1509 16.0844 18.4625 15.5753Z" fill="#5A6CC0"/>
<path fill-rule="evenodd" clip-rule="evenodd" d="M39.7222 24.7931C40.2107 25.8533 40.4702 27.0102 40.4702 28.1929C40.4702 30.4114 39.5573 32.539 37.9323 34.1077C36.3074 35.6764 34.1035 36.5576 31.8055 36.5576H27.5172V38.0345H31.8055C34.5092 38.0345 37.1022 36.9976 39.0141 35.152C40.9259 33.3063 42 30.8031 42 28.1929C42 26.5854 41.5926 24.9495 40.833 23.5517H39.0141C39.2867 23.9463 39.5234 24.3617 39.7222 24.7931Z" fill="#5A6CC0"/>
<path fill-rule="evenodd" clip-rule="evenodd" d="M14.2288 38.0106C12.697 37.8922 11.2157 37.3375 9.93299 36.3957C8.4777 35.3272 7.34343 33.8085 6.67363 32.0316C6.00383 30.2548 5.82858 28.2996 6.17004 26.4133C6.51151 24.527 7.35434 22.7943 8.59197 21.4344C9.82959 20.0744 11.4064 19.1483 13.1231 18.7731C14.0554 18.5693 15.0032 18.533 15.9345 18.6602C16.4061 18.7247 16.8735 18.8311 17.3324 18.979L16.2888 20.1032C15.3277 19.8997 14.335 19.9009 13.3656 20.1128C11.8901 20.4353 10.5348 21.2313 9.47098 22.4003C8.40721 23.5692 7.68277 25.0584 7.38928 26.6798C7.09578 28.3011 7.24641 29.9816 7.82212 31.5089C8.39783 33.0361 9.37277 34.3415 10.6236 35.2599C11.8745 36.1783 13.3451 36.6685 14.8495 36.6685H21.3197V38.0345H14.8495C14.642 38.0345 14.4349 38.0265 14.2288 38.0106Z" fill="#5A6CC0"/>
</g>
</g>
</svg>
