<svg width="48" height="48" viewBox="0 0 48 48" fill="none" xmlns="http://www.w3.org/2000/svg">
<g id="icon 13">
<g id="Vector">
<path fill-rule="evenodd" clip-rule="evenodd" d="M18.9652 22.0436L15.2908 28.0531C15.0914 28.3792 14.7367 28.5781 14.3544 28.5781H6.43902V27.2611H14.2313L18.0637 20.9931C18.5291 20.232 19.66 20.3146 20.0098 21.1353L24.2546 31.0943L29.2231 23.7617C29.6681 23.1051 30.6413 23.1227 31.0621 23.7951L33.2316 27.2611H42V28.5781H33.11C32.7318 28.5781 32.3803 28.3835 32.1796 28.0629L30.1245 24.7795L25.1192 32.1664C24.6318 32.8857 23.5415 32.7803 23.2009 31.9811L18.9652 22.0436Z" fill="#5A6CC0"/>
<path fill-rule="evenodd" clip-rule="evenodd" d="M40.2439 8.31707H7.7561C7.51363 8.31707 7.31707 8.51363 7.31707 8.7561V39.4878C7.31707 39.7303 7.51363 39.9268 7.7561 39.9268H40.2439C40.4864 39.9268 40.6829 39.7303 40.6829 39.4878V8.7561C40.6829 8.51363 40.4864 8.31707 40.2439 8.31707ZM7.7561 7C6.78623 7 6 7.78623 6 8.7561V39.4878C6 40.4577 6.78623 41.2439 7.7561 41.2439H40.2439C41.2138 41.2439 42 40.4577 42 39.4878V8.7561C42 7.78623 41.2138 7 40.2439 7H7.7561Z" fill="#5A6CC0"/>
<path fill-rule="evenodd" clip-rule="evenodd" d="M41.3415 14.6829H6.87805V13.3659H41.3415V14.6829Z" fill="#5A6CC0"/>
<path d="M11.7073 10.9512C11.7073 11.6786 11.1176 12.2683 10.3902 12.2683C9.66284 12.2683 9.07317 11.6786 9.07317 10.9512C9.07317 10.2238 9.66284 9.63415 10.3902 9.63415C11.1176 9.63415 11.7073 10.2238 11.7073 10.9512Z" fill="#5A6CC0"/>
</g>
</g>
</svg>
