<svg width="48" height="48" viewBox="0 0 48 48" fill="none" xmlns="http://www.w3.org/2000/svg">
<g id="icon 39">
<g id="Vector">
<path fill-rule="evenodd" clip-rule="evenodd" d="M10.4371 10.2096C9.82531 10.2096 9.32934 10.7056 9.32934 11.3174V40.5629C9.32934 41.1747 9.82531 41.6707 10.4371 41.6707H35.2515C35.8633 41.6707 36.3593 41.1747 36.3593 40.5629V18.4072H37.6886V40.5629C37.6886 41.9089 36.5975 43 35.2515 43H10.4371C9.09114 43 8 41.9089 8 40.5629V11.3174C8 9.97138 9.09114 8.88024 10.4371 8.88024H26.1677V10.2096H10.4371Z" fill="#5A6CC0"/>
<path fill-rule="evenodd" clip-rule="evenodd" d="M31.9281 20.1796C35.4767 20.1796 38.3533 17.303 38.3533 13.7545C38.3533 10.206 35.4767 7.32934 31.9281 7.32934C28.3796 7.32934 25.503 10.206 25.503 13.7545C25.503 17.303 28.3796 20.1796 31.9281 20.1796ZM31.9281 21.509C36.2108 21.509 39.6826 18.0372 39.6826 13.7545C39.6826 9.4718 36.2108 6 31.9281 6C27.6455 6 24.1737 9.4718 24.1737 13.7545C24.1737 18.0372 27.6455 21.509 31.9281 21.509Z" fill="#5A6CC0"/>
<path fill-rule="evenodd" clip-rule="evenodd" d="M27.2754 33.2515C27.2754 33.6186 26.9779 33.9162 26.6108 33.9162H12.4311C12.0641 33.9162 11.7665 33.6186 11.7665 33.2515C11.7665 32.8844 12.0641 32.5868 12.4311 32.5868H26.6108C26.9779 32.5868 27.2754 32.8844 27.2754 33.2515Z" fill="#5A6CC0"/>
<path fill-rule="evenodd" clip-rule="evenodd" d="M33.9222 36.7964C33.9222 37.1635 33.6246 37.4611 33.2575 37.4611H12.4311C12.0641 37.4611 11.7665 37.1635 11.7665 36.7964C11.7665 36.4293 12.0641 36.1317 12.4311 36.1317H33.2575C33.6246 36.1317 33.9222 36.4293 33.9222 36.7964Z" fill="#5A6CC0"/>
<path fill-rule="evenodd" clip-rule="evenodd" d="M33.9222 33.2515C33.9222 33.6186 33.6246 33.9162 33.2575 33.9162H29.2695C28.9024 33.9162 28.6048 33.6186 28.6048 33.2515C28.6048 32.8844 28.9024 32.5868 29.2695 32.5868H33.2575C33.6246 32.5868 33.9222 32.8844 33.9222 33.2515Z" fill="#5A6CC0"/>
<path fill-rule="evenodd" clip-rule="evenodd" d="M13.0958 25.497V29.0419H32.5928V25.497H13.0958ZM12.6527 24.1677C12.1632 24.1677 11.7665 24.5644 11.7665 25.0539V29.485C11.7665 29.9745 12.1632 30.3713 12.6527 30.3713H33.0359C33.5254 30.3713 33.9222 29.9745 33.9222 29.485V25.0539C33.9222 24.5644 33.5254 24.1677 33.0359 24.1677H12.6527Z" fill="#5A6CC0"/>
<path fill-rule="evenodd" clip-rule="evenodd" d="M35.9961 13.2432L34.9892 13.1332C34.9105 13.1174 34.8476 13.0697 34.8318 12.9912C34.7846 12.7397 34.6902 12.5034 34.5648 12.2677C34.5333 12.2042 34.549 12.1257 34.5963 12.0628L35.2253 11.2759C35.2883 11.213 35.2883 11.0873 35.2096 11.0244L34.6901 10.489C34.612 10.4261 34.5018 10.4261 34.4231 10.489L33.6676 11.0873C33.6046 11.1344 33.5265 11.1502 33.4635 11.103C33.2431 10.9767 33.0228 10.8824 32.7867 10.8039C32.7079 10.7881 32.6607 10.7253 32.645 10.6467L32.5348 9.67064C32.5348 9.57634 32.4409 9.54491 32.3465 9.54491H31.6067C31.4965 9.54491 31.4184 9.57634 31.4026 9.67064L31.3082 10.631C31.2924 10.7096 31.2295 10.7724 31.1508 10.7881C30.8989 10.8667 30.647 10.961 30.4109 11.103C30.3485 11.1344 30.2541 11.1344 30.2069 11.0873L29.4513 10.489C29.3726 10.4261 29.263 10.4261 29.2 10.489L28.6648 11.0244C28.6019 11.0873 28.5861 11.1973 28.6491 11.2759L29.263 12.0471C29.3102 12.0942 29.3102 12.1885 29.2787 12.2514C29.1528 12.4877 29.0584 12.724 28.9954 12.9912C28.9796 13.0697 28.901 13.1174 28.8223 13.1332L27.8626 13.2432C27.7682 13.2589 27.7052 13.3375 27.721 13.4318V14.1715C27.7052 14.2658 27.7682 14.3601 27.8626 14.3764L28.901 14.4864C28.9639 14.4864 29.0269 14.5493 29.0583 14.6121C29.1213 14.817 29.2 14.9899 29.2945 15.1785C29.326 15.2419 29.3102 15.3205 29.263 15.3833L28.6491 16.1545C28.5861 16.2331 28.5861 16.3431 28.6648 16.406L29.1843 16.9414C29.2472 17.0043 29.3726 17.02 29.4513 16.9571L30.2069 16.3431C30.2698 16.2802 30.3643 16.2802 30.4267 16.3274C30.6313 16.4374 30.8517 16.5323 31.0721 16.5951C31.1508 16.6108 31.198 16.6737 31.2137 16.7523L31.3239 17.7912C31.3396 17.8855 31.4183 17.9641 31.5122 17.9641H32.2678C32.3622 17.9641 32.4409 17.8855 32.4567 17.7912L32.5663 16.768C32.582 16.6894 32.6292 16.6265 32.7079 16.6108C32.9598 16.5323 33.1959 16.4374 33.4163 16.3117C33.495 16.2802 33.5731 16.2802 33.6361 16.3274L34.4074 16.9571C34.4861 17.02 34.5963 17.02 34.6744 16.9414L35.1938 16.4217C35.2568 16.3431 35.2726 16.2331 35.2096 16.1545L34.5805 15.3676C34.5333 15.3047 34.5176 15.2262 34.5648 15.1627C34.6429 14.9899 34.7216 14.817 34.7846 14.6436C34.8003 14.565 34.8633 14.5178 34.942 14.5021L35.9961 14.3921C36.0905 14.3764 36.1377 14.2972 36.1377 14.1872V13.4475C36.1377 13.3375 36.1062 13.2589 35.9961 13.2432ZM31.9215 15.2576C31.072 15.2576 30.38 14.565 30.38 13.7152C30.38 12.8654 31.072 12.1728 31.9215 12.1728C32.7709 12.1728 33.4635 12.8654 33.4635 13.7152C33.4635 14.565 32.7709 15.2576 31.9215 15.2576Z" fill="#5A6CC0"/>
</g>
</g>
</svg>
