<svg width="48" height="48" viewBox="0 0 48 48" fill="none" xmlns="http://www.w3.org/2000/svg">
<path fill-rule="evenodd" clip-rule="evenodd" d="M9.04639 7.96717C9.17906 7.74543 9.41846 7.60968 9.67686 7.60968H20.0537C20.316 7.60968 20.5584 7.74952 20.6897 7.97658L25.7899 16.796C25.9215 17.0235 25.9215 17.304 25.7899 17.5316L20.6897 26.3509C20.5584 26.578 20.316 26.7178 20.0537 26.7178H9.67686C9.41846 26.7178 9.17906 26.5821 9.04639 26.3603L3.76975 17.541C3.63079 17.3087 3.63079 17.0188 3.76975 16.7865L9.04639 7.96717ZM10.0934 9.07907L5.25637 17.1638L10.0934 25.2484H19.6298L24.3052 17.1638L19.6298 9.07907H10.0934Z" fill="white"/>
<path fill-rule="evenodd" clip-rule="evenodd" d="M27.6769 18.3478C27.8088 18.1232 28.0498 17.9853 28.3103 17.9853H38.7743C39.0386 17.9853 39.2826 18.1273 39.4132 18.3572L44.4708 27.2626C44.5997 27.4896 44.5985 27.7678 44.4678 27.9937L39.4101 36.7269C39.2787 36.9538 39.0364 37.0934 38.7743 37.0934H28.3103C28.0521 37.0934 27.8128 36.9578 27.6801 36.7363L22.4481 28.003C22.31 27.7725 22.3088 27.485 22.4449 27.2533L27.6769 18.3478ZM28.7308 19.4547L23.9326 27.6218L28.7266 35.624H38.3508L42.985 27.6219L38.3466 19.4547H28.7308Z" fill="white"/>
<path fill-rule="evenodd" clip-rule="evenodd" d="M9.04639 28.7186C9.17906 28.4968 9.41846 28.3611 9.67686 28.3611H20.0537C20.316 28.3611 20.5584 28.5009 20.6897 28.728L25.7899 37.5473C25.9215 37.7749 25.9215 38.0554 25.7899 38.2829L20.6897 47.1023C20.5584 47.3294 20.316 47.4692 20.0537 47.4692H9.67686C9.41846 47.4692 9.17906 47.3335 9.04639 47.1117L3.76975 38.2924C3.63079 38.0601 3.63079 37.7702 3.76975 37.5379L9.04639 28.7186ZM10.0934 29.8305L5.25637 37.9151L10.0934 45.9998H19.6298L24.3052 37.9151L19.6298 29.8305H10.0934Z" fill="white"/>
<path fill-rule="evenodd" clip-rule="evenodd" d="M14.4255 16.5681C14.6487 16.4358 14.9251 16.431 15.1527 16.5555L34.3527 27.0559C34.5951 27.1884 34.7426 27.4457 34.7346 27.7218C34.7266 27.9979 34.5645 28.2461 34.3149 28.3644L15.1149 37.464C14.8873 37.5718 14.6203 37.5556 14.4074 37.4209C14.1946 37.2863 14.0655 37.0519 14.0655 36.8001V17.2001C14.0655 16.9406 14.2024 16.7004 14.4255 16.5681ZM15.5349 18.4393V35.6388L32.3835 27.6537L15.5349 18.4393Z" fill="white"/>
<path fill-rule="evenodd" clip-rule="evenodd" d="M17.8263 37.9273C17.8263 39.6092 16.4399 41.0255 14.7278 41.0255C13.0166 41.0255 11.6002 39.6092 11.6002 37.9273C11.6002 36.1873 13.0166 34.8001 14.7278 34.8001C16.4399 34.8001 17.8263 36.1873 17.8263 37.9273Z" fill="white"/>
<path fill-rule="evenodd" clip-rule="evenodd" d="M36.5685 27.0206C36.5685 28.7399 35.152 30.1333 33.47 30.1333C31.7298 30.1333 30.3424 28.7399 30.3424 27.0206C30.3424 25.2713 31.7298 23.9079 33.47 23.9079C35.152 23.9079 36.5685 25.2713 36.5685 27.0206Z" fill="white"/>
<path fill-rule="evenodd" clip-rule="evenodd" d="M38.9009 8.43665L37.0424 8.23328C36.8972 8.20423 36.781 8.11603 36.7519 7.97077C36.6648 7.50594 36.4904 7.06912 36.259 6.63334C36.2009 6.51609 36.23 6.37082 36.3171 6.25461L37.4783 4.79994C37.5945 4.68374 37.5945 4.45132 37.4492 4.33511L36.4904 3.34527C36.3462 3.22906 36.1428 3.22906 35.9975 3.34527L34.6029 4.45132C34.4867 4.53848 34.3424 4.56753 34.2262 4.48037C33.8194 4.24692 33.4127 4.0726 32.9768 3.92734C32.8316 3.89829 32.7444 3.78208 32.7153 3.63682L32.512 1.83248C32.512 1.65817 32.3386 1.60007 32.1643 1.60007H30.7987C30.5954 1.60007 30.4511 1.65817 30.4221 1.83248L30.2477 3.60777C30.2187 3.75303 30.1025 3.86924 29.9572 3.89829C29.4923 4.04355 29.0274 4.21787 28.5916 4.48037C28.4764 4.53848 28.3021 4.53848 28.2149 4.45132L26.8203 3.34527C26.675 3.22906 26.4726 3.22906 26.3564 3.34527L25.3685 4.33511C25.2523 4.45132 25.2233 4.65468 25.3395 4.79994L26.4726 6.22556C26.5598 6.31272 26.5598 6.48705 26.5017 6.60325C26.2693 7.04007 26.0949 7.47688 25.9787 7.97077C25.9496 8.11603 25.8044 8.20423 25.6591 8.23328L23.8878 8.43665C23.7135 8.4657 23.5972 8.61096 23.6263 8.78527V10.1528C23.5972 10.3271 23.7135 10.5014 23.8878 10.5315L25.8044 10.7349C25.9206 10.7349 26.0368 10.8511 26.0949 10.9673C26.2111 11.346 26.3564 11.6656 26.5308 12.0142C26.5889 12.1314 26.5598 12.2767 26.4726 12.3929L25.3395 13.8185C25.2233 13.9638 25.2232 14.1672 25.3685 14.2834L26.3273 15.2732C26.4436 15.3894 26.675 15.4185 26.8203 15.3023L28.2149 14.1672C28.3311 14.051 28.5055 14.051 28.6206 14.1381C28.9984 14.3415 29.4051 14.5168 29.8119 14.633C29.9572 14.6621 30.0444 14.7783 30.0734 14.9236L30.2768 16.8441C30.3058 17.0184 30.4511 17.1637 30.6244 17.1637H32.0191C32.1934 17.1637 32.3387 17.0184 32.3677 16.8441L32.57 14.9526C32.5991 14.8073 32.6863 14.6911 32.8315 14.6621C33.2964 14.5168 33.7323 14.3415 34.139 14.1091C34.2843 14.051 34.4285 14.051 34.5448 14.1381L35.9685 15.3023C36.1137 15.4185 36.3171 15.4185 36.4613 15.2732L37.4202 14.3124C37.5364 14.1672 37.5655 13.9638 37.4492 13.8185L36.2881 12.3638C36.2009 12.2476 36.1719 12.1024 36.259 11.9851C36.4033 11.6656 36.5486 11.346 36.6648 11.0254C36.6938 10.8801 36.81 10.793 36.9553 10.7639L38.9009 10.5606C39.0753 10.5315 39.1625 10.3852 39.1625 10.1818V8.81432C39.1625 8.61096 39.1043 8.4657 38.9009 8.43665ZM31.3798 12.1605C29.8119 12.1605 28.5345 10.8801 28.5345 9.30923C28.5345 7.73835 29.8119 6.45799 31.3798 6.45799C32.9478 6.45799 34.2262 7.73835 34.2262 9.30923C34.2262 10.8801 32.9478 12.1605 31.3798 12.1605Z" fill="white"/>
<path fill-rule="evenodd" clip-rule="evenodd" d="M17.8263 17.1277C17.8263 18.8098 16.4399 20.2255 14.7278 20.2255C13.0166 20.2255 11.6002 18.8098 11.6002 17.1277C11.6002 15.3871 13.0166 14.0001 14.7278 14.0001C16.4399 14.0001 17.8263 15.3871 17.8263 17.1277Z" fill="white"/>
</svg>
