<svg width="48" height="48" viewBox="0 0 48 48" fill="none" xmlns="http://www.w3.org/2000/svg">
<g id="icon 15">
<g id="Vector">
<path fill-rule="evenodd" clip-rule="evenodd" d="M2.2041 6.85709C2.2041 5.3693 3.41019 4.16321 4.89798 4.16321H45.0612V5.6326H4.89798C4.22171 5.6326 3.67349 6.18082 3.67349 6.85709V12.7346C3.67349 13.4109 4.22171 13.9591 4.89798 13.9591H45.0612V15.4285H4.89798C3.41019 15.4285 2.2041 14.2224 2.2041 12.7346V6.85709Z" fill="#5A6CC0"/>
<path fill-rule="evenodd" clip-rule="evenodd" d="M2.2041 21.0612C2.2041 19.5734 3.41019 18.3673 4.89798 18.3673H45.0612V19.8367H4.89798C4.22171 19.8367 3.67349 20.3849 3.67349 21.0612V26.9387C3.67349 27.615 4.22171 28.1632 4.89798 28.1632H22.0408V29.6326H4.89798C3.41019 29.6326 2.2041 28.4265 2.2041 26.9387V21.0612Z" fill="#5A6CC0"/>
<path fill-rule="evenodd" clip-rule="evenodd" d="M4.89798 34.0408C4.22171 34.0408 3.67349 34.589 3.67349 35.2652V41.1428C3.67349 41.8191 4.22171 42.3673 4.89798 42.3673H19.5919V43.8367H4.89798C3.41019 43.8367 2.2041 42.6306 2.2041 41.1428V35.2652C2.2041 33.7775 3.41019 32.5714 4.89798 32.5714H19.5919V34.0408H4.89798Z" fill="#5A6CC0"/>
<path d="M8.81635 9.79586C8.81635 10.6074 8.15848 11.2652 7.34696 11.2652C6.53544 11.2652 5.87757 10.6074 5.87757 9.79586C5.87757 8.98434 6.53544 8.32647 7.34696 8.32647C8.15848 8.32647 8.81635 8.98434 8.81635 9.79586Z" fill="#5A6CC0"/>
<path d="M8.81635 23.9999C8.81635 24.8115 8.15848 25.4693 7.34696 25.4693C6.53544 25.4693 5.87757 24.8115 5.87757 23.9999C5.87757 23.1884 6.53544 22.5306 7.34696 22.5306C8.15848 22.5306 8.81635 23.1884 8.81635 23.9999Z" fill="#5A6CC0"/>
<path d="M8.81635 37.7142C8.81635 38.5257 8.15848 39.1836 7.34696 39.1836C6.53544 39.1836 5.87757 38.5257 5.87757 37.7142C5.87757 36.9027 6.53544 36.2448 7.34696 36.2448C8.15848 36.2448 8.81635 36.9027 8.81635 37.7142Z" fill="#5A6CC0"/>
<path fill-rule="evenodd" clip-rule="evenodd" d="M47.4258 27.8239L44.9301 35.9321L39.1561 29.7167L42.2441 29.0099C41.4818 28.0073 40.5118 27.1363 39.3516 26.4665C34.6732 23.7654 28.6868 25.3724 25.9813 30.0585C23.2758 34.7445 24.8773 40.7324 29.5556 43.4335C31.7045 44.6741 34.1273 45.0059 36.3835 44.5483L36.6756 45.9883C34.0819 46.5145 31.2921 46.1328 28.8209 44.706C23.4383 41.5983 21.5984 34.7112 24.7088 29.3238C27.8192 23.9364 34.7036 22.0863 40.0863 25.1939C41.621 26.08 42.8689 27.2747 43.7957 28.6548L47.4258 27.8239Z" fill="#5A6CC0"/>
<path fill-rule="evenodd" clip-rule="evenodd" d="M45.0612 4.16321C45.467 4.16321 45.7959 4.49214 45.7959 4.8979V14.6938C45.7959 15.0996 45.467 15.4285 45.0612 15.4285C44.6555 15.4285 44.3265 15.0996 44.3265 14.6938V4.8979C44.3265 4.49214 44.6555 4.16321 45.0612 4.16321Z" fill="#5A6CC0"/>
</g>
</g>
</svg>
