<svg width="48" height="48" viewBox="0 0 48 48" fill="none" xmlns="http://www.w3.org/2000/svg">
<path d="M31.6095 2.93879C32.3636 1.63267 34.2488 1.63267 35.0029 2.93879L41.7897 14.6939C42.5438 16 41.6012 17.6327 40.093 17.6327H26.5194C25.0112 17.6327 24.0686 16 24.8227 14.6939L31.6095 2.93879Z" fill="white"/>
<path fill-rule="evenodd" clip-rule="evenodd" d="M1.71436 9.30614C1.71436 7.81835 2.92045 6.61226 4.40823 6.61226H26.449V8.08165H4.40823C3.73197 8.08165 3.18374 8.62987 3.18374 9.30614V42.6123C3.18374 43.2885 3.73197 43.8368 4.40823 43.8368H14.9388V45.3061H4.40823C2.92045 45.3061 1.71436 44.1 1.71436 42.6123V9.30614Z" fill="white"/>
<path fill-rule="evenodd" clip-rule="evenodd" d="M20.3332 14.4123C20.5538 14.329 20.773 14.2463 20.9937 14.163L21.4594 15.5311C20.8245 15.7146 20.0959 16.0456 19.516 16.3747L18.8752 15.0727C19.3391 14.8416 19.8492 14.5949 20.3332 14.4123ZM17.6635 15.8607L18.4639 17.0464C17.9204 17.472 17.4388 17.9285 17.0385 18.4664L16.0053 17.5891C16.4559 16.9219 17.0512 16.3665 17.6635 15.8607ZM15.2322 18.8714L16.4062 19.5872C16.0417 20.22 15.8646 20.9485 15.7131 21.6112L14.4461 21.3174C14.5689 20.4449 14.8164 19.6356 15.2322 18.8714ZM14.2412 22.774L15.6036 22.9197C15.5774 23.6473 15.5675 24.4229 15.7079 25.196L14.4117 25.3543C14.303 24.4029 14.2508 23.5965 14.2412 22.774Z" fill="white"/>
<path fill-rule="evenodd" clip-rule="evenodd" d="M25.9707 21.7273C26.2386 21.5781 26.5276 21.551 26.741 21.551H28.8878C29.089 21.551 29.3731 21.5813 29.6353 21.7273C29.9315 21.8922 30.1775 22.2009 30.1966 22.6258L30.4955 25.2735C31.1398 25.4928 31.7547 25.7547 32.3697 26.0952L34.4376 24.4576L34.4389 24.4565C34.9449 24.0534 35.6607 24.0516 36.1675 24.4593C36.1919 24.479 36.2151 24.5001 36.2369 24.5226L37.7186 26.05C38.0004 26.2984 38.1234 26.6372 38.1361 26.9411C38.1485 27.2385 38.0584 27.5769 37.8185 27.8394L36.0807 30.0133C36.4018 30.6398 36.6606 31.2902 36.8124 31.9874L39.5615 32.2878C39.5668 32.2884 39.5722 32.289 39.5776 32.2897C39.5805 32.2901 39.5834 32.2905 39.5863 32.2909C39.9345 32.3406 40.2553 32.5155 40.4552 32.842C40.6272 33.1231 40.6531 33.429 40.6531 33.6397V35.7864C40.6531 36.0468 40.5982 36.345 40.4226 36.6091C40.2342 36.8923 39.9445 37.0774 39.6038 37.1341C39.5886 37.1367 39.5732 37.1387 39.5578 37.1403L36.6542 37.4434C36.4754 37.9251 36.2611 38.4006 36.0583 38.8491L37.7925 41.0185C38.2625 41.6058 38.0811 42.3304 37.7464 42.7482C37.729 42.7699 37.7103 42.7907 37.6906 42.8105L36.1846 44.3174C35.6683 44.8363 34.9079 44.8334 34.3919 44.4212L34.3855 44.416L32.2572 42.6783C31.6228 43.0281 30.957 43.2954 30.2678 43.5158L29.9668 46.3264C29.9652 46.3412 29.9631 46.356 29.9607 46.3708C29.8652 46.9425 29.3734 47.5102 28.6595 47.5102H26.4669C25.7531 47.5102 25.2625 46.9409 25.1674 46.3708C25.1649 46.3558 25.1628 46.3407 25.1612 46.3256L24.8587 43.4726C24.2343 43.2842 23.6216 43.0205 23.0537 42.7219L20.9629 44.4212C20.6684 44.6564 20.3169 44.7234 20.0209 44.6997C19.7298 44.6764 19.4126 44.5595 19.172 44.3193L19.1635 44.3106L17.6832 42.7847C17.1009 42.2785 17.1877 41.4872 17.5617 41.0192L17.5627 41.018L19.2781 38.8629C19.0471 38.3942 18.8396 37.9307 18.6654 37.3987L15.7958 37.0946C15.7793 37.0929 15.7629 37.0906 15.7466 37.0878C15.0616 36.9697 14.6353 36.3305 14.7016 35.6921V33.6444C14.625 32.9439 15.1311 32.3968 15.7509 32.2936C15.7637 32.2915 15.7765 32.2897 15.7893 32.2882L18.4589 31.9822C18.6462 31.2452 18.9108 30.5821 19.2475 29.9319L17.5627 27.8152L17.5617 27.8141C17.1104 27.2495 17.2374 26.4949 17.6641 26.0683L19.2177 24.5139C19.7267 24.0058 20.4901 24.0811 20.9614 24.4565L20.9629 24.4576L23.0285 26.0934C23.7238 25.6967 24.4446 25.4286 25.1326 25.2117L25.389 22.6047C25.3907 22.5876 25.393 22.5706 25.3958 22.5537C25.4556 22.1954 25.6587 21.9011 25.9707 21.7273ZM26.8768 23.078L26.6345 25.541C26.6321 25.5663 26.6283 25.5914 26.6233 25.6162C26.5202 26.1309 26.1228 26.5398 25.6154 26.6606C24.9201 26.8788 24.2654 27.129 23.6646 27.4904C23.6483 27.5002 23.6316 27.5094 23.6145 27.518C23.3969 27.6276 23.1496 27.6735 22.9184 27.6613C22.707 27.6502 22.4191 27.584 22.1808 27.3699L20.1386 25.7526L18.8771 27.0147L20.5182 29.0763C20.7331 29.3147 20.7996 29.603 20.8108 29.8149C20.823 30.0467 20.7769 30.2935 20.6682 30.5106C20.6662 30.5146 20.6642 30.5186 20.6621 30.5226C20.6612 30.5243 20.6603 30.526 20.6594 30.5278C20.322 31.1608 20.0743 31.7822 19.9087 32.4811C19.7663 33.149 19.1541 33.4076 18.8104 33.4763C18.7897 33.4804 18.7688 33.4837 18.7479 33.4861L16.2286 33.7749V35.6049L18.942 35.8924C19.2581 35.9081 19.5011 36.0625 19.6484 36.1886C19.8124 36.329 19.9416 36.5037 20.0287 36.6776C20.0477 36.7154 20.0634 36.7547 20.0758 36.7952C20.2405 37.331 20.4478 37.7895 20.714 38.321L20.7152 38.3235C20.9715 38.84 20.8048 39.3772 20.5503 39.716C20.546 39.7217 20.5417 39.7273 20.5372 39.7329L18.8754 41.8207L20.139 43.1232L22.1736 41.4696C22.6225 41.0526 23.2649 41.0452 23.7166 41.3451C24.2539 41.6311 24.8202 41.8725 25.3761 42.0332C25.9682 42.1686 26.2642 42.6553 26.3493 43.0802C26.3539 43.1031 26.3575 43.1263 26.3599 43.1496L26.6604 45.9832H28.4678L28.7665 43.1944C28.769 43.1714 28.7725 43.1485 28.777 43.1258C28.8616 42.7034 29.1546 42.2201 29.7396 42.0813C30.4219 41.8668 31.0432 41.6139 31.6139 41.2883C31.6446 41.2709 31.6764 41.2555 31.7091 41.2424C32.0934 41.089 32.6237 41.0385 33.0878 41.3859C33.0963 41.3923 33.1047 41.3989 33.113 41.4057L35.218 43.1244L36.4975 41.8441L34.7744 39.6886C34.7696 39.6826 34.7649 39.6765 34.7603 39.6704C34.5208 39.3515 34.3182 38.7789 34.6562 38.2437C34.8692 37.7725 35.0684 37.3307 35.23 36.8922C35.3756 36.3206 35.8538 36.0346 36.2702 35.9515C36.2935 35.9468 36.3169 35.9433 36.3405 35.9408L39.1262 35.6501V33.7763L36.4738 33.4865C36.4515 33.4841 36.4293 33.4807 36.4072 33.4763C35.9705 33.3891 35.4745 33.0797 35.3514 32.4654L35.3497 32.4564C35.2309 31.8241 34.9905 31.2127 34.6511 30.5744C34.6477 30.5681 34.6445 30.5617 34.6413 30.5554C34.3851 30.0391 34.5513 29.5019 34.806 29.1628C34.8106 29.1567 34.8153 29.1506 34.8201 29.1446L36.5247 27.0123L35.285 25.7344L33.1955 27.3891C33.1901 27.3933 33.1847 27.3975 33.1792 27.4017C32.8554 27.6441 32.264 27.8534 31.7184 27.4807C31.1504 27.1581 30.579 26.9124 29.9594 26.7042C29.3801 26.5628 29.0896 26.0821 29.0054 25.6619C29.0012 25.6406 28.9978 25.6191 28.9954 25.5975L28.711 23.078H26.8768ZM28.9406 23.0821L28.9395 23.0818L28.9406 23.0821ZM27.6545 30.7042C25.6117 30.7042 23.9449 32.3718 23.9449 34.4166C23.9449 36.4614 25.6117 38.1291 27.6545 38.1291C29.6977 38.1291 31.3658 36.4611 31.3658 34.4166C31.3658 32.3721 29.6977 30.7042 27.6545 30.7042ZM22.4179 34.4166C22.4179 31.5294 24.7674 29.1771 27.6545 29.1771C30.5413 29.1771 32.8928 31.529 32.8928 34.4166C32.8928 37.3042 30.5413 39.6561 27.6545 39.6561C24.7674 39.6561 22.4179 37.3038 22.4179 34.4166Z" fill="white"/>
</svg>
