<svg width="48" height="48" viewBox="0 0 48 48" fill="none" xmlns="http://www.w3.org/2000/svg">
<g id="icon 26">
<path id="Vector" d="M31.7691 22.6184L34.4049 22.9064C34.6934 22.9476 34.7758 23.1533 34.7758 23.4413V25.3779C34.7758 25.6659 34.6522 25.8731 34.4049 25.9143L31.6455 26.2023C31.4394 26.2434 31.2746 26.3668 31.2334 26.5726C31.0741 27.0113 30.8764 27.4487 30.6786 27.8861L30.658 27.9318C30.5344 28.0978 30.5755 28.3035 30.6991 28.4681L32.346 30.5282C32.5109 30.7339 32.4696 31.0219 32.3048 31.2276L30.9449 32.5882C30.7403 32.7939 30.4519 32.7939 30.2459 32.6294L28.2267 30.9807C28.0618 30.8573 27.8573 30.8573 27.6512 30.9396C27.0743 31.2687 26.4562 31.5171 25.7969 31.7228C25.5908 31.7639 25.4672 31.9285 25.426 32.1342L25.1391 34.8129C25.0979 35.0597 24.8918 35.2655 24.6446 35.2655H22.6665C22.4207 35.2655 22.2148 35.0597 22.1735 34.8129L21.8851 32.0931C21.8439 31.8873 21.7203 31.7228 21.5142 31.6816C20.9373 31.5171 20.3604 31.2687 19.8247 30.9807C19.6613 30.8573 19.4141 30.8573 19.2492 31.0219L17.2713 32.6294C17.0652 32.7939 16.737 32.7528 16.5721 32.5882L15.2123 31.1864C15.0062 31.0219 15.0063 30.7339 15.1711 30.5282L16.7782 28.5092C16.9018 28.3446 16.9431 28.1389 16.8607 27.9729C16.6134 27.4792 16.4073 27.0266 16.2425 26.4903C16.1601 26.3257 15.9953 26.1611 15.8305 26.1611L13.1122 25.8731C12.865 25.8305 12.7001 25.5837 12.7413 25.3368V23.4002C12.7001 23.1533 12.865 22.9476 13.1122 22.9064L15.6244 22.6184C15.8304 22.5773 16.0364 22.4524 16.0777 22.2467C16.2425 21.5473 16.4898 20.9287 16.8194 20.31C16.9019 20.1455 16.9018 19.8986 16.7782 19.7752L15.1711 17.7562C15.0063 17.5505 15.0474 17.2625 15.2123 17.098L16.6134 15.6962C16.7782 15.5316 17.0652 15.5316 17.2713 15.6962L19.2492 17.2625C19.3729 17.386 19.6201 17.386 19.7834 17.3037C20.4016 16.9319 21.0609 16.685 21.7203 16.4793C21.9263 16.4382 22.0911 16.2736 22.1323 16.0679L22.3796 13.5538C22.4208 13.3069 22.6253 13.2246 22.9138 13.2246H24.8505C25.0978 13.2246 25.3436 13.3069 25.3436 13.5538L25.632 16.109C25.6732 16.3148 25.7969 16.4793 26.0029 16.5205C26.6211 16.7262 27.1979 16.9731 27.7748 17.3037C27.9397 17.4271 28.1443 17.386 28.3091 17.2625L30.2871 15.6962C30.4932 15.5316 30.7816 15.5316 30.9861 15.6962L32.346 17.098C32.5521 17.2625 32.5521 17.5917 32.3873 17.7562L30.7404 19.8163C30.6168 19.9809 30.5756 20.1866 30.658 20.3526C30.9862 20.9698 31.2334 21.5884 31.357 22.2467C31.3982 22.4524 31.563 22.5773 31.7691 22.6184Z" stroke="#5A6CC0" stroke-width="1.5" stroke-miterlimit="10" stroke-linejoin="round"/>
<circle id="Ellipse 72" cx="23.7552" cy="24.2449" r="4.88265" stroke="#5A6CC0" stroke-width="1.5"/>
<g id="Group 137">
<path id="Vector 119" d="M28.1636 13.7143L29.7382 12.3647C29.8268 12.2887 29.8779 12.1777 29.8779 12.061V9.30615" stroke="#5A6CC0" stroke-width="1.5" stroke-linecap="round"/>
<circle id="Ellipse 92" cx="29.8777" cy="6.85717" r="2.18878" stroke="#5A6CC0" stroke-width="1.5"/>
</g>
<g id="Group 143">
<path id="Vector 119_2" d="M19.3467 34.2857L17.7721 35.6354C17.6834 35.7114 17.6324 35.8223 17.6324 35.9391V38.6939" stroke="#5A6CC0" stroke-width="1.5" stroke-linecap="round"/>
<circle id="Ellipse 92_2" cx="17.6325" cy="41.1429" r="2.18878" transform="rotate(180 17.6325 41.1429)" stroke="#5A6CC0" stroke-width="1.5"/>
</g>
<g id="Group 139">
<path id="Vector 119_3" d="M34.2857 19.8367L35.6353 18.2621C35.7113 18.1735 35.8223 18.1224 35.939 18.1224L38.6938 18.1224" stroke="#5A6CC0" stroke-width="1.5" stroke-linecap="round"/>
<circle id="Ellipse 92_3" cx="2.93878" cy="2.93878" r="2.18878" transform="matrix(-4.37114e-08 -1 -1 4.37114e-08 44.0815 21.0612)" stroke="#5A6CC0" stroke-width="1.5"/>
</g>
<g id="Group 142">
<path id="Vector 119_4" d="M34.2857 28.6531L35.6353 30.2277C35.7113 30.3163 35.8223 30.3674 35.939 30.3674L38.6938 30.3674" stroke="#5A6CC0" stroke-width="1.5" stroke-linecap="round"/>
<circle id="Ellipse 92_4" cx="41.1428" cy="30.3674" r="2.18878" transform="rotate(90 41.1428 30.3674)" stroke="#5A6CC0" stroke-width="1.5"/>
</g>
<g id="Group 140">
<path id="Vector 119_5" d="M13.7143 19.8367L12.3647 18.2621C12.2887 18.1735 12.1777 18.1224 12.061 18.1224L9.30615 18.1224" stroke="#5A6CC0" stroke-width="1.5" stroke-linecap="round"/>
<circle id="Ellipse 92_5" cx="6.85723" cy="18.1224" r="2.18878" transform="rotate(-90 6.85723 18.1224)" stroke="#5A6CC0" stroke-width="1.5"/>
</g>
<g id="Group 141">
<path id="Vector 119_6" d="M13.7143 28.6531L12.3647 30.2277C12.2887 30.3163 12.1777 30.3674 12.061 30.3674L9.30615 30.3674" stroke="#5A6CC0" stroke-width="1.5" stroke-linecap="round"/>
<circle id="Ellipse 92_6" cx="2.93878" cy="2.93878" r="2.18878" transform="matrix(4.37114e-08 1 1 -4.37114e-08 3.91846 27.4286)" stroke="#5A6CC0" stroke-width="1.5"/>
</g>
<g id="Group 138">
<path id="Vector 119_7" d="M19.3467 13.7143L17.7721 12.3647C17.6834 12.2887 17.6324 12.1777 17.6324 12.061V9.30615" stroke="#5A6CC0" stroke-width="1.5" stroke-linecap="round"/>
<circle id="Ellipse 92_7" cx="2.93878" cy="2.93878" r="2.18878" transform="matrix(-1 0 0 1 20.5713 3.9184)" stroke="#5A6CC0" stroke-width="1.5"/>
</g>
<g id="Group 144">
<path id="Vector 119_8" d="M28.1636 34.2857L29.7382 35.6354C29.8268 35.7114 29.8779 35.8223 29.8779 35.9391V38.6939" stroke="#5A6CC0" stroke-width="1.5" stroke-linecap="round"/>
<circle id="Ellipse 92_8" cx="2.93878" cy="2.93878" r="2.18878" transform="matrix(1 0 0 -1 26.939 44.0817)" stroke="#5A6CC0" stroke-width="1.5"/>
</g>
</g>
</svg>
