<svg width="48" height="48" viewBox="0 0 48 48" fill="none" xmlns="http://www.w3.org/2000/svg">
<g id="icon 9">
<g id="Vector">
<path fill-rule="evenodd" clip-rule="evenodd" d="M33.8537 18.9958C32.7297 18.9679 31.5778 19.1344 30.5108 19.4654L31.0877 20.4067L32.5858 22.9233C32.7008 23.1167 32.9028 23.1995 33.1328 23.1716H33.8537C34.9197 23.1995 35.9567 23.4209 36.9367 23.8636C37.1667 24.0022 37.4838 23.9463 37.6278 23.725L39.1267 21.2083L39.5297 20.5443C37.8297 19.5492 35.8707 18.9958 33.8537 18.9958ZM26.9667 28.51C27.3127 26.9615 28.2058 25.5506 29.5028 24.5825C29.7328 24.417 29.7907 24.1397 29.6467 23.9184L27.7448 20.6829C24.7768 22.5085 22.8467 25.5506 22.5297 28.9247H26.4487C26.7077 28.8968 26.9097 28.7313 26.9667 28.51ZM27.2268 32.1882C27.1398 31.9679 26.9387 31.8572 26.7077 31.8572H22.6447C23.1927 34.7328 24.9217 37.2504 27.4277 38.9096H28.1198C28.3218 38.9096 28.4938 38.7989 28.5808 38.6603L30.0787 36.1716C30.2227 35.9502 30.1367 35.6182 29.9057 35.4796C28.6387 34.7058 27.6587 33.5443 27.1397 32.1882H27.2268Z" fill="#5A6CC0"/>
<path fill-rule="evenodd" clip-rule="evenodd" d="M12.3238 11.5778C12.4686 11.4983 12.6517 11.4372 12.8487 11.4372H16.1794C16.6946 11.4372 17.0793 11.8501 17.1079 12.3221C17.1839 13.5784 17.6861 14.7903 18.5062 15.7965C18.8069 16.1528 18.8186 16.6735 18.5369 17.0419L16.3379 20.7562L16.3346 20.7616L14.8277 23.2413C14.8222 23.2503 14.8165 23.2591 14.8106 23.2677C14.6054 23.5656 14.2215 23.8066 13.7796 23.7506C13.5651 23.7276 13.351 23.7278 13.1365 23.7512C13.1166 23.7534 13.0967 23.7545 13.0767 23.7545C12.1014 23.7545 11.1628 23.9583 10.308 24.3854C10.2984 24.3902 10.2886 24.3947 10.2787 24.3989C9.74802 24.6263 9.18631 24.3907 8.91557 23.9706C8.91266 23.966 8.90982 23.9615 8.90704 23.9569L7.14307 21.0354C7.13654 21.0246 7.13038 21.0136 7.12461 21.0024C6.95846 20.6788 6.95846 20.299 7.12461 19.9754C7.13003 19.9649 7.13578 19.9545 7.14187 19.9443L11.9209 11.9537L11.925 11.9469C12.029 11.7785 12.1802 11.6566 12.3238 11.5778ZM12.8509 12.5457L8.1025 20.4852C8.10212 20.4868 8.10204 20.488 8.10204 20.4889C8.10204 20.4897 8.1021 20.4908 8.10241 20.4922L9.84351 23.3758C9.84478 23.3773 9.8464 23.379 9.84838 23.3805C9.84915 23.3811 9.8499 23.3816 9.8506 23.3821C10.8532 22.8883 11.9399 22.6565 13.0473 22.6525C13.3288 22.6239 13.6106 22.6245 13.8921 22.6544L13.8934 22.6532C13.8953 22.6516 13.897 22.6499 13.8985 22.6482L15.3912 20.192L17.6086 16.4467C17.6094 16.4452 17.6103 16.4438 17.6112 16.4423C16.7134 15.3219 16.1377 13.9688 16.0187 12.5393H12.8637L12.8628 12.5396C12.8601 12.5408 12.8572 12.5422 12.8541 12.5438C12.853 12.5445 12.8519 12.5451 12.8509 12.5457ZM29.9908 11.9883C29.9908 11.6839 30.2375 11.4372 30.5418 11.4372H34.2957C34.6956 11.4372 35.0395 11.6554 35.2195 11.9469C35.2221 11.9511 35.2246 11.9553 35.2271 11.9596L39.9211 20.033C39.9259 20.0413 39.9305 20.0497 39.9349 20.0582C40.101 20.3817 40.101 20.7616 39.9349 21.0851C39.9295 21.0957 39.9237 21.1061 39.9176 21.1163L38.1536 24.0647C38.1376 24.0915 38.1193 24.1169 38.099 24.1406C37.8035 24.485 37.322 24.6036 36.9001 24.4282C36.8945 24.4258 36.8888 24.4233 36.8832 24.4208C35.9904 24.0139 35.0423 23.8083 34.0613 23.7814H33.3865C32.9869 23.8178 32.577 23.6596 32.3427 23.264L32.3421 23.263L30.8658 20.7599L28.5979 16.9966C28.3654 16.6449 28.3691 16.1848 28.609 15.8365C28.6175 15.8242 28.6265 15.8122 28.6359 15.8006C29.5217 14.7156 29.9908 13.3783 29.9908 11.9883ZM31.0718 12.5393C30.9639 13.9537 30.441 15.3042 29.5435 16.4307L31.8097 20.191L31.8124 20.1955L33.2803 22.6844C33.2834 22.6842 33.2868 22.6839 33.2908 22.6834C33.313 22.6807 33.3354 22.6794 33.3578 22.6794H34.0688C34.0736 22.6794 34.0785 22.6794 34.0834 22.6796C35.1801 22.7087 36.2547 22.9346 37.2741 23.3882L38.957 20.5754C38.9574 20.5738 38.9575 20.5725 38.9575 20.5717C38.9575 20.5706 38.9573 20.569 38.9567 20.5668L34.2894 12.5393H31.0718ZM25.7344 17.7841C26.2268 17.5693 26.7529 17.7753 27.0219 18.1928C27.0239 18.1958 27.0258 18.1988 27.0277 18.2019C27.0295 18.2048 27.0313 18.2078 27.033 18.2108L30.2715 23.6872C30.5755 24.1706 30.4243 24.7578 29.9885 25.0785C28.8177 25.9615 28.008 27.2502 27.6948 28.6677L27.6938 28.6721C27.5776 29.1784 27.1206 29.5136 26.6447 29.5136H20.3867C19.9244 29.5136 19.4653 29.1941 19.3413 28.7147C19.3388 28.7053 19.3366 28.6958 19.3347 28.6863C19.0505 27.285 18.2206 26.0183 17.0342 25.0987C17.0296 25.0952 17.0251 25.0916 17.0206 25.0879C16.6298 24.7648 16.4895 24.1888 16.788 23.7141L20.02 18.2496C20.2871 17.755 20.8774 17.6228 21.3125 17.7804C22.0181 18.0328 22.7786 18.1606 23.5728 18.1606C24.2841 18.1606 25.0116 18.0144 25.7344 17.7841ZM26.1129 18.8199L29.3033 24.215C27.9342 25.2558 26.9921 26.7604 26.6228 28.4116H20.4032C20.0543 26.7642 19.0859 25.3079 17.7471 24.2572L20.9602 18.8248C21.7865 19.1178 22.6667 19.2626 23.5728 19.2626C24.4435 19.2626 25.2995 19.0819 26.1026 18.8233C26.1061 18.8222 26.1095 18.8211 26.1129 18.8199ZM19.1046 32.0158C19.2857 31.5464 19.7168 31.3321 20.1308 31.3321H26.9007C27.3148 31.3321 27.7439 31.5471 27.9261 32.0138C27.9275 32.0175 27.9289 32.0213 27.9303 32.025C28.3695 33.2273 29.227 34.29 30.3527 35.027C30.8196 35.3167 31.0077 35.9775 30.698 36.4704L29.223 38.9435L29.2179 38.9518C29.037 39.2434 28.6947 39.4606 28.2948 39.4606H18.7658C18.3724 39.4606 18.0592 39.2247 17.8837 39.0095C17.8667 38.9887 17.8513 38.9667 17.8376 38.9437L16.3576 36.4639L16.3525 36.4551C16.054 35.9332 16.252 35.3285 16.6784 35.0194C16.6879 35.0125 16.6977 35.0059 16.7077 34.9996C17.8246 34.2948 18.6579 33.2359 19.1013 32.0247L19.1046 32.0158ZM20.1249 32.4342C20.1267 32.4342 20.1286 32.4341 20.1308 32.4341H26.9007C26.9028 32.4341 26.9048 32.4342 26.9066 32.4342C27.4326 33.8522 28.4363 35.0847 29.7323 35.9381L28.2887 38.3585H18.7891C18.7827 38.3548 18.7743 38.349 18.7649 38.3409C18.7622 38.3385 18.7595 38.3361 18.7569 38.3337L17.3163 35.9199C17.3172 35.9189 17.3181 35.9178 17.3192 35.9167C18.627 35.0842 19.6006 33.8461 20.1249 32.4342Z" fill="#5A6CC0"/>
<path fill-rule="evenodd" clip-rule="evenodd" d="M9.52981 30.4344C9.52981 28.507 11.0968 26.9446 13.0298 26.9446C14.9628 26.9446 16.5298 28.507 16.5298 30.4344C16.5298 32.3617 14.9628 33.9241 13.0298 33.9241C11.0968 33.9241 9.52981 32.3617 9.52981 30.4344Z" fill="#5A6CC0"/>
<path fill-rule="evenodd" clip-rule="evenodd" d="M30.5296 30.4344C30.5296 28.507 32.0966 26.9446 34.0296 26.9446C35.9626 26.9446 37.5296 28.507 37.5296 30.4344C37.5296 32.3617 35.9626 33.9241 34.0296 33.9241C32.0966 33.9241 30.5296 32.3617 30.5296 30.4344Z" fill="#5A6CC0"/>
<path fill-rule="evenodd" clip-rule="evenodd" d="M19.53 11.4898C19.53 9.56243 21.097 8 23.03 8C24.963 8 26.53 9.56243 26.53 11.4898C26.53 13.4172 24.963 14.9796 23.03 14.9796C21.097 14.9796 19.53 13.4172 19.53 11.4898Z" fill="#5A6CC0"/>
</g>
</g>
</svg>
