<svg width="48" height="48" viewBox="0 0 48 48" fill="none" xmlns="http://www.w3.org/2000/svg">
<g id="icon 16">
<g id="Vector">
<path fill-rule="evenodd" clip-rule="evenodd" d="M21.8049 8.31707H7.7561C7.51363 8.31707 7.31707 8.51363 7.31707 8.7561V26.3171C7.31707 26.5595 7.51363 26.7561 7.7561 26.7561H21.8049C22.0473 26.7561 22.2439 26.5595 22.2439 26.3171V8.7561C22.2439 8.51363 22.0473 8.31707 21.8049 8.31707ZM7.7561 7C6.78623 7 6 7.78623 6 8.7561V26.3171C6 27.2869 6.78623 28.0732 7.7561 28.0732H21.8049C22.7747 28.0732 23.561 27.2869 23.561 26.3171V8.7561C23.561 7.78623 22.7747 7 21.8049 7H7.7561Z" fill="#5A6CC0"/>
<path fill-rule="evenodd" clip-rule="evenodd" d="M20.0488 14.6829H9.5122V13.3659H20.0488V14.6829Z" fill="#5A6CC0"/>
<path fill-rule="evenodd" clip-rule="evenodd" d="M20.0488 18.1951H9.5122V16.878H20.0488V18.1951Z" fill="#5A6CC0"/>
<path fill-rule="evenodd" clip-rule="evenodd" d="M20.0488 21.7073H9.5122V20.3902H20.0488V21.7073Z" fill="#5A6CC0"/>
<path fill-rule="evenodd" clip-rule="evenodd" d="M41.7193 31.4502L39.7242 31.2322C39.5682 31.2011 39.4435 31.1065 39.4123 30.9508C39.3187 30.4526 39.1316 29.9843 38.8832 29.5172C38.8208 29.3915 38.852 29.2358 38.9455 29.1112L40.1921 27.552C40.3168 27.4274 40.3168 27.1783 40.1609 27.0537L39.1315 25.9927C38.9767 25.8681 38.7584 25.8681 38.6024 25.9927L37.1053 27.1783C36.9805 27.2717 36.8256 27.3028 36.7009 27.2094C36.2642 26.9592 35.8276 26.7723 35.3597 26.6166C35.2037 26.5855 35.1102 26.4609 35.079 26.3052L34.8607 24.3711C34.8607 24.1842 34.6746 24.122 34.4875 24.122H33.0215C32.8032 24.122 32.6484 24.1842 32.6172 24.3711L32.43 26.274C32.3988 26.4298 32.2741 26.5543 32.1181 26.5855C31.6191 26.7412 31.12 26.928 30.6521 27.2094C30.5285 27.2717 30.3413 27.2717 30.2478 27.1783L28.7506 25.9927C28.5947 25.8681 28.3774 25.8681 28.2526 25.9927L27.1921 27.0537C27.0674 27.1783 27.0362 27.3963 27.161 27.552L28.3774 29.0801C28.471 29.1735 28.471 29.3604 28.4086 29.485C28.1591 29.9532 27.9719 30.4214 27.8472 30.9508C27.816 31.1065 27.66 31.2011 27.5041 31.2322L25.6026 31.4502C25.4154 31.4814 25.2907 31.6371 25.3218 31.8239V33.2898C25.2907 33.4766 25.4154 33.6635 25.6026 33.6957L27.66 33.9137C27.7848 33.9137 27.9095 34.0383 27.9719 34.1628C28.0967 34.5688 28.2527 34.9114 28.4398 35.2851C28.5022 35.4107 28.471 35.5664 28.3774 35.691L27.161 37.2192C27.0362 37.3749 27.0362 37.5929 27.1921 37.7174L28.2214 38.7785C28.3462 38.903 28.5947 38.9342 28.7506 38.8096L30.2478 37.5929C30.3725 37.4683 30.5597 37.4683 30.6833 37.5617C31.0888 37.7797 31.5255 37.9677 31.9621 38.0922C32.1181 38.1234 32.2117 38.2479 32.2429 38.4037L32.4612 40.4623C32.4924 40.6492 32.6483 40.8049 32.8343 40.8049H34.3315C34.5187 40.8049 34.6746 40.6492 34.7058 40.4623L34.923 38.4348C34.9542 38.2791 35.0478 38.1545 35.2037 38.1234C35.7028 37.9677 36.1707 37.7797 36.6073 37.5306C36.7633 37.4683 36.9181 37.4683 37.0429 37.5617L38.5712 38.8096C38.7272 38.9342 38.9455 38.9342 39.1003 38.7785L40.1296 37.7486C40.2544 37.5929 40.2856 37.3749 40.1609 37.2192L38.9143 35.6599C38.8207 35.5353 38.7896 35.3796 38.8832 35.2539C39.038 34.9114 39.194 34.5688 39.3187 34.2251C39.3499 34.0694 39.4746 33.976 39.6306 33.9449L41.7193 33.7269C41.9064 33.6957 42 33.5389 42 33.3209V31.855C42 31.6371 41.9376 31.4814 41.7193 31.4502ZM33.6453 35.4419C31.9621 35.4419 30.5908 34.0694 30.5908 32.3856C30.5908 30.7017 31.9621 29.3293 33.6453 29.3293C35.3285 29.3293 36.7009 30.7017 36.7009 32.3856C36.7009 34.0694 35.3285 35.4419 33.6453 35.4419Z" fill="#5A6CC0"/>
<path fill-rule="evenodd" clip-rule="evenodd" d="M37.0153 20.4095C37.07 20.6137 37.1244 20.8165 37.1791 21.0207L35.9176 21.315C35.8102 20.7324 35.5795 20.0532 35.3374 19.5067L36.5554 19.0506C36.7204 19.4848 36.8953 19.9617 37.0153 20.4095ZM35.9599 17.8999L34.8314 18.5088C34.4999 17.9864 34.1354 17.5164 33.6911 17.1117L34.5652 16.2678C35.1203 16.7288 35.563 17.309 35.9599 17.8999ZM33.4899 15.4646L32.7475 16.4483C32.2153 16.0672 31.5813 15.8447 31.0035 15.6509L31.3779 14.5468C32.1452 14.7336 32.8451 15.0261 33.4899 15.4646ZM30.0968 14.2349L29.8461 15.4372C29.1995 15.3494 28.5085 15.2718 27.8065 15.3286L27.7801 14.1584C28.6384 14.1457 29.3623 14.1706 30.0968 14.2349Z" fill="#5A6CC0"/>
<path fill-rule="evenodd" clip-rule="evenodd" d="M21.0135 39.6044C21.2249 39.6044 21.4348 39.6044 21.6462 39.6044L21.6039 38.3097C21.0135 38.3567 20.2977 38.3097 19.7072 38.2173L19.5818 39.5119C20.0439 39.5589 20.5498 39.6044 21.0135 39.6044ZM18.3162 39.2345L18.6123 37.9868C18.0218 37.8019 17.4736 37.5714 16.9676 37.247L16.3787 38.3097C16.9677 38.7266 17.6427 39.0041 18.3162 39.2345ZM15.3246 37.479L16.0827 36.5072C15.5768 36.0918 15.1978 35.537 14.861 35.0291L13.8914 35.6764C14.2705 36.3692 14.7341 36.9696 15.3246 37.479ZM13.2586 34.5197L14.355 33.9664C14.1028 33.3645 13.8491 32.7172 13.7223 32.0244L12.5851 32.3018C12.795 33.1341 13.0064 33.8269 13.2586 34.5197Z" fill="#5A6CC0"/>
</g>
</g>
</svg>
