<svg width="48" height="48" viewBox="0 0 48 48" fill="none" xmlns="http://www.w3.org/2000/svg">
<g id="icon 20">
<g id="Vector">
<path fill-rule="evenodd" clip-rule="evenodd" d="M35.0206 5.87756C35.0206 4.38978 33.8145 3.18369 32.3267 3.18369H14.8211C14.6276 3.18369 14.4419 3.26 14.3044 3.39607L5.36108 12.243C5.22157 12.381 5.14307 12.5691 5.14307 12.7653V35.2653C5.14307 36.7531 6.34916 37.9592 7.83694 37.9592H23.7553C24.1611 37.9592 24.49 37.6303 24.49 37.2245C24.49 36.8187 24.1611 36.4898 23.7553 36.4898H7.83694C7.16068 36.4898 6.61245 35.9416 6.61245 35.2653V13.5H12.8619C14.3497 13.5 15.5558 12.2939 15.5558 10.8061V4.65307H32.3267C33.003 4.65307 33.5512 5.2013 33.5512 5.87756V21.3061C33.5512 21.7119 33.8802 22.0408 34.2859 22.0408C34.6917 22.0408 35.0206 21.7119 35.0206 21.3061V5.87756ZM14.0864 5.67859L7.66515 12.0306H12.8619C13.5382 12.0306 14.0864 11.4824 14.0864 10.8061V5.67859Z" fill="#5A6CC0"/>
<path fill-rule="evenodd" clip-rule="evenodd" d="M40.1635 22.0408H24.9798C24.7093 22.0408 24.49 22.2601 24.49 22.5306V42.1225C24.49 42.393 24.7093 42.6123 24.9798 42.6123H40.1635C40.434 42.6123 40.6533 42.393 40.6533 42.1225V22.5306C40.6533 22.2601 40.434 22.0408 40.1635 22.0408ZM24.9798 20.5714C23.8978 20.5714 23.0206 21.4486 23.0206 22.5306V42.1225C23.0206 43.2045 23.8978 44.0816 24.9798 44.0816H40.1635C41.2455 44.0816 42.1227 43.2045 42.1227 42.1225V22.5306C42.1227 21.4486 41.2455 20.5714 40.1635 20.5714H24.9798Z" fill="#5A6CC0"/>
<path fill-rule="evenodd" clip-rule="evenodd" d="M27.9186 25.4694V27.9184H37.2247V25.4694H27.9186ZM27.4288 24C26.8878 24 26.4492 24.4386 26.4492 24.9796V28.4082C26.4492 28.9492 26.8878 29.3878 27.4288 29.3878H37.7145C38.2555 29.3878 38.6941 28.9492 38.6941 28.4082V24.9796C38.6941 24.4386 38.2555 24 37.7145 24H27.4288Z" fill="#5A6CC0"/>
<path d="M26.4492 31.347C26.4492 31.0764 26.6685 30.8572 26.939 30.8572H28.4084C28.6789 30.8572 28.8982 31.0764 28.8982 31.347V32.8163C28.8982 33.0868 28.6789 33.3061 28.4084 33.3061H26.939C26.6685 33.3061 26.4492 33.0868 26.4492 32.8163V31.347Z" fill="#5A6CC0"/>
<path d="M26.4492 34.7755C26.4492 34.505 26.6685 34.2857 26.939 34.2857H28.4084C28.6789 34.2857 28.8982 34.505 28.8982 34.7755V36.2449C28.8982 36.5154 28.6789 36.7347 28.4084 36.7347H26.939C26.6685 36.7347 26.4492 36.5154 26.4492 36.2449V34.7755Z" fill="#5A6CC0"/>
<path d="M26.4492 38.2041C26.4492 37.9336 26.6685 37.7143 26.939 37.7143H28.4084C28.6789 37.7143 28.8982 37.9336 28.8982 38.2041V39.6735C28.8982 39.944 28.6789 40.1633 28.4084 40.1633H26.939C26.6685 40.1633 26.4492 39.944 26.4492 39.6735V38.2041Z" fill="#5A6CC0"/>
<path d="M31.3471 31.347C31.3471 31.0764 31.5664 30.8572 31.8369 30.8572H33.3063C33.5768 30.8572 33.7961 31.0764 33.7961 31.347V32.8163C33.7961 33.0868 33.5768 33.3061 33.3063 33.3061H31.8369C31.5664 33.3061 31.3471 33.0868 31.3471 32.8163V31.347Z" fill="#5A6CC0"/>
<path d="M31.3471 34.7755C31.3471 34.505 31.5664 34.2857 31.8369 34.2857H33.3063C33.5768 34.2857 33.7961 34.505 33.7961 34.7755V36.2449C33.7961 36.5154 33.5768 36.7347 33.3063 36.7347H31.8369C31.5664 36.7347 31.3471 36.5154 31.3471 36.2449V34.7755Z" fill="#5A6CC0"/>
<path d="M31.3471 38.2041C31.3471 37.9336 31.5664 37.7143 31.8369 37.7143H33.3063C33.5768 37.7143 33.7961 37.9336 33.7961 38.2041V39.6735C33.7961 39.944 33.5768 40.1633 33.3063 40.1633H31.8369C31.5664 40.1633 31.3471 39.944 31.3471 39.6735V38.2041Z" fill="#5A6CC0"/>
<path d="M35.7553 31.347C35.7553 31.0764 35.9746 30.8572 36.2451 30.8572H37.7145C37.985 30.8572 38.2043 31.0764 38.2043 31.347V32.8163C38.2043 33.0868 37.985 33.3061 37.7145 33.3061H36.2451C35.9746 33.3061 35.7553 33.0868 35.7553 32.8163V31.347Z" fill="#5A6CC0"/>
<path d="M35.7553 34.7755C35.7553 34.505 35.9746 34.2857 36.2451 34.2857H37.7145C37.985 34.2857 38.2043 34.505 38.2043 34.7755V36.2449C38.2043 36.5154 37.985 36.7347 37.7145 36.7347H36.2451C35.9746 36.7347 35.7553 36.5154 35.7553 36.2449V34.7755Z" fill="#5A6CC0"/>
<path d="M35.7553 38.2041C35.7553 37.9336 35.9746 37.7143 36.2451 37.7143H37.7145C37.985 37.7143 38.2043 37.9336 38.2043 38.2041V39.6735C38.2043 39.944 37.985 40.1633 37.7145 40.1633H36.2451C35.9746 40.1633 35.7553 39.944 35.7553 39.6735V38.2041Z" fill="#5A6CC0"/>
<path fill-rule="evenodd" clip-rule="evenodd" d="M25.4696 16.6531C27.6336 16.6531 29.388 14.8988 29.388 12.7347C29.388 10.5707 27.6336 8.81634 25.4696 8.81634C23.3055 8.81634 21.5512 10.5707 21.5512 12.7347C21.5512 14.8988 23.3055 16.6531 25.4696 16.6531ZM25.4696 18.1225C28.4452 18.1225 30.8574 15.7103 30.8574 12.7347C30.8574 9.75913 28.4452 7.34695 25.4696 7.34695C22.494 7.34695 20.0818 9.75913 20.0818 12.7347C20.0818 15.7103 22.494 18.1225 25.4696 18.1225Z" fill="#5A6CC0"/>
<path fill-rule="evenodd" clip-rule="evenodd" d="M24.7349 8.32654H26.2043V12H30.3676V13.4694H24.7349V8.32654Z" fill="#5A6CC0"/>
<path fill-rule="evenodd" clip-rule="evenodd" d="M9.06143 21.551C9.06143 21.1453 9.39037 20.8163 9.79613 20.8163H20.0818C20.4876 20.8163 20.8165 21.1453 20.8165 21.551C20.8165 21.9568 20.4876 22.2857 20.0818 22.2857H9.79613C9.39037 22.2857 9.06143 21.9568 9.06143 21.551Z" fill="#5A6CC0"/>
<path fill-rule="evenodd" clip-rule="evenodd" d="M9.06143 24.9796C9.06143 24.5738 9.39037 24.2449 9.79613 24.2449H16.6533C17.059 24.2449 17.388 24.5738 17.388 24.9796C17.388 25.3854 17.059 25.7143 16.6533 25.7143H9.79613C9.39037 25.7143 9.06143 25.3854 9.06143 24.9796Z" fill="#5A6CC0"/>
<path fill-rule="evenodd" clip-rule="evenodd" d="M9.06143 28.4082C9.06143 28.0024 9.39037 27.6735 9.79613 27.6735H20.0818C20.4876 27.6735 20.8165 28.0024 20.8165 28.4082C20.8165 28.8139 20.4876 29.1429 20.0818 29.1429H9.79613C9.39037 29.1429 9.06143 28.8139 9.06143 28.4082Z" fill="#5A6CC0"/>
</g>
</g>
</svg>
