<svg width="48" height="48" viewBox="0 0 48 48" fill="none" xmlns="http://www.w3.org/2000/svg">
<g id="icon 35">
<g id="Vector">
<path fill-rule="evenodd" clip-rule="evenodd" d="M14.255 24.1006C14.3497 23.9422 14.4921 23.8412 14.6033 23.777L15.7219 23.1312C15.8267 23.0707 15.9838 23.001 16.1644 22.9982C16.3683 22.995 16.5893 23.0819 16.7271 23.2975L17.6794 24.5872C18.081 24.5076 18.4802 24.4591 18.9031 24.4515L19.4879 22.9762C19.488 22.9759 19.4882 22.9755 19.4883 22.9752C19.6307 22.613 20.0031 22.3967 20.3898 22.4567C20.4084 22.4596 20.4268 22.4636 20.445 22.4688L21.6764 22.8189C21.898 22.8635 22.0641 23.0031 22.1621 23.1576C22.258 23.3088 22.3128 23.5123 22.2668 23.7211L22.0153 25.3766C22.3711 25.6065 22.7016 25.8675 22.9904 26.1851L24.5131 25.5146C24.5161 25.5133 24.5191 25.512 24.5221 25.5108C24.5238 25.5101 24.5254 25.5094 24.527 25.5088C24.7234 25.4299 24.9431 25.4245 25.1455 25.5346C25.3197 25.6293 25.4252 25.7808 25.4886 25.8906L26.1344 27.0092C26.2127 27.1448 26.2739 27.3167 26.2618 27.5072C26.2488 27.7114 26.1535 27.895 25.9931 28.027C25.9859 28.0329 25.9785 28.0386 25.971 28.0441L24.5493 29.0755C24.601 29.3802 24.6324 29.6925 24.6616 29.9872L26.2175 30.5957C26.639 30.7603 26.7629 31.1926 26.7141 31.5109C26.7116 31.5275 26.7082 31.544 26.7038 31.5602L26.3724 32.7984C26.3724 32.7985 26.3724 32.7983 26.3724 32.7984C26.2595 33.2241 25.8625 33.4513 25.4696 33.3918L25.4647 33.391L23.833 33.1258C23.6077 33.4989 23.3412 33.8385 23.0484 34.1606L23.737 35.7156C23.7407 35.7238 23.7441 35.7321 23.7472 35.7406C23.8695 36.0672 23.784 36.5109 23.412 36.7257L22.2696 37.3853C21.8977 37.6 21.4708 37.451 21.2497 37.1825C21.2439 37.1754 21.2383 37.1682 21.2329 37.1608L20.217 35.7653C19.8351 35.8549 19.4365 35.9019 19.0508 35.9171L18.4726 37.4315C18.3899 37.6427 18.2269 37.7833 18.0655 37.86C17.9068 37.9354 17.7064 37.9699 17.5088 37.9172L17.5017 37.9152L16.2714 37.5654C15.8157 37.4769 15.6229 37.0384 15.677 36.6821C15.677 36.6818 15.6771 36.6815 15.6771 36.6812L15.9226 35.0422C15.6613 34.8675 15.4138 34.6884 15.1629 34.4636L13.5763 35.1684C13.5672 35.1725 13.5579 35.1762 13.5486 35.1797C13.1562 35.3242 12.7417 35.1194 12.5843 34.7668L11.9683 33.6999C11.7176 33.3579 11.8167 32.9206 12.1087 32.6804C12.1147 32.6755 12.1208 32.6707 12.127 32.6661L13.4259 31.7035C13.3018 31.2632 13.2402 30.8381 13.2201 30.398L11.7054 29.802C11.7052 29.8019 11.7049 29.8018 11.7046 29.8017C11.2996 29.6433 11.1388 29.2119 11.2328 28.8613L11.5747 27.584C11.687 27.1661 12.1074 26.9757 12.4659 27.0295C12.4663 27.0296 12.4667 27.0296 12.4671 27.0297L14.0354 27.2606C14.2783 26.8448 14.5732 26.4882 14.8665 26.1682L14.2158 24.7327C14.2116 24.7233 14.2076 24.7138 14.204 24.7041C14.1274 24.4995 14.1447 24.285 14.255 24.1006ZM15.1334 24.5318L15.7481 25.888C15.7544 25.9019 15.76 25.9161 15.7649 25.9306C15.866 26.2297 15.7819 26.5623 15.5539 26.7779C15.2572 27.1008 14.9914 27.4281 14.7871 27.7971C14.7815 27.8072 14.7756 27.817 14.7693 27.8266C14.6889 27.9492 14.5738 28.0474 14.4497 28.1107C14.3362 28.1685 14.1663 28.2206 13.9777 28.1807L12.4271 27.9524L12.1495 28.9895L13.6248 29.57C13.8084 29.6295 13.9298 29.7597 13.9994 29.8668C14.0755 29.9839 14.1257 30.1263 14.1344 30.2721C14.1345 30.2748 14.1347 30.2776 14.1348 30.2803C14.1348 30.2814 14.1349 30.2826 14.1349 30.2838C14.1496 30.7151 14.2075 31.1133 14.3314 31.5273C14.4581 31.9182 14.217 32.2371 14.0585 32.3763C14.049 32.3846 14.0391 32.3926 14.0289 32.4002L12.8031 33.3085L13.3537 34.262L14.8539 33.5956C15.0233 33.5087 15.1964 33.516 15.3111 33.5374C15.4388 33.5612 15.5587 33.6134 15.6563 33.6778C15.6776 33.6918 15.6976 33.7075 15.7163 33.7249C15.9633 33.9545 16.2092 34.1311 16.5078 34.328L16.5091 34.3289C16.7981 34.5209 16.8728 34.8509 16.8421 35.104C16.8416 35.1083 16.8411 35.1125 16.8404 35.1168L16.6026 36.7045L17.6528 37.003L18.2155 35.5294C18.3239 35.1771 18.6564 34.98 18.982 35.0004C19.3479 34.9877 19.7157 34.9432 20.0536 34.8597C20.4029 34.7521 20.7035 34.9166 20.8757 35.1124C20.885 35.123 20.8938 35.134 20.9021 35.1454L21.9111 36.5314L22.8528 35.9877L22.1695 34.4448C22.1639 34.4321 22.1588 34.4191 22.1543 34.4059C22.0714 34.1604 22.0786 33.8204 22.3417 33.5721C22.6326 33.2551 22.8803 32.9364 23.0797 32.5951C23.0904 32.5768 23.1024 32.5592 23.1155 32.5425C23.2696 32.347 23.5307 32.1611 23.877 32.2026C23.8834 32.2033 23.8898 32.2042 23.8961 32.2053L25.5099 32.4676L25.7915 31.4156L24.2452 30.8108C24.2409 30.8091 24.2367 30.8074 24.2324 30.8056C24.0117 30.7115 23.7339 30.474 23.749 30.0935C23.7182 29.784 23.6891 29.4938 23.6414 29.2167C23.5453 28.8751 23.7084 28.5823 23.9004 28.4136C23.9111 28.4042 23.9223 28.3953 23.9338 28.387L25.2978 27.3975L24.7341 26.4212L23.265 27.0681C23.2526 27.0735 23.24 27.0784 23.2272 27.0827C22.9734 27.1687 22.6219 27.1567 22.373 26.8737L22.3693 26.8695C22.1173 26.5758 21.8081 26.3295 21.4392 26.099C21.4356 26.0968 21.432 26.0944 21.4284 26.0921C21.1396 25.9002 21.0646 25.5702 21.0953 25.3169C21.0959 25.3123 21.0965 25.3078 21.0972 25.3032L21.3439 23.6794L20.3135 23.3865L19.7226 24.8772C19.7211 24.8811 19.7195 24.8849 19.7178 24.8887C19.6221 25.1124 19.3769 25.3994 18.9805 25.3693C18.5875 25.3721 18.2159 25.416 17.8304 25.4939C17.4861 25.5945 17.1901 25.4314 17.0198 25.2377C17.0112 25.2279 17.003 25.2178 16.9952 25.2073L16.0891 23.98L15.1334 24.5318ZM16.21 23.9131C16.21 23.9131 16.2097 23.9132 16.2093 23.9133L16.21 23.9131ZM17.8328 28.2714C16.7684 28.8859 16.4015 30.2562 17.0167 31.3217C17.6318 32.3871 19.002 32.7546 20.0663 32.1401C21.1309 31.5254 21.4983 30.1545 20.8833 29.0893C20.2682 28.024 18.8973 27.6567 17.8328 28.2714ZM16.221 31.781C15.3525 30.2767 15.8691 28.3442 17.3734 27.4757C18.8775 26.6073 20.8102 27.1254 21.6789 28.6299C22.5475 30.1345 22.0298 32.0673 20.5257 32.9357C19.0214 33.8042 17.0896 33.2854 16.221 31.781Z" fill="#5A6CC0"/>
<path fill-rule="evenodd" clip-rule="evenodd" d="M31.7447 15.4345C31.8761 15.3612 32.0179 15.348 32.1226 15.348H33.1757C33.2744 15.348 33.4138 15.3628 33.5424 15.4344C33.6877 15.5153 33.8084 15.6668 33.8178 15.8752L33.9644 17.1741C34.2805 17.2816 34.5821 17.4102 34.8838 17.5772L35.8983 16.7739C35.8985 16.7737 35.8987 16.7735 35.8989 16.7733C36.1471 16.5756 36.4983 16.5747 36.7469 16.7747C36.7589 16.7843 36.7702 16.7947 36.7809 16.8057L37.5078 17.555C37.6461 17.6769 37.7064 17.8431 37.7126 17.9921C37.7187 18.1381 37.6745 18.3041 37.5568 18.4328L36.7043 19.4993C36.8618 19.8066 36.9888 20.1257 37.0633 20.4677L38.4119 20.6151C38.4145 20.6154 38.4171 20.6157 38.4198 20.616C38.4212 20.6162 38.4226 20.6164 38.4241 20.6166C38.5949 20.641 38.7522 20.7268 38.8503 20.8869C38.9347 21.0248 38.9474 21.1749 38.9474 21.2782V22.3314C38.9474 22.4591 38.9205 22.6054 38.8343 22.735C38.7419 22.8739 38.5998 22.9647 38.4327 22.9925C38.4252 22.9937 38.4176 22.9948 38.4101 22.9956L36.9856 23.1442C36.898 23.3805 36.7928 23.6138 36.6933 23.8338L37.5439 24.8978C37.7744 25.1859 37.6857 25.5416 37.5215 25.7466C37.5129 25.7572 37.5038 25.7674 37.4941 25.7771L36.7553 26.5164C36.7552 26.5164 36.7553 26.5163 36.7553 26.5164C36.502 26.7709 36.129 26.7695 35.8758 26.5673L35.8727 26.5648L34.8286 25.7123C34.5174 25.8839 34.1908 26.015 33.8527 26.1231L33.705 27.5019C33.7042 27.5092 33.7033 27.5165 33.702 27.5237C33.6552 27.8042 33.414 28.0827 33.0637 28.0827H31.9881C31.638 28.0827 31.3973 27.8034 31.3506 27.5237C31.3494 27.5163 31.3484 27.5089 31.3476 27.5015L31.1992 26.1019C30.8929 26.0095 30.5923 25.8802 30.3137 25.7337L29.288 26.5673C29.1436 26.6827 28.9711 26.7156 28.8259 26.7039C28.6831 26.6925 28.5275 26.6352 28.4095 26.5173L28.4053 26.5131L27.6791 25.7645C27.3935 25.5162 27.4361 25.128 27.6195 24.8984C27.6197 24.8982 27.6198 24.898 27.62 24.8978L28.4615 23.8406C28.3482 23.6107 28.2464 23.3833 28.161 23.1223L26.7532 22.9731C26.7452 22.9723 26.7371 22.9711 26.7291 22.9698C26.3931 22.9119 26.1839 22.5983 26.2165 22.2851V21.2806C26.1789 20.9369 26.4271 20.6685 26.7312 20.6179C26.7375 20.6169 26.7437 20.616 26.75 20.6153L28.0597 20.4651C28.1515 20.1036 28.2814 19.7783 28.4465 19.4593L27.62 18.421C27.6198 18.4208 27.6197 18.4206 27.6195 18.4204C27.3981 18.1435 27.4604 17.7733 27.6698 17.564L28.4319 16.8015C28.6816 16.5522 29.0561 16.5891 29.2873 16.7733C29.2876 16.7735 29.2878 16.7737 29.288 16.7739L30.3014 17.5763C30.6424 17.3817 30.996 17.2502 31.3336 17.1438L31.4593 15.8648C31.4602 15.8565 31.4613 15.8481 31.4627 15.8398C31.492 15.6641 31.5916 15.5197 31.7447 15.4345ZM32.1892 16.0971L32.0704 17.3053C32.0691 17.3177 32.0673 17.33 32.0649 17.3422C32.0143 17.5947 31.8193 17.7953 31.5704 17.8545C31.2293 17.9616 30.9081 18.0843 30.6134 18.2616C30.6054 18.2664 30.5972 18.271 30.5888 18.2752C30.4821 18.3289 30.3608 18.3514 30.2473 18.3455C30.1436 18.34 30.0024 18.3075 29.8855 18.2025L28.8836 17.4091L28.2648 18.0283L29.0699 19.0396C29.1753 19.1565 29.2079 19.298 29.2134 19.4019C29.2194 19.5156 29.1968 19.6367 29.1435 19.7432C29.1425 19.7452 29.1415 19.7472 29.1405 19.7491C29.14 19.75 29.1396 19.7508 29.1391 19.7516C28.9737 20.0622 28.8521 20.367 28.7709 20.7099C28.701 21.0375 28.4007 21.1644 28.2321 21.1981C28.2219 21.2001 28.2117 21.2017 28.2014 21.2029L26.9656 21.3446V22.2423L28.2966 22.3834C28.4517 22.3911 28.5709 22.4668 28.6432 22.5286C28.7237 22.5975 28.787 22.6832 28.8298 22.7685C28.8391 22.7871 28.8468 22.8064 28.8529 22.8262C28.9337 23.0891 29.0353 23.314 29.1659 23.5748L29.1665 23.576C29.2923 23.8293 29.2105 24.0929 29.0856 24.2591C29.0835 24.2619 29.0814 24.2647 29.0792 24.2674L28.264 25.2916L28.8838 25.9305L29.882 25.1193C30.1022 24.9148 30.4173 24.9112 30.6389 25.0583C30.9025 25.1986 31.1803 25.317 31.453 25.3958C31.7435 25.4622 31.8887 25.701 31.9304 25.9094C31.9327 25.9207 31.9344 25.9321 31.9356 25.9435L32.0831 27.3336H32.9697L33.1162 25.9655C33.1174 25.9542 33.1192 25.9429 33.1214 25.9318C33.1629 25.7246 33.3066 25.4875 33.5936 25.4194C33.9283 25.3142 34.2331 25.1901 34.5131 25.0304C34.5281 25.0218 34.5437 25.0143 34.5598 25.0079C34.7483 24.9326 35.0085 24.9079 35.2361 25.0783C35.2403 25.0814 35.2444 25.0847 35.2485 25.088L36.2811 25.9311L36.9088 25.3031L36.0635 24.2456C36.0612 24.2427 36.0589 24.2397 36.0566 24.2367C35.9391 24.0803 35.8397 23.7994 36.0055 23.5368C36.11 23.3057 36.2077 23.0889 36.287 22.8738C36.3584 22.5934 36.593 22.4531 36.7973 22.4123C36.8087 22.4101 36.8202 22.4083 36.8318 22.4071L38.1983 22.2645V21.3453L36.8972 21.2031C36.8862 21.2019 36.8753 21.2002 36.8645 21.1981C36.6503 21.1553 36.4069 21.0035 36.3466 20.7022L36.3457 20.6978C36.2874 20.3876 36.1695 20.0877 36.003 19.7745C36.0014 19.7714 35.9998 19.7683 35.9982 19.7652C35.8725 19.5119 35.9541 19.2484 36.079 19.082C36.0813 19.079 36.0836 19.0761 36.0859 19.0731L36.9221 18.0271L36.314 17.4002L35.2889 18.2119C35.2863 18.214 35.2836 18.2161 35.2809 18.2181C35.1221 18.337 34.832 18.4397 34.5643 18.2569C34.2857 18.0986 34.0054 17.9781 33.7014 17.8759C33.4173 17.8066 33.2747 17.5708 33.2334 17.3646C33.2313 17.3542 33.2297 17.3436 33.2285 17.333L33.089 16.0971H32.1892ZM33.2016 16.0991C33.2016 16.0991 33.2014 16.099 33.2011 16.0989L33.2016 16.0991ZM32.5707 19.8382C31.5686 19.8382 30.7509 20.6563 30.7509 21.6594C30.7509 22.6625 31.5686 23.4806 32.5707 23.4806C33.573 23.4806 34.3913 22.6623 34.3913 21.6594C34.3913 20.6564 33.573 19.8382 32.5707 19.8382ZM30.0018 21.6594C30.0018 20.243 31.1544 19.0891 32.5707 19.0891C33.9869 19.0891 35.1404 20.2428 35.1404 21.6594C35.1404 23.0759 33.9869 24.2297 32.5707 24.2297C31.1544 24.2297 30.0018 23.0757 30.0018 21.6594Z" fill="#5A6CC0"/>
<path fill-rule="evenodd" clip-rule="evenodd" d="M19.739 9.38499C19.8589 9.31821 19.9882 9.30612 20.0837 9.30612H21.0442C21.1342 9.30612 21.2613 9.31965 21.3786 9.38498C21.5112 9.45877 21.6212 9.59686 21.6298 9.78698L21.7635 10.9716C22.0518 11.0697 22.3269 11.1869 22.602 11.3393L23.5272 10.6066C23.5275 10.6064 23.5277 10.6063 23.5279 10.6061C23.7542 10.4257 24.0745 10.4249 24.3012 10.6073C24.3122 10.6161 24.3225 10.6256 24.3323 10.6356L24.9952 11.319C25.1213 11.4301 25.1764 11.5818 25.182 11.7177C25.1876 11.8508 25.1472 12.0022 25.0399 12.1196L24.2624 13.0923C24.4061 13.3726 24.5218 13.6636 24.5898 13.9755L25.8198 14.1099C25.8222 14.1102 25.8246 14.1105 25.827 14.1108C25.8283 14.1109 25.8296 14.1111 25.8309 14.1113C25.9867 14.1335 26.1302 14.2118 26.2196 14.3579C26.2966 14.4836 26.3082 14.6205 26.3082 14.7148V15.6753C26.3082 15.7917 26.2836 15.9252 26.205 16.0434C26.1208 16.17 25.9911 16.2529 25.8387 16.2782C25.8319 16.2794 25.825 16.2803 25.8181 16.281L24.519 16.4166C24.439 16.6321 24.3431 16.8449 24.2524 17.0455L25.0281 18.0159C25.2384 18.2787 25.1574 18.6031 25.0077 18.79C24.9999 18.7998 24.9915 18.8091 24.9827 18.8179L24.3089 19.4921C24.3088 19.4922 24.3089 19.4921 24.3089 19.4921C24.0779 19.7243 23.7377 19.723 23.5068 19.5386L23.5039 19.5363L22.5517 18.7588C22.2679 18.9153 21.97 19.0349 21.6616 19.1335L21.5269 20.391C21.5262 20.3976 21.5253 20.4042 21.5242 20.4108C21.4815 20.6667 21.2615 20.9207 20.942 20.9207H19.961C19.6417 20.9207 19.4222 20.6659 19.3796 20.4108C19.3785 20.4041 19.3776 20.3974 19.3769 20.3906L19.2415 19.1142C18.9622 19.0299 18.688 18.9119 18.434 18.7783L17.4985 19.5386C17.3667 19.6438 17.2094 19.6738 17.077 19.6632C16.9468 19.6528 16.8049 19.6005 16.6972 19.493L16.6934 19.4891L16.0311 18.8064C15.7706 18.5799 15.8094 18.2259 15.9767 18.0165C15.9769 18.0163 15.977 18.0161 15.9772 18.0159L16.7447 17.0517C16.6413 16.842 16.5485 16.6346 16.4705 16.3966L15.1866 16.2606C15.1793 16.2598 15.1719 16.2587 15.1646 16.2575C14.8582 16.2047 14.6674 15.9187 14.6971 15.6331V14.7169C14.6628 14.4035 14.8892 14.1587 15.1666 14.1125C15.1723 14.1116 15.178 14.1108 15.1837 14.1101L16.3782 13.9732C16.4619 13.6434 16.5803 13.3468 16.731 13.0559L15.9772 12.1088C15.977 12.1086 15.9769 12.1085 15.9767 12.1083C15.7748 11.8557 15.8316 11.5181 16.0225 11.3272L16.7177 10.6318C16.9454 10.4044 17.2869 10.4381 17.4978 10.6061C17.498 10.6062 17.4983 10.6064 17.4985 10.6066L18.4227 11.3385C18.7337 11.161 19.0562 11.041 19.3641 10.944L19.4788 9.77752C19.4795 9.76989 19.4806 9.76228 19.4818 9.75472C19.5086 9.59444 19.5994 9.46273 19.739 9.38499ZM20.1444 9.98933L20.0361 11.0913C20.0349 11.1026 20.0333 11.1138 20.031 11.125C19.9849 11.3552 19.8071 11.5382 19.5801 11.5922C19.269 11.6898 18.9761 11.8018 18.7072 11.9635C18.6999 11.9679 18.6925 11.972 18.6849 11.9758C18.5875 12.0249 18.4768 12.0454 18.3734 12.0399C18.2788 12.035 18.15 12.0054 18.0434 11.9096L17.1297 11.186L16.5653 11.7506L17.2995 12.6731C17.3957 12.7797 17.4254 12.9087 17.4304 13.0035C17.4359 13.1072 17.4153 13.2176 17.3666 13.3147C17.3657 13.3166 17.3648 13.3183 17.3639 13.3201C17.3635 13.3209 17.3631 13.3217 17.3627 13.3224C17.2117 13.6057 17.1009 13.8837 17.0268 14.1964C16.9631 14.4952 16.6892 14.6109 16.5354 14.6416C16.5262 14.6435 16.5168 14.645 16.5074 14.646L15.3803 14.7753V15.594L16.5943 15.7227C16.7357 15.7297 16.8444 15.7987 16.9103 15.8552C16.9837 15.918 17.0415 15.9962 17.0805 16.074C17.089 16.0909 17.096 16.1085 17.1016 16.1266C17.1753 16.3663 17.268 16.5714 17.3871 16.8093L17.3876 16.8104C17.5023 17.0414 17.4278 17.2818 17.3139 17.4334C17.312 17.436 17.31 17.4385 17.308 17.441L16.5645 18.3751L17.1298 18.9578L18.0402 18.218C18.241 18.0314 18.5284 18.0281 18.7305 18.1623C18.9709 18.2902 19.2243 18.3983 19.473 18.4702C19.7379 18.5307 19.8704 18.7485 19.9084 18.9386C19.9105 18.9489 19.9121 18.9592 19.9132 18.9696L20.0476 20.2374H20.8563L20.9899 18.9897C20.991 18.9794 20.9926 18.9691 20.9946 18.959C21.0325 18.77 21.1636 18.5538 21.4253 18.4917C21.7306 18.3957 22.0086 18.2826 22.2639 18.1369C22.2776 18.1291 22.2918 18.1222 22.3065 18.1164C22.4784 18.0477 22.7157 18.0251 22.9233 18.1806C22.9271 18.1834 22.9309 18.1864 22.9346 18.1894L23.8764 18.9584L24.4489 18.3855L23.678 17.4211C23.6758 17.4184 23.6737 17.4157 23.6717 17.413C23.5645 17.2703 23.4739 17.0141 23.6251 16.7747C23.7204 16.5639 23.8095 16.3662 23.8818 16.17C23.947 15.9142 24.1609 15.7863 24.3472 15.7491C24.3576 15.747 24.3681 15.7454 24.3786 15.7443L25.625 15.6142V14.7759L24.4383 14.6462C24.4283 14.6451 24.4184 14.6436 24.4085 14.6416C24.2131 14.6026 23.9912 14.4642 23.9361 14.1894L23.9353 14.1853C23.8822 13.9025 23.7746 13.6289 23.6228 13.3433C23.6213 13.3405 23.6198 13.3377 23.6184 13.3348C23.5038 13.1038 23.5781 12.8635 23.6921 12.7117C23.6942 12.709 23.6963 12.7063 23.6984 12.7036L24.4611 11.7496L23.9064 11.1778L22.9715 11.9181C22.9691 11.9201 22.9667 11.9219 22.9642 11.9238C22.8194 12.0322 22.5548 12.1259 22.3106 11.9591C22.0565 11.8148 21.8009 11.7049 21.5237 11.6117C21.2645 11.5485 21.1345 11.3334 21.0968 11.1454C21.0949 11.1358 21.0934 11.1262 21.0923 11.1166L20.9651 9.98933H20.1444ZM21.0678 9.99114C21.0678 9.99114 21.0676 9.9911 21.0673 9.99102L21.0678 9.99114ZM20.4924 13.4014C19.5784 13.4014 18.8326 14.1475 18.8326 15.0624C18.8326 15.9773 19.5784 16.7234 20.4924 16.7234C21.4066 16.7234 22.1529 15.9771 22.1529 15.0624C22.1529 14.1476 21.4066 13.4014 20.4924 13.4014ZM18.1495 15.0624C18.1495 13.7706 19.2007 12.7182 20.4924 12.7182C21.784 12.7182 22.8361 13.7704 22.8361 15.0624C22.8361 16.3543 21.784 17.4066 20.4924 17.4066C19.2007 17.4066 18.1495 16.3541 18.1495 15.0624Z" fill="#5A6CC0"/>
<path fill-rule="evenodd" clip-rule="evenodd" d="M23.9998 41.8775C33.8733 41.8775 41.8773 33.8735 41.8773 24H43.3467C43.3467 34.685 34.6848 43.3469 23.9998 43.3469C18.7807 43.3469 14.043 41.2794 10.5636 37.9203C6.92017 34.4028 4.65283 29.4656 4.65283 24C4.65283 13.315 13.3148 4.65306 23.9998 4.65306C26.8785 4.65306 29.6121 5.28225 32.0689 6.41115L34.2445 3.4957L37.5959 11.2892L29.1708 10.2948L31.1686 7.61761C28.9748 6.65619 26.5505 6.12244 23.9998 6.12244C14.1263 6.12244 6.12222 14.1265 6.12222 24C6.12222 29.0507 8.21569 33.6111 11.5842 36.8632C14.8007 39.9685 19.1765 41.8775 23.9998 41.8775Z" fill="#5A6CC0"/>
</g>
</g>
</svg>
