<svg width="48" height="48" viewBox="0 0 48 48" fill="none" xmlns="http://www.w3.org/2000/svg">
<g id="icon 23">
<g id="Vector">
<path fill-rule="evenodd" clip-rule="evenodd" d="M38.2877 2.48415L34.3488 4.73976L30.4325 7.06626L30.3964 11.664L30.4325 16.2617L34.3487 18.5882L38.2877 20.8438L42.2266 18.5881L46.1428 16.2617L46.179 11.664L46.1428 7.06626L42.2266 4.73977L38.2877 2.48415ZM43.1102 3.22494L38.8686 0.796025C38.5087 0.589932 38.0666 0.589931 37.7067 0.796025L33.4652 3.22494L29.2535 5.72695C28.9017 5.93595 28.6848 6.31367 28.6816 6.72286L28.6427 11.664L28.6816 16.6051C28.6848 17.0143 28.9017 17.392 29.2535 17.601L33.4652 20.103L37.7067 22.5319C38.0666 22.738 38.5087 22.738 38.8686 22.5319L43.1102 20.103L47.3218 17.601C47.6736 17.392 47.8905 17.0143 47.8938 16.6051L47.9326 11.664L47.8938 6.72286C47.8905 6.31367 47.6736 5.93595 47.3218 5.72695L43.1102 3.22494Z" fill="#5A6CC0"/>
<path fill-rule="evenodd" clip-rule="evenodd" d="M37.4106 11.644L28.6192 7.21999L29.4075 5.65352L38.2874 10.1221L47.1673 5.65352L47.9556 7.21999L39.1642 11.644V21.9312H37.4106V11.644Z" fill="#5A6CC0"/>
<path fill-rule="evenodd" clip-rule="evenodd" d="M34.5565 2.6752L43.5203 8.38262V13.7853H41.7666V9.34499L33.6146 4.15444L34.5565 2.6752Z" fill="#5A6CC0"/>
<path fill-rule="evenodd" clip-rule="evenodd" d="M15.7827 2.99008H2.33818C2.01534 2.99008 1.75363 3.25178 1.75363 3.57462V20.5264C1.75363 20.8492 2.01534 21.111 2.33818 21.111H15.7827C16.1055 21.111 16.3672 20.8492 16.3672 20.5264V3.57462C16.3672 3.25178 16.1055 2.99008 15.7827 2.99008ZM2.33818 1.23644C1.04684 1.23644 0 2.28328 0 3.57462V20.5264C0 21.8177 1.04684 22.8646 2.33818 22.8646H15.7827C17.074 22.8646 18.1209 21.8177 18.1209 20.5264V3.57462C18.1209 2.28328 17.074 1.23644 15.7827 1.23644H2.33818Z" fill="#5A6CC0"/>
<path fill-rule="evenodd" clip-rule="evenodd" d="M10.2295 6.49734C10.2295 6.01309 10.6221 5.62053 11.1063 5.62053L14.6136 5.62052C15.0979 5.62052 15.4904 6.01309 15.4904 6.49734C15.4904 6.98159 15.0979 7.37416 14.6136 7.37416L11.1063 7.37416C10.6221 7.37416 10.2295 6.98159 10.2295 6.49734Z" fill="#5A6CC0"/>
<path fill-rule="evenodd" clip-rule="evenodd" d="M10.2295 11.7582C10.2295 11.274 10.6221 10.8814 11.1063 10.8814H14.6136C15.0979 10.8814 15.4904 11.274 15.4904 11.7582C15.4904 12.2425 15.0979 12.6351 14.6136 12.6351H11.1063C10.6221 12.6351 10.2295 12.2425 10.2295 11.7582Z" fill="#5A6CC0"/>
<path fill-rule="evenodd" clip-rule="evenodd" d="M10.2295 17.0191C10.2295 16.5349 10.6221 16.1423 11.1063 16.1423H14.6136C15.0979 16.1423 15.4904 16.5349 15.4904 17.0191C15.4904 17.5034 15.0979 17.896 14.6136 17.896H11.1063C10.6221 17.896 10.2295 17.5034 10.2295 17.0191Z" fill="#5A6CC0"/>
<path fill-rule="evenodd" clip-rule="evenodd" d="M8.28231 5.36325C8.58582 5.74058 8.52597 6.29252 8.14863 6.59602L5.41889 8.79169L3.54226 7.28223C3.16492 6.97872 3.10507 6.42678 3.40858 6.04945C3.71209 5.67211 4.26403 5.61226 4.64136 5.91577L5.41889 6.54117L7.04953 5.22957C7.42686 4.92606 7.9788 4.98591 8.28231 5.36325Z" fill="#5A6CC0"/>
<path fill-rule="evenodd" clip-rule="evenodd" d="M8.28231 10.6241C8.58582 11.0015 8.52597 11.5534 8.14863 11.8569L5.41889 14.0526L3.54226 12.5431C3.16492 12.2396 3.10507 11.6877 3.40858 11.3103C3.71209 10.933 4.26403 10.8732 4.64136 11.1767L5.41889 11.8021L7.04953 10.4905C7.42686 10.187 7.9788 10.2468 8.28231 10.6241Z" fill="#5A6CC0"/>
<path fill-rule="evenodd" clip-rule="evenodd" d="M8.28231 15.885C8.58582 16.2624 8.52597 16.8143 8.14863 17.1178L5.41889 19.3135L3.54226 17.804C3.16492 17.5005 3.10507 16.9486 3.40858 16.5712C3.71209 16.1939 4.26403 16.1341 4.64136 16.4376L5.41889 17.063L7.04953 15.7514C7.42686 15.4479 7.9788 15.5077 8.28231 15.885Z" fill="#5A6CC0"/>
<path fill-rule="evenodd" clip-rule="evenodd" d="M23.6741 36.3091C25.4496 36.3091 26.889 34.8697 26.889 33.0941C26.889 31.3185 25.4496 29.8791 23.6741 29.8791C21.8985 29.8791 20.4591 31.3185 20.4591 33.0941C20.4591 34.8697 21.8985 36.3091 23.6741 36.3091ZM23.6741 38.0627C26.4181 38.0627 28.6427 35.8382 28.6427 33.0941C28.6427 30.35 26.4181 28.1255 23.6741 28.1255C20.93 28.1255 18.7054 30.35 18.7054 33.0941C18.7054 35.8382 20.93 38.0627 23.6741 38.0627Z" fill="#5A6CC0"/>
<path fill-rule="evenodd" clip-rule="evenodd" d="M27.4736 40.4009H20.4591C18.8449 40.4009 17.5363 41.7095 17.5363 43.3236V46.2464H30.3963V43.3236C30.3963 41.7095 29.0878 40.4009 27.4736 40.4009ZM20.4591 38.6473C17.8764 38.6473 15.7827 40.741 15.7827 43.3236V48H32.1499V43.3236C32.1499 40.741 30.0563 38.6473 27.4736 38.6473H20.4591Z" fill="#5A6CC0"/>
<path fill-rule="evenodd" clip-rule="evenodd" d="M37.4742 25.4298C38.4351 29.0159 36.3069 32.7019 32.7208 33.6628L33.1747 35.3567C37.6963 34.1451 40.3796 29.4975 39.1681 24.9759L37.4742 25.4298Z" fill="#5A6CC0"/>
<path fill-rule="evenodd" clip-rule="evenodd" d="M20.3118 3.72254C22.937 1.09733 27.1933 1.09733 29.8186 3.72254L31.0586 2.48253C27.7485 -0.827511 22.3819 -0.827511 19.0718 2.48253L20.3118 3.72254Z" fill="#5A6CC0"/>
<path fill-rule="evenodd" clip-rule="evenodd" d="M9.82826 25.4298C8.86737 29.0159 10.9955 32.7019 14.5816 33.6628L14.1277 35.3567C9.60614 34.1451 6.92282 29.4975 8.13438 24.9759L9.82826 25.4298Z" fill="#5A6CC0"/>
</g>
</g>
</svg>
