<svg width="48" height="48" viewBox="0 0 48 48" fill="none" xmlns="http://www.w3.org/2000/svg">
<g id="icon 19">
<g id="Vector">
<path fill-rule="evenodd" clip-rule="evenodd" d="M24.0002 24C29.1398 24 33.3063 19.8335 33.3063 14.6939C33.3063 9.55428 29.1398 5.38778 24.0002 5.38778C18.8606 5.38778 14.6941 9.55428 14.6941 14.6939C14.6941 19.8335 18.8606 24 24.0002 24ZM24.0002 25.4694C29.9513 25.4694 34.7757 20.6451 34.7757 14.6939C34.7757 8.74276 29.9513 3.9184 24.0002 3.9184C18.049 3.9184 13.2247 8.74276 13.2247 14.6939C13.2247 20.6451 18.049 25.4694 24.0002 25.4694Z" fill="#5A6CC0"/>
<path fill-rule="evenodd" clip-rule="evenodd" d="M26.4956 21.6562C27.3486 19.9503 27.9185 17.4908 27.9185 14.6939C27.9185 11.897 27.3486 9.43749 26.4956 7.7316C25.5988 5.93782 24.6316 5.38778 24.0002 5.38778C23.3688 5.38778 22.4016 5.93782 21.5047 7.7316C20.6518 9.43749 20.0818 11.897 20.0818 14.6939C20.0818 17.4908 20.6518 19.9503 21.5047 21.6562C22.4016 23.45 23.3688 24 24.0002 24C24.6316 24 25.5988 23.45 26.4956 21.6562ZM24.0002 25.4694C26.9758 25.4694 29.3879 20.6451 29.3879 14.6939C29.3879 8.74276 26.9758 3.9184 24.0002 3.9184C21.0246 3.9184 18.6124 8.74276 18.6124 14.6939C18.6124 20.6451 21.0246 25.4694 24.0002 25.4694Z" fill="#5A6CC0"/>
<path fill-rule="evenodd" clip-rule="evenodd" d="M24.0696 9.55105C27.0229 9.55105 29.516 8.65646 30.8495 7.42871L31.8447 8.50972C30.1573 10.0633 27.2614 11.0204 24.0696 11.0204C20.7809 11.0204 17.7994 10.0035 16.1366 8.35915L17.1699 7.31438C18.4678 8.59802 21.0201 9.55105 24.0696 9.55105Z" fill="#5A6CC0"/>
<path fill-rule="evenodd" clip-rule="evenodd" d="M24.0696 19.8368C27.0229 19.8368 29.516 20.7314 30.8495 21.9591L31.8447 20.8781C30.1573 19.3245 27.2614 18.3674 24.0696 18.3674C20.7809 18.3674 17.7994 19.3843 16.1366 21.0287L17.1699 22.0734C18.4678 20.7898 21.0201 19.8368 24.0696 19.8368Z" fill="#5A6CC0"/>
<path fill-rule="evenodd" clip-rule="evenodd" d="M34.041 15.4286H13.7145V13.9592H34.041V15.4286Z" fill="#5A6CC0"/>
<path fill-rule="evenodd" clip-rule="evenodd" d="M11.0991 33.9746C11.207 34.1614 11.3142 34.347 11.4221 34.5339L12.5819 33.8144C12.2376 33.3172 11.9152 32.6597 11.6982 32.089L10.4528 32.6603C10.6458 33.0935 10.8625 33.5647 11.0991 33.9746ZM10.0601 31.3954L11.3497 30.9998C11.2171 30.3804 11.1475 29.7743 11.1853 29.1562L9.91507 29.1954C9.83525 29.9357 9.92659 30.6786 10.0601 31.3954ZM10.1352 27.8259L11.4088 27.9841C11.5296 27.318 11.8425 26.6907 12.134 26.1254L11.0485 25.6094C10.6098 26.3094 10.2986 27.0356 10.1352 27.8259ZM11.781 24.4406L12.8455 25.1183C13.266 24.5783 13.7272 24.013 14.2947 23.5358L13.4611 22.6767C12.8088 23.3008 12.2845 23.8527 11.781 24.4406Z" fill="#5A6CC0"/>
<path fill-rule="evenodd" clip-rule="evenodd" d="M36.6277 33.9746C36.5197 34.1614 36.4126 34.347 36.3047 34.5339L35.1449 33.8144C35.4892 33.3172 35.8116 32.6597 36.0286 32.089L37.2739 32.6603C37.081 33.0935 36.8643 33.5647 36.6277 33.9746ZM37.6667 31.3954L36.3771 30.9998C36.5097 30.3804 36.5793 29.7743 36.5414 29.1562L37.8117 29.1954C37.8915 29.9357 37.8002 30.6786 37.6667 31.3954ZM37.5916 27.8259L36.318 27.9841C36.1972 27.318 35.8843 26.6907 35.5927 26.1254L36.6783 25.6094C37.117 26.3094 37.4282 27.0356 37.5916 27.8259ZM35.9457 24.4406L34.8812 25.1183C34.4608 24.5783 33.9996 24.013 33.4321 23.5358L34.2656 22.6767C34.918 23.3008 35.4422 23.8527 35.9457 24.4406Z" fill="#5A6CC0"/>
<path fill-rule="evenodd" clip-rule="evenodd" d="M20.0818 34.7755H13.2247C12.9542 34.7755 12.7349 34.9948 12.7349 35.2653V42.1225C12.7349 42.393 12.9542 42.6123 13.2247 42.6123H20.0818C20.3523 42.6123 20.5716 42.393 20.5716 42.1225V35.2653C20.5716 34.9948 20.3523 34.7755 20.0818 34.7755ZM13.2247 33.3062C12.1426 33.3062 11.2655 34.1833 11.2655 35.2653V42.1225C11.2655 43.2045 12.1426 44.0817 13.2247 44.0817H20.0818C21.1638 44.0817 22.041 43.2045 22.041 42.1225V35.2653C22.041 34.1833 21.1638 33.3062 20.0818 33.3062H13.2247Z" fill="#5A6CC0"/>
<path fill-rule="evenodd" clip-rule="evenodd" d="M34.7757 34.7755H27.9185C27.648 34.7755 27.4288 34.9948 27.4288 35.2653V42.1225C27.4288 42.393 27.648 42.6123 27.9185 42.6123H34.7757C35.0462 42.6123 35.2655 42.393 35.2655 42.1225V35.2653C35.2655 34.9948 35.0462 34.7755 34.7757 34.7755ZM27.9185 33.3062C26.8365 33.3062 25.9594 34.1833 25.9594 35.2653V42.1225C25.9594 43.2045 26.8365 44.0817 27.9185 44.0817H34.7757C35.8577 44.0817 36.7349 43.2045 36.7349 42.1225V35.2653C36.7349 34.1833 35.8577 33.3062 34.7757 33.3062H27.9185Z" fill="#5A6CC0"/>
</g>
</g>
</svg>
