<svg width="48" height="48" viewBox="0 0 48 48" fill="none" xmlns="http://www.w3.org/2000/svg">
<g id="icon 32">
<g id="Vector">
<path d="M22.5397 7.74102C14.3666 7.74102 7.74102 14.3666 7.74102 22.5397C7.74102 30.7127 14.3666 37.3383 22.5397 37.3383C30.7127 37.3383 37.3383 30.7127 37.3383 22.5397C37.3383 19.9551 36.6765 17.5276 35.5137 15.415C35.1528 14.7594 34.7437 14.1339 34.291 13.5435V10.9006C35.3678 11.9878 36.295 13.2239 37.0389 14.5755C38.3397 16.9388 39.0793 19.6542 39.0793 22.5397C39.0793 31.6743 31.6743 39.0793 22.5397 39.0793C13.4051 39.0793 6 31.6743 6 22.5397C6 13.4051 13.4051 6 22.5397 6C24.1502 6 25.1281 6.15007 26.602 6.58034V8.24097C25.2175 7.81204 24.0678 7.74102 22.5397 7.74102Z" fill="#5A6CC0"/>
<path fill-rule="evenodd" clip-rule="evenodd" d="M41.3337 43L32.1901 33.8565L33.4212 32.6254L42.5647 41.7689L41.3337 43Z" fill="#5A6CC0"/>
<path d="M12.6739 20.7986H16.7363V29.5037H12.6739V20.7986Z" fill="#5A6CC0"/>
<path d="M17.8969 12.0936H21.9593V29.5037H17.8969V12.0936Z" fill="#5A6CC0"/>
<path d="M23.12 17.8969H27.1824V29.5037H23.12V17.8969Z" fill="#5A6CC0"/>
<path d="M28.343 6.29017H32.4054V29.5037H28.343V6.29017Z" fill="#5A6CC0"/>
</g>
</g>
</svg>
