<svg width="48" height="48" viewBox="0 0 48 48" fill="none" xmlns="http://www.w3.org/2000/svg">
<g id="icon 3">
<g id="Vector">
<path d="M31.4576 14.7596L28.4882 4.69645L41.6876 17.0901L31.4576 14.7596Z" fill="#5A6CC0"/>
<path fill-rule="evenodd" clip-rule="evenodd" d="M3.26514 4.00001C3.26514 3.59425 3.59407 3.26532 3.99983 3.26532H27.8198C27.997 3.26532 28.1681 3.32932 28.3018 3.44554L44.4787 17.5081C44.5272 17.5499 44.5703 17.5979 44.6065 17.6509C44.6802 17.7584 44.7259 17.8866 44.7334 18.0248C44.7343 18.0408 44.7347 18.0567 44.7345 18.0727V44C44.7345 44.4058 44.4056 44.7347 43.9998 44.7347H3.99983C3.59407 44.7347 3.26514 44.4058 3.26514 44V4.00001ZM41.3457 16.7316L29.1907 6.16523L31.5546 14.5861L41.3457 16.7316ZM27.263 4.73471L30.2591 15.4079C30.3325 15.6693 30.544 15.8689 30.8092 15.927L43.2651 18.6565V43.2653H4.73452V4.73471H27.263Z" fill="#5A6CC0"/>
<path fill-rule="evenodd" clip-rule="evenodd" d="M20.2457 17.2526C20.4125 17.1597 20.5925 17.1429 20.7253 17.1429H22.062C22.1873 17.1429 22.3642 17.1617 22.5274 17.2526C22.7118 17.3553 22.865 17.5475 22.8769 17.8121L23.063 19.4607C23.4642 19.5971 23.847 19.7603 24.23 19.9723L25.5175 18.9526C25.5178 18.9524 25.5181 18.9522 25.5184 18.952C25.8334 18.701 26.2791 18.6999 26.5946 18.9537C26.6098 18.9659 26.6243 18.9791 26.6379 18.9931L27.5604 19.9441C27.7359 20.0988 27.8125 20.3097 27.8204 20.4989C27.8281 20.6841 27.772 20.8948 27.6226 21.0582L26.5406 22.4118C26.7405 22.8019 26.9016 23.2069 26.9962 23.641L28.7079 23.828C28.7112 23.8284 28.7146 23.8288 28.7179 23.8292C28.7197 23.8295 28.7215 23.8297 28.7234 23.83C28.9401 23.8609 29.1399 23.9698 29.2643 24.1731C29.3715 24.3481 29.3876 24.5386 29.3876 24.6698V26.0064C29.3876 26.1685 29.3534 26.3542 29.244 26.5187C29.1268 26.695 28.9463 26.8102 28.7343 26.8455C28.7247 26.8471 28.7152 26.8484 28.7056 26.8494L26.8977 27.0381C26.7864 27.338 26.6529 27.6341 26.5266 27.9134L27.6062 29.2638C27.8988 29.6295 27.7862 30.081 27.5777 30.3411C27.5669 30.3546 27.5553 30.3676 27.543 30.3799L26.6053 31.3181C26.6052 31.3182 26.6053 31.3181 26.6053 31.3181C26.2838 31.6413 25.8104 31.6394 25.4891 31.3828L25.4851 31.3796L24.1599 30.2976C23.7649 30.5154 23.3504 30.6818 22.9212 30.819L22.7338 32.569C22.7328 32.5783 22.7316 32.5875 22.73 32.5967C22.6706 32.9527 22.3644 33.3061 21.9198 33.3061H20.5546C20.1102 33.3061 19.8048 32.9517 19.7455 32.5967C19.7439 32.5873 19.7427 32.5779 19.7417 32.5685L19.5533 30.7921C19.1646 30.6748 18.7831 30.5106 18.4295 30.3248L17.1276 31.3828C16.9443 31.5293 16.7254 31.571 16.5411 31.5562C16.3599 31.5417 16.1624 31.4689 16.0126 31.3193L16.0072 31.3139L15.0855 30.3638C14.723 30.0487 14.777 29.5559 15.0099 29.2646C15.0101 29.2643 15.0103 29.2641 15.0105 29.2638L16.0786 27.922C15.9348 27.6301 15.8056 27.3415 15.6971 27.0103L13.9104 26.8209C13.9001 26.8199 13.8899 26.8184 13.8797 26.8167C13.4533 26.7432 13.1878 26.3452 13.2291 25.9477V24.6727C13.1814 24.2365 13.4965 23.8959 13.8824 23.8317C13.8904 23.8303 13.8983 23.8292 13.9063 23.8283L15.5685 23.6377C15.6851 23.1789 15.8499 22.766 16.0596 22.3612L15.0105 21.0432C15.0103 21.043 15.0101 21.0427 15.0099 21.0425C14.7289 20.691 14.808 20.2211 15.0737 19.9555C15.0736 19.9555 15.0737 19.9555 15.0737 19.9555C15.0738 19.9554 15.0739 19.9553 15.074 19.9552L16.041 18.9877C16.3579 18.6713 16.8332 18.7182 17.1267 18.9519C17.127 18.9522 17.1273 18.9524 17.1276 18.9526L18.4138 19.9712C18.8467 19.7242 19.2955 19.5572 19.7239 19.4221L19.8835 17.7989C19.8846 17.7883 19.886 17.7777 19.8877 17.7672C19.925 17.5441 20.0514 17.3608 20.2457 17.2526ZM20.8099 18.0937L20.659 19.6272C20.6575 19.6429 20.6552 19.6586 20.6521 19.674C20.5879 19.9945 20.3404 20.2491 20.0245 20.3243C19.5915 20.4602 19.1839 20.616 18.8098 20.841C18.7996 20.8471 18.7892 20.8528 18.7787 20.8582C18.6432 20.9264 18.4892 20.9549 18.3452 20.9474C18.2136 20.9404 18.0343 20.8993 17.8859 20.766L16.6144 19.759L15.829 20.5448L16.8507 21.8284C16.9846 21.9768 17.026 22.1563 17.0329 22.2883C17.0405 22.4326 17.0118 22.5863 16.9442 22.7214C16.9429 22.724 16.9416 22.7265 16.9403 22.7289C16.9398 22.73 16.9392 22.7311 16.9386 22.7321C16.7286 23.1263 16.5744 23.5132 16.4712 23.9484C16.3826 24.3642 16.0014 24.5253 15.7874 24.568C15.7745 24.5706 15.7615 24.5726 15.7485 24.5741L14.1799 24.754V25.8934L15.8693 26.0724C16.0662 26.0822 16.2174 26.1783 16.3092 26.2568C16.4113 26.3442 16.4918 26.453 16.546 26.5613C16.5578 26.5848 16.5676 26.6093 16.5753 26.6345C16.6778 26.9681 16.8069 27.2536 16.9726 27.5846L16.9734 27.5861C17.133 27.9077 17.0292 28.2422 16.8707 28.4531C16.8681 28.4567 16.8654 28.4602 16.8626 28.4637L15.8279 29.7636L16.6146 30.5746L17.8815 29.545C18.161 29.2853 18.561 29.2808 18.8422 29.4675C19.1767 29.6455 19.5294 29.7959 19.8755 29.8959C20.2441 29.9802 20.4284 30.2832 20.4814 30.5478C20.4843 30.5621 20.4865 30.5765 20.4881 30.591L20.6751 32.3554H21.8005L21.9865 30.6189C21.988 30.6046 21.9902 30.5903 21.993 30.5762C22.0457 30.3132 22.2281 30.0123 22.5923 29.9259C23.0172 29.7923 23.4041 29.6349 23.7594 29.4321C23.7785 29.4212 23.7983 29.4117 23.8187 29.4036C24.058 29.308 24.3882 29.2766 24.6771 29.4929C24.6824 29.4969 24.6876 29.501 24.6928 29.5052L26.0034 30.5754L26.8001 29.7782L25.7273 28.4361C25.7243 28.4323 25.7214 28.4285 25.7185 28.4247C25.5694 28.2262 25.4432 27.8696 25.6536 27.5364C25.7863 27.2431 25.9103 26.9679 26.0109 26.6949C26.1016 26.339 26.3993 26.161 26.6586 26.1092C26.6731 26.1063 26.6877 26.1041 26.7024 26.1026L28.4368 25.9215V24.7549L26.7854 24.5744C26.7715 24.5729 26.7576 24.5708 26.7439 24.568C26.472 24.5137 26.1631 24.3211 26.0865 23.9386L26.0854 23.933C26.0115 23.5393 25.8618 23.1586 25.6505 22.7612C25.6484 22.7573 25.6463 22.7533 25.6444 22.7493C25.4848 22.4279 25.5883 22.0934 25.7469 21.8823C25.7498 21.8785 25.7527 21.8747 25.7557 21.871L26.8171 20.5433L26.0452 19.7476L24.7442 20.7779C24.7408 20.7805 24.7374 20.7831 24.734 20.7857C24.5324 20.9366 24.1642 21.067 23.8244 20.8349C23.4708 20.6341 23.115 20.4811 22.7292 20.3514C22.3686 20.2634 22.1877 19.9641 22.1353 19.7024C22.1326 19.6892 22.1305 19.6758 22.129 19.6624L21.9519 18.0937H20.8099ZM22.0949 18.0962C22.0949 18.0962 22.0946 18.0961 22.0942 18.096L22.0949 18.0962ZM21.2941 22.842C20.0222 22.842 18.9843 23.8803 18.9843 25.1535C18.9843 26.4267 20.0222 27.465 21.2941 27.465C22.5663 27.465 23.6049 26.4265 23.6049 25.1535C23.6049 23.8805 22.5663 22.842 21.2941 22.842ZM18.0336 25.1535C18.0336 23.3558 19.4965 21.8912 21.2941 21.8912C23.0915 21.8912 24.5557 23.3556 24.5557 25.1535C24.5557 26.9514 23.0915 28.4158 21.2941 28.4158C19.4965 28.4158 18.0336 26.9512 18.0336 25.1535Z" fill="#5A6CC0"/>
</g>
</g>
</svg>
