<svg width="48" height="48" viewBox="0 0 48 48" fill="none" xmlns="http://www.w3.org/2000/svg">
<g id="icon 38">
<g id="Vector">
<path fill-rule="evenodd" clip-rule="evenodd" d="M41.1951 7.35366H7.80488C7.55568 7.35366 7.35366 7.55568 7.35366 7.80488V39.3902C7.35366 39.6394 7.55568 39.8415 7.80488 39.8415H41.1951C41.4443 39.8415 41.6463 39.6394 41.6463 39.3902V7.80488C41.6463 7.55568 41.4443 7.35366 41.1951 7.35366ZM7.80488 6C6.80807 6 6 6.80807 6 7.80488V39.3902C6 40.387 6.80807 41.1951 7.80488 41.1951H41.1951C42.1919 41.1951 43 40.387 43 39.3902V7.80488C43 6.80807 42.1919 6 41.1951 6H7.80488Z" fill="#5A6CC0"/>
<path fill-rule="evenodd" clip-rule="evenodd" d="M42.3232 13.8963H6.90244V12.5427H42.3232V13.8963Z" fill="#5A6CC0"/>
<path d="M11.8659 10.061C11.8659 10.8086 11.2598 11.4146 10.5122 11.4146C9.76459 11.4146 9.15854 10.8086 9.15854 10.061C9.15854 9.31337 9.76459 8.70732 10.5122 8.70732C11.2598 8.70732 11.8659 9.31337 11.8659 10.061Z" fill="#5A6CC0"/>
<path fill-rule="evenodd" clip-rule="evenodd" d="M31.9451 26.3049C33.3157 26.3049 34.4268 25.1938 34.4268 23.8232C34.4268 22.4526 33.3157 21.3415 31.9451 21.3415C30.5745 21.3415 29.4634 22.4526 29.4634 23.8232C29.4634 25.1938 30.5745 26.3049 31.9451 26.3049ZM31.9451 27.6585C34.0633 27.6585 35.7805 25.9414 35.7805 23.8232C35.7805 21.705 34.0633 19.9878 31.9451 19.9878C29.8269 19.9878 28.1098 21.705 28.1098 23.8232C28.1098 25.9414 29.8269 27.6585 31.9451 27.6585Z" fill="#5A6CC0"/>
<path fill-rule="evenodd" clip-rule="evenodd" d="M34.878 29.4634H29.4634C28.2174 29.4634 27.2073 30.4735 27.2073 31.7195V33.9756H37.1341V31.7195C37.1341 30.4735 36.1241 29.4634 34.878 29.4634ZM29.4634 28.1098C27.4698 28.1098 25.8537 29.7259 25.8537 31.7195V35.3293H38.4878V31.7195C38.4878 29.7259 36.8717 28.1098 34.878 28.1098H29.4634Z" fill="#5A6CC0"/>
<path d="M10.5122 30.1402C10.5122 29.268 11.2193 28.561 12.0915 28.561C12.9637 28.561 13.6707 29.268 13.6707 30.1402V33.75C13.6707 34.6222 12.9637 35.3293 12.0915 35.3293C11.2193 35.3293 10.5122 34.6222 10.5122 33.75V30.1402Z" fill="#5A6CC0"/>
<path d="M14.5732 23.372C14.5732 22.4997 15.2802 21.7927 16.1524 21.7927C17.0246 21.7927 17.7317 22.4997 17.7317 23.372V33.75C17.7317 34.6222 17.0246 35.3293 16.1524 35.3293C15.2802 35.3293 14.5732 34.6222 14.5732 33.75V23.372Z" fill="#5A6CC0"/>
<path d="M19.0854 18.8598C19.0854 17.9875 19.7924 17.2805 20.6646 17.2805C21.5368 17.2805 22.2439 17.9875 22.2439 18.8598V33.75C22.2439 34.6222 21.5368 35.3293 20.6646 35.3293C19.7924 35.3293 19.0854 34.6222 19.0854 33.75V18.8598Z" fill="#5A6CC0"/>
</g>
</g>
</svg>
