<svg width="1720" height="294" viewBox="0 0 1720 294" fill="none" xmlns="http://www.w3.org/2000/svg">
<path d="M-77.5283 13.6275C-81.4282 41.7246 -37.4625 105.179 169.599 134.222C428.426 170.526 444.421 69.0501 750.813 96.5743C1057.21 124.098 1024.37 190.929 1206.08 212.774C1387.79 234.62 1637.15 146.578 1720.14 164.575" stroke="#5A6CC0" stroke-opacity="0.15"/>
<path d="M-107.572 114.686C-98.0136 104.787 -66.2714 92.089 0.864624 82.8317C70.4656 73.9202 156.13 63.5273 290.974 73.9196C606.199 97.9342 749.351 204.001 1138.87 173.277C1528.39 142.553 1762.2 256.788 1888.58 258.603" stroke="#5A6CC0" stroke-opacity="0.15"/>
<path d="M-105.958 108.369C-97.0722 100.37 -64.7188 91.4793 9.41346 84.137C88.4758 77.4863 170.657 62.5392 314.078 73.7881C628.861 97.9782 763.214 202.083 1142.34 173.988C1521.47 145.892 1756.06 250.013 1880.27 252.637" stroke="#5A6CC0" stroke-opacity="0.15"/>
<path d="M-104.37 102.344C-96.157 96.2446 -63.1924 91.1617 17.9361 85.7345C106.46 81.3445 185.158 61.8433 337.156 73.9488C651.498 98.3144 777.051 200.458 1145.79 174.991C1514.53 149.523 1749.89 243.531 1871.93 246.964" stroke="#5A6CC0" stroke-opacity="0.15"/>
<path d="M-102.782 96.3202C-95.2418 92.1208 -61.666 90.8456 26.4588 87.3334C124.444 85.2041 199.658 61.1488 360.234 74.1108C674.134 98.6519 790.888 198.833 1149.24 175.995C1507.59 153.156 1743.73 237.049 1863.6 241.292" stroke="#5A6CC0" stroke-opacity="0.15"/>
<path d="M-101.194 90.296C-94.3266 87.9965 -60.1397 90.5289 34.9813 88.9317C142.428 89.0632 214.158 60.4537 383.312 74.2724C696.77 98.9889 804.725 197.209 1152.68 176.998C1500.64 156.788 1737.56 230.568 1855.26 235.619" stroke="#5A6CC0" stroke-opacity="0.15"/>
<path d="M-99.6059 84.2724C-93.4117 83.8726 -58.6136 90.2127 43.5037 90.5305C160.411 92.9227 228.659 59.7591 406.39 74.4344C719.406 99.3264 818.562 195.584 1156.13 178.003C1493.7 160.421 1731.39 224.087 1846.93 229.947" stroke="#5A6CC0" stroke-opacity="0.15"/>
<path d="M-98.0179 78.2502C-92.4967 79.7502 -57.0874 89.8979 52.0263 92.1307C178.395 96.7837 243.159 59.066 429.467 74.5978C742.042 99.6653 832.399 193.961 1159.58 179.008C1486.75 164.055 1725.23 217.607 1838.59 224.276" stroke="#5A6CC0" stroke-opacity="0.15"/>
<path d="M-96.43 72.2285C-91.5816 75.6283 -55.5612 89.5837 60.5487 93.7315C196.379 100.645 257.659 58.3733 452.545 74.7617C764.678 100.005 846.236 192.339 1163.02 180.014C1479.81 167.689 1719.06 211.127 1830.25 218.606" stroke="#5A6CC0" stroke-opacity="0.15"/>
<path d="M-94.8422 66.2063C-90.6668 71.5059 -54.0352 89.269 69.071 95.3317C214.362 104.506 272.159 57.6802 475.623 74.9252C787.314 100.344 860.073 190.716 1166.47 181.02C1472.86 171.323 1712.89 204.648 1821.92 212.936" stroke="#5A6CC0" stroke-opacity="0.15"/>
<path d="M-93.2543 60.1856C-89.7519 67.385 -52.5091 88.9558 77.5934 96.9336C232.346 108.369 286.659 56.9886 498.7 75.0902C809.95 100.684 873.909 189.095 1169.91 182.027C1465.92 174.959 1706.73 198.169 1813.58 207.266" stroke="#5A6CC0" stroke-opacity="0.15"/>
<path d="M-91.6666 54.1646C-88.837 63.2638 -50.9831 88.6421 86.1156 98.5349C250.33 112.231 301.159 56.2966 521.778 75.2548C832.586 101.024 887.746 187.473 1173.36 183.034C1458.97 178.594 1700.56 191.691 1805.24 201.597" stroke="#5A6CC0" stroke-opacity="0.15"/>
<path d="M-90.0788 48.1441C-87.9222 59.1431 -49.4571 88.3291 94.6379 100.137C268.313 116.094 315.659 55.6052 544.855 75.42C855.222 101.365 901.583 185.852 1176.81 184.041C1452.03 182.23 1694.39 185.213 1796.91 195.928" stroke="#5A6CC0" stroke-opacity="0.15"/>
<path d="M-88.4913 42.1253C-87.0076 55.024 -47.9313 88.0177 103.16 101.741C286.297 119.958 330.159 54.9154 567.932 75.5868C877.858 101.707 915.419 184.232 1180.25 185.05C1445.08 185.867 1688.22 178.736 1788.57 190.261" stroke="#5A6CC0" stroke-opacity="0.15"/>
<path d="M-86.9036 36.1061C-86.0929 50.9046 -46.4054 87.706 111.682 103.344C304.28 123.822 344.659 54.2253 591.01 75.7533C900.493 102.049 929.256 182.612 1183.7 186.058C1438.14 189.505 1682.06 172.259 1780.23 184.593" stroke="#5A6CC0" stroke-opacity="0.15"/>
<path d="M-85.43 31.3573C-85.2922 48.0557 -44.9936 88.6646 120.09 106.217C322.149 128.957 359.045 54.8055 613.973 77.1902C923.015 103.661 942.978 182.263 1187.03 188.337C1431.08 194.412 1675.77 167.053 1771.78 180.196" stroke="#5A6CC0" stroke-opacity="0.15"/>
<path d="M-84.1177 28.4013C-84.6529 46.9994 -43.7431 91.416 128.337 110.884C339.857 135.884 373.27 57.1786 636.775 80.4198C945.375 107.067 956.54 183.706 1190.2 192.409C1423.86 201.112 1669.33 163.639 1763.17 177.591" stroke="#5A6CC0" stroke-opacity="0.15"/>
<path d="M-82.8053 25.4463C-84.0134 45.9442 -42.4924 94.1685 136.584 115.551C357.566 142.812 387.495 59.5527 659.577 83.6505C967.736 110.473 970.101 185.151 1193.37 196.482C1416.64 207.813 1662.89 160.227 1754.56 174.988" stroke="#5A6CC0" stroke-opacity="0.15"/>
<path d="M-81.4928 22.4904C-83.3739 44.8882 -41.2417 96.9201 144.831 120.218C375.274 149.739 401.719 61.9258 682.379 86.8803C990.097 113.878 983.663 186.594 1196.54 200.554C1409.42 214.514 1656.45 156.813 1745.95 172.384" stroke="#5A6CC0" stroke-opacity="0.15"/>
<path d="M-80.1783 19.5358C-82.7322 43.8333 -39.9889 99.6729 153.08 124.886C392.984 156.668 415.946 64.3002 705.184 90.1113C1012.46 117.285 997.226 188.039 1199.71 204.627C1402.2 221.215 1650.01 153.401 1737.34 169.781" stroke="#5A6CC0" stroke-opacity="0.15"/>
<path d="M-78.8567 16.5808C-82.0836 42.7781 -38.7291 102.425 161.336 129.553C410.702 163.596 430.18 66.6743 727.995 93.3419C1034.83 120.691 1010.8 189.483 1202.89 208.7C1394.99 227.917 1643.57 149.988 1728.74 167.177" stroke="#5A6CC0" stroke-opacity="0.15"/>
</svg>
